<?xml version="1.0" standalone="no"?>
<!DOCTYPE svg PUBLIC "-//W3C//DTD SVG 1.1//EN" "http://www.w3.org/Graphics/SVG/1.1/DTD/svg11.dtd" >
<svg xmlns="http://www.w3.org/2000/svg">
<metadata>
This is a custom SVG webfont generated by Font Squirrel.
</metadata>
<defs>
<font id="FontomasCustomRegular" horiz-adv-x="1024" >
<font-face units-per-em="2048" ascent="1536" descent="-512" />
<missing-glyph horiz-adv-x="500" />
<glyph unicode="%" d="M0 -408v2048h1976v-2048h-1976zM166 1049q47 -74 127 -74q78 0 120 47t42 127v332h-279v-105h152v-229q0 -63 -37 -64q-23 0 -55 39zM178 -229h127v301h2l236 -301h127v493h-127v-303h-2l-236 303h-127v-493zM178 379h197q76 0 127 32.5t51 104.5q0 113 -100 127 q55 29 55 100q0 129 -148 129h-182v-493zM305 477v107h47q72 0 72 -53.5t-86 -53.5h-33zM305 680v94h17q68 0 67.5 -47t-70.5 -47h-14zM559 1204q0 -117 50 -173t167 -56q115 0 165 56t50 173v277h-129v-258q0 -41 -4 -65.5t-24.5 -47.5t-57.5 -23q-55 0 -71.5 36t-16.5 100 v258h-129v-277zM633 379h280v108h-151v86h143v109h-143v82h151v108h-280v-493zM795 -229h129v493h-129v-493zM1024 16q0 -111 77 -184.5t187 -73.5q45 0 113 23v153q-43 -53 -111 -53q-59 0 -96 38t-37 97q0 57 37 96.5t94 39.5q72 0 113 -54v154q-63 25 -117 24 q-109 0 -184.5 -77t-75.5 -183zM1063 1032q76 -57 172 -57q88 0 140 46t52 134q0 55 -33.5 88t-72.5 42t-73 23.5t-34 37.5q0 20 17.5 30t38.5 10q47 0 86 -32l51 100q-72 41 -156 41q-74 0 -122 -46t-48 -120q0 -59 33 -92t73 -40t72.5 -21.5t32.5 -40.5q0 -25 -18.5 -38.5 t-42.5 -13.5q-51 0 -115 52zM1483 1372h104v-383h129v383h107v109h-340v-109zM1516 -229h280v108h-154v84h146v109h-146v84h154v108h-280v-493z" />
<glyph unicode="&#x26;" d="M0 -410v957l344 -330l330 330q59 59 141 59t141.5 -59.5t59.5 -141t-60 -141.5l-329 -330l329 -344h-956zM1032 823q0 82 60 142l329 329l-329 344h956v-956l-344 330l-330 -330q-59 -59 -141 -59t-141.5 59t-59.5 141z" />
<glyph unicode="'" d="M0 614.5q0 278.5 137 514t372.5 372.5t514.5 137t514.5 -137t372.5 -372.5t137 -514t-137 -514t-372.5 -373t-514.5 -137.5t-514.5 137.5t-372.5 373t-137 514zM492 82h573l-209 237l463 463l237 -209v574h-573l209 -238l-27 -26l-436 -437l-237 209v-573z" />
<glyph unicode="(" d="M0 -94l709 708l-709 709l315 315l709 -708l709 708l315 -315l-709 -709l709 -708l-315 -316l-709 709l-709 -709z" />
<glyph unicode=")" d="M0 614.5q0 278.5 137 514t372.5 372.5t514.5 137t514.5 -137t372.5 -372.5t137 -514t-137 -514t-372.5 -373t-514.5 -137.5t-514.5 137.5t-372.5 373t-137 514zM643 614l477 -475l146 146l-330 329l330 330l-146 146z" />
<glyph unicode="*" d="M0 614.5q0 278.5 137 514t372.5 372.5t514.5 137t514.5 -137t372.5 -372.5t137 -514t-137 -514t-372.5 -373t-514.5 -137.5t-514.5 137.5t-372.5 373t-137 514zM782 285l146 -146l477 475l-477 476l-146 -146l330 -330z" />
<glyph unicode="+" d="M0 614.5q0 278.5 137 514t372.5 372.5t514.5 137t514.5 -137t372.5 -372.5t137 -514t-137 -514t-372.5 -373t-514.5 -137.5t-514.5 137.5t-372.5 373t-137 514zM365 608.5q0 -268.5 190 -458t458.5 -189.5t456.5 189l-127 145q-135 -131 -319 -131q-186 0 -318.5 132 t-132.5 318.5t132.5 318.5t318.5 132q195 0 319 -131q16 -16 23.5 -33.5t13.5 -42t13 -39.5h-246l369 -368l368 368h-246q-61 188 -242.5 312t-381.5 124q-268 0 -458.5 -189t-190.5 -457.5z" />
<glyph unicode="," d="M0 614.5q0 278.5 137 514t372.5 372.5t514.5 137t514.5 -137t372.5 -372.5t137 -514t-137 -514t-372.5 -373t-514.5 -137.5t-514.5 137.5t-372.5 373t-137 514zM422 496h483v-484h242v484h481v241h-481v482h-242v-482h-483v-241z" />
<glyph unicode="-" d="M0 635v242h543v-242h-543zM215 117l383 383l170 -170l-383 -383zM215 1395l170 170l383 -383l-170 -170zM903 -268v542h242v-542h-242zM1280 330l170 170l383 -383l-170 -170zM1280 1182l383 383l170 -170l-383 -383zM1505 635v242h543v-242h-543z" />
<glyph unicode="." d="M0 635v242h543v-242h-543zM215 117l383 383l170 -170l-383 -383zM903 -268v542h242v-542h-242zM903 1237v543h242v-543h-242zM1280 330l170 170l383 -383l-170 -170zM1280 1182l383 383l170 -170l-383 -383zM1505 635v242h543v-242h-543z" />
<glyph unicode="/" d="M215 117l383 383l170 -170l-383 -383zM215 1395l170 170l383 -383l-170 -170zM903 -268v542h242v-542h-242zM903 1237v543h242v-543h-242zM1280 330l170 170l383 -383l-170 -170zM1280 1182l383 383l170 -170l-383 -383zM1505 635v242h543v-242h-543z" />
<glyph unicode="0" d="M0 635v242h543v-242h-543zM215 1395l170 170l383 -383l-170 -170zM903 -268v542h242v-542h-242zM903 1237v543h242v-543h-242zM1280 330l170 170l383 -383l-170 -170zM1280 1182l383 383l170 -170l-383 -383zM1505 635v242h543v-242h-543z" />
<glyph unicode="1" d="M0 635v242h543v-242h-543zM215 117l383 383l170 -170l-383 -383zM215 1395l170 170l383 -383l-170 -170zM903 1237v543h242v-543h-242zM1280 330l170 170l383 -383l-170 -170zM1280 1182l383 383l170 -170l-383 -383zM1505 635v242h543v-242h-543z" />
<glyph unicode="2" d="M0 635v242h543v-242h-543zM215 117l383 383l170 -170l-383 -383zM215 1395l170 170l383 -383l-170 -170zM903 -268v542h242v-542h-242zM903 1237v543h242v-543h-242zM1280 1182l383 383l170 -170l-383 -383zM1505 635v242h543v-242h-543z" />
<glyph unicode="3" d="M0 635v242h543v-242h-543zM215 117l383 383l170 -170l-383 -383zM215 1395l170 170l383 -383l-170 -170zM903 -268v542h242v-542h-242zM903 1237v543h242v-543h-242zM1280 330l170 170l383 -383l-170 -170zM1280 1182l383 383l170 -170l-383 -383z" />
<glyph unicode="4" d="M0 635v242h543v-242h-543zM215 117l383 383l170 -170l-383 -383zM215 1395l170 170l383 -383l-170 -170zM903 -268v542h242v-542h-242zM903 1237v543h242v-543h-242zM1280 330l170 170l383 -383l-170 -170zM1505 635v242h543v-242h-543z" />
<glyph unicode="5" d="M0 616.5q0 278.5 137 514t372.5 372.5t514.5 137t514.5 -137t372.5 -372.5t137 -514t-137 -514t-372.5 -373t-514.5 -137.5t-514.5 137.5t-372.5 373t-137 514zM422 616q145 -145 264 -273t166 -183l45 -54q16 27 45 73t116 175t171 243t194.5 245t202.5 213 q-37 72 -74 71q-20 -12 -65 -44.5t-232.5 -199.5t-431.5 -411l-291 254z" />
<glyph unicode="6" d="M0 614.5q0 278.5 137 514t372.5 372.5t514.5 137t514.5 -137t372.5 -372.5t137 -514t-137 -514t-372.5 -373t-514.5 -137.5t-514.5 137.5t-372.5 373t-137 514zM422 496h1206v241h-1206v-241z" />
<glyph unicode="7" d="M0 614l219 220l586 -512q307 307 571 555.5t421 384t269.5 227.5t157.5 121l43 28q8 0 22.5 -4t53.5 -39.5t72 -101.5q-512 -455 -1229 -1536l-236 -367q-295 369 -950 1024z" />
<glyph unicode="8" d="M0 420l1219 1218h553l276 -276v-553l-1219 -1219zM1386 1172.5q0 -80.5 57.5 -138t138.5 -57.5t138.5 57.5t57.5 138t-57.5 138t-138.5 57.5t-138.5 -57.5t-57.5 -138z" />
<glyph unicode="9" d="M0 614.5q0 278.5 137 514t372.5 372.5t514.5 137t514.5 -137t372.5 -372.5t137 -514t-137 -514t-372.5 -373t-514.5 -137.5t-514.5 137.5t-372.5 373t-137 514zM549 518l145 -145l330 329l330 -329l145 145l-475 477z" />
<glyph unicode=":" d="M0 614.5q0 278.5 137 514t372.5 372.5t514.5 137t514.5 -137t372.5 -372.5t137 -514t-137 -514t-372.5 -373t-514.5 -137.5t-514.5 137.5t-372.5 373t-137 514zM549 711l475 -478l475 478l-145 145l-330 -330l-330 330z" />
<glyph unicode=";" d="M0 614l1024 1024l315 -315l-708 -709l708 -708l-315 -316z" />
<glyph unicode="&#x3c;" d="M0 -94l709 708l-709 709l315 315l1024 -1024l-1024 -1024z" />
<glyph unicode="=" d="M0 1038q0 248 176 424t424 176t424 -176t176 -424q0 -14 -3 -42.5t-36 -146.5t-89 -266.5t-180 -413.5t-292 -579q-168 313 -292 577.5t-180 418t-88 262t-36 149.5zM424 1038.5q0 -73.5 51 -125t125 -51.5t125 51.5t51 125t-51 124.5t-125 51t-125 -51t-51 -124.5z" />
<glyph unicode="&#x3e;" d="M0 -193v1608q0 88 63.5 151.5t151.5 63.5h2359q88 0 151.5 -63.5t63.5 -151.5v-1608q0 -90 -63.5 -152.5t-151.5 -62.5h-2359q-88 0 -151.5 62.5t-63.5 152.5zM322 -86h2146v1143l-1012 -844h-125l-1009 844v-1143zM356 1309l1039 -867l1038 867h-2077z" />
<glyph unicode="?" d="M0 33q0 225 172 397l1010 1002q213 207 495 206q256 0 429 -172t173 -428q0 -137 -54 -265t-150 -224l-918 -909l-127 124l918 910q152 147 151 364q0 182 -119.5 302t-302.5 120q-209 0 -368 -153l-1010 -1002q-121 -121 -121 -272q0 -117 76 -191.5t192 -74.5 q154 0 275 120l772 762q109 113 109 199q0 43 -33 67.5t-78 24.5q-98 0 -176 -82l-697 -688l-124 125l694 688q135 135 303 135q119 0 205 -75.5t86 -192.5q0 -160 -162 -326l-772 -762q-172 -172 -402 -172q-190 0 -318 126.5t-128 316.5z" />
<glyph unicode="@" d="M0 -153.5q0 106.5 75 181t181 74.5t181 -74.5t75 -181t-75 -181.5t-181 -75t-181 75t-75 181.5zM0 549v393q367 0 678 -181t492.5 -492.5t181.5 -678.5h-394q0 397 -280.5 678t-677.5 281zM0 1245v393q416 0 795 -162.5t653 -437t437 -653.5t163 -795h-395 q0 336 -131 643.5t-352.5 528.5t-527.5 352t-642 131z" />
<glyph unicode="A" d="M0 170q0 152 76 285t207 211q-16 66 -17 127q0 240 170 409.5t410 169.5q211 0 381 -143q88 186 263 297.5t380 111.5q295 0 504 -208.5t209 -503.5q0 -113 -33 -211q174 -59 281.5 -211t107.5 -334q0 -227 -154.5 -394t-380.5 -184v-2h-1781v2q-14 -2 -43 -2 q-240 0 -410 170t-170 410z" />
<glyph unicode="B" d="M0 -408v1303h559v745h1675v-1302h-559v-746h-1675zM186 -221h1303v745h-1303v-745zM745 895h930v-371h373v744h-1303v-373z" />
<glyph unicode="C" d="M0 858q0 68 46 112t114 44h2529q68 0 114 -44t46 -112v-20l-139 -1071q-10 -72 -68.5 -124.5t-132.5 -52.5h-2167q-74 0 -134.5 52.5t-68.5 124.5l-137 1071q-2 6 -2 20zM160 1194q18 98 55 137q33 35 64 35h7q9 -1 18 -1q25 0 51 8q36 11 53 59l49 147q158 59 426 59 q182 0 336 -59l51 -147q49 -47 66.5 -53.5t88.5 -6.5h994q172 0 225 -45q25 -23 45 -133h-2529z" />
<glyph unicode="D" d="M0 614l1024 1024l315 -315l-708 -709l708 -708l-315 -316zM1733 -94l708 708l-708 709l315 315l1024 -1024l-1024 -1024z" />
<glyph unicode="E" d="M0 176q0 82 17.5 151.5t43 122t72.5 97.5t88 74.5t109.5 56.5t118 42t131.5 30.5t130 22.5t134 18q102 12 205 30q49 8 75.5 14.5t69.5 22.5t65.5 34.5t40 52.5t17.5 79q0 258 -348 258q-178 0 -267.5 -64.5t-115.5 -232.5h-500q12 184 90 315.5t206 203t275.5 103 t325.5 31.5q139 0 255 -15t228.5 -58t189.5 -112t124 -182.5t47 -262.5v-836q0 -131 1 -186.5t17.5 -158.5t48.5 -181h-540q-31 82 -37 188q-246 -244 -627 -244q-195 0 -346 59.5t-247.5 194.5t-96.5 332zM547 199q0 -127 82 -193.5t211 -66.5q211 0 342 112.5t131 319.5 v217q-68 -39 -178.5 -62.5t-205.5 -38t-185.5 -40t-143.5 -87t-53 -161.5z" />
<glyph unicode="F" d="M0 -102v1536h1616l405 -404v-1132h-2021zM324 221h1374v647h-242v242h-1132v-889z" />
<glyph unicode="G" d="M0 -391v1157l872 872h19l285 -284l872 -873v-18l-872 -873h-1158zM588 199l20 -21h1137l18 21v549l-18 18h-549l-20 20v568h-568l-20 -19v-1136z" />
<glyph unicode="H" d="M182 279v436l307 -219zM678 29h1370v-437h-1370v437zM678 279v436h1370v-436h-1370zM678 963v436h1370v-436h-1370z" />
<glyph unicode="I" d="M152 127q0 100 12 297q8 102 78.5 162.5t173.5 64.5q201 10 608.5 10.5t607.5 -10.5q102 -4 173 -64.5t79 -162.5q12 -197 12 -297t-12 -297q-8 -102 -78.5 -162.5t-173.5 -64.5q-203 -10 -608 -11q-408 0 -608 11q-102 4 -173 64.5t-79 162.5q-12 197 -12 297zM287 393 h123v-600h118v600h125v103h-366v-103zM301 1640h150l94 -346h10l90 346h150l-113 -337q-8 -25 -20.5 -57t-21.5 -57.5t-15 -55.5v-361h-148v344q-4 25 -59 174zM651 -125q0 -90 74 -90q61 0 123 65v-57h104v518h-104v-393q-35 -39 -64 -39q-27 0 -26 35v397h-107v-436z M788 934v332q0 80 56.5 122t138.5 42q78 0 131 -45.5t53 -120.5v-332q0 -86 -51 -131t-139 -45q-84 0 -136.5 48t-52.5 130zM924 922q0 -53 53 -54q57 0 57 54v350q0 20 -18.5 33.5t-39 13.5t-36.5 -13.5t-16 -33.5v-350zM1057 -207h106v41q45 -47 101 -47q96 0 96 115v286 q0 129 -103 129q-51 0 -94 -47v226h-106v-703zM1163 -109v324q20 20 45 21q43 0 43 -52v-272q0 -43 -37 -43q-28 -1 -51 22zM1278 879v534h131v-491q0 -43 35 -43t78 49v485h131v-641h-131v72q-76 -80 -152 -80q-92 0 -92 115zM1440 -59q0 -74 40 -118t113 -44 q158 0 158 162v39h-109q0 -4 1.5 -27t0 -32t-5.5 -23.5t-14 -20.5t-29 -6q-20 0 -31.5 12.5t-12.5 24.5t-1 35v98h201v131q0 72 -39 113t-110 41q-70 0 -116 -42t-46 -112v-231zM1550 121v57q0 55 47 55q45 0 45 -55v-57h-92z" />
<glyph unicode="J" d="M0 -229v1687q0 74 53 127t127 53h1688q74 0 127 -53t53 -127v-1687q0 -74 -53 -127.5t-127 -53.5h-1688q-74 0 -127 53.5t-53 127.5zM164 920q10 -10 21.5 -30t24.5 -29t38 -9q23 0 67.5 14.5t69.5 14.5q53 0 88 -82q10 -27 25.5 -77t21.5 -67q29 -82 76 -266l14 -53 l17 -66l18 -65l27 -74l28 -63l35 -60l43 -45l49 -35l60 -10q137 0 296.5 133t283.5 319.5t215.5 374t113.5 306.5q6 37 6 69q0 190 -229 191q-152 0 -285 -108.5t-182 -258.5q25 4 48 4q15 0 30 -2q37 -4 65.5 -14t45 -40t16.5 -79q0 -88 -78 -243.5t-154 -155.5 q-39 0 -73 39q-49 51 -78 193t-41.5 275.5t-63.5 240t-143 106.5q-76 0 -164 -53.5t-214 -165t-138 -119.5v-10z" />
<glyph unicode="K" d="M0 -410v2048h1147l409 -409l-2 -1639h-1554zM328 -82h901v1147h-246v246h-655v-1393z" />
<glyph unicode="L" d="M0 471v291l408 57q14 43 38 92l-245 326l207 205l327 -244q31 16 96 41l58 399h293l57 -399q45 -14 98 -39l324 240l209 -205l-244 -320q27 -55 41 -98l381 -55v-291l-379 -53q-20 -55 -43 -103l246 -321l-209 -205l-326 242q-41 -20 -104 -43l-62 -398h-292l-56 404 q-43 14 -88 37l-329 -244l-207 205l247 327q-23 43 -38 95zM739 614.5q0 -122.5 87 -209t210 -86.5t211 86.5t88 209t-88 208.5t-211 86t-210 -86t-87 -208.5z" />
<glyph unicode="M" d="M0 614.5q0 278.5 137 514t372.5 372.5t514.5 137t514.5 -137t372.5 -372.5t137 -514t-137 -514t-372.5 -373t-514.5 -137.5t-514.5 137.5t-372.5 373t-137 514zM311 494q39 -225 203 -389t389 -203v291h242v-291q225 39 389 202.5t203 389.5h-291v241h291 q-39 225 -203 389t-389 203v-291h-242v291q-225 -39 -389 -202.5t-203 -389.5h291v-241h-291z" />
<glyph unicode="N" d="M0 848q0 47 100 47l697 -2l213 663q25 82 65 82q39 0 64 -82l217 -663l694 2q100 0 100 -45q0 -31 -59 -78l-563 -410l215 -661q10 -35 10 -61q0 -49 -37 -50q-35 0 -78 35l-563 408l-563 -408q-47 -35 -80 -35q-37 0 -37 48q0 23 13 63l215 661l-564 410q-59 43 -59 76z " />
<glyph unicode="O" d="M0 -229v1687q0 74 53 127t127 53h1688q74 0 127 -53t53 -127v-1687q0 -74 -53 -127.5t-127 -53.5h-1688q-74 0 -127 53.5t-53 127.5zM403 1095.5q0 -57.5 38 -95t98 -37.5q66 0 104 37q37 36 37 90q0 63 -38 101t-99.5 38t-100.5 -38t-39 -95.5zM410 0h262v858h-262v-858 zM823 858q6 -233 6 -274v-584h263v494q0 43 8 67q41 100 135 101q133 0 133 -187v-475h264v506q0 182 -84 276.5t-219 94.5q-96 0 -162.5 -43t-99.5 -97h-4l-12 121h-228z" />
<glyph unicode="P" d="M0 66v729q0 68 66 67h796v398q0 104 -75.5 151t-186.5 47q-109 0 -188.5 -52t-79.5 -157v-256h-199v262h2q18 178 151.5 288t313.5 110t309 -129t146 -310h2l4 -352q8 0 29.5 1t30.5 0t26.5 -4t25 -10t13.5 -20.5t6 -33.5v-729q0 -66 -66 -66h-1060q-66 0 -66 66z" />
<glyph unicode="Q" d="M0 66v729q0 20 6 33.5t14.5 20.5t24.5 10t26.5 4t32 0t29.5 -1v260h2q18 178 151.5 288t313.5 110t309 -128t146 -311h2l4 -219q8 0 29.5 1t30.5 0t26.5 -4t25 -10t13.5 -20.5t6 -33.5v-729q0 -66 -66 -66h-1060q-66 0 -66 66zM332 862h530v264q0 104 -75.5 151.5 t-186.5 47.5q-109 0 -188.5 -52t-79.5 -157v-254z" />
<glyph unicode="R" d="M0 -229v1687q0 74 53 127t127 53h1688q74 0 127 -53t53 -127v-1687q0 -74 -53 -127.5t-127 -53.5h-1688q-74 0 -127 53.5t-53 127.5zM559 713l186 -6v-621q0 -80 30 -133t84 -76.5t102.5 -31t113.5 -7.5h92q102 0 166 7.5t87.5 15.5t54.5 24v262q-111 -72 -215 -71 q-55 0 -100.5 26.5t-45.5 51.5v559h375l-2 243h-377l4 371h-229q-6 -139 -76 -242q-6 -10 -18.5 -32.5t-23.5 -39t-22 -24.5q-39 -31 -155 -31h-31v-245z" />
<glyph unicode="S" d="M0 -410v2048h2785v-2048h-2785zM328 567l649 277v196l-649 275v-203l428 -172l-428 -170v-203zM1069 410h651v157h-651v-157z" />
<glyph unicode="T" d="M0 -229v1687q0 74 53 127t127 53h1688q74 0 127 -53t53 -127v-1687q0 -74 -53 -127.5t-127 -53.5h-1688q-74 0 -127 53.5t-53 127.5zM559 442q0 -139 301 -198l-239 -248q-37 -37 -37 -90t35.5 -91t87 -38t88.5 37l229 237l229 -237q37 -37 88.5 -37t87 38t35.5 91 t-37 90l-239 248q301 61 301 200q0 53 -36 91t-87 38q-31 0 -57 -16q-143 -74 -287 -74q-141 0 -283 74q-33 14 -57 14q-51 0 -87 -38t-36 -91zM604 1016q0 -178 121 -307t299 -129t299 129t121 307t-121 307t-299 129t-299 -129t-121 -307zM850 1016q0 74 50 127t124 53 t124 -53t50 -127t-50 -127t-124 -53t-124 53t-50 127z" />
<glyph unicode="U" d="M0 614.5q0 278.5 137 514t372.5 372.5t514.5 137t514.5 -137t372.5 -372.5t137 -514t-137 -514t-372.5 -373t-514.5 -137.5t-514.5 137.5t-372.5 373t-137 514zM240 614q0 -324 230 -554t554 -230q258 0 463 152l-4 4q98 72 170 170l4 -4q152 205 151 462 q0 324 -230 554.5t-554 230.5q-258 0 -463 -152l4 -4q-98 -72 -170 -170l-4 4q-151 -205 -151 -463zM901 492v655q0 51 36 87t87 36t87 -36t36 -87v-645l209 -211q37 -33 37 -86q0 -51 -36 -87t-87 -36q-53 0 -86 37l-246 246q-37 37 -37 127z" />
<glyph unicode="V" d="M0 72v1085l1083 -543z" />
<glyph unicode="W" d="M0 240v747h1401v653l1026 -1026l-1026 -1022v648h-1401z" />
<glyph unicode="X" d="M0 -229v1687q0 74 53 127t127 53h1688q74 0 127 -53t53 -127v-1687q0 -74 -53 -127.5t-127 -53.5h-1688q-74 0 -127 53.5t-53 127.5zM573 0h492q96 0 180 19.5t156 60.5t113.5 117.5t41.5 179.5q0 119 -65.5 195.5t-185.5 101.5v6q80 33 125 104.5t45 159.5 q0 94 -40 154.5t-114 87t-140.5 35t-158.5 8.5h-449v-1229zM881 225v307h104h51l49 -2l50 -6l39 -16l36 -29l19 -39l10 -57q0 -25 -6 -46.5t-14.5 -36.5t-25.5 -27.5t-29.5 -20.5t-37 -13.5t-38 -8.5t-43 -4t-41.5 -1h-41h-37h-45zM881 743v261h80q37 0 56 -1.5t52 -7.5 t49.5 -18t29.5 -37t13 -59q0 -41 -14 -68t-31.5 -41t-53.5 -20.5t-56.5 -7.5t-63.5 -1h-61z" />
<glyph unicode="Y" d="M0 0v1516h1516v-1516h-1516z" />
<glyph unicode="Z" d="M0 274h455v-682h-455v682zM758 -408v1366h456v-1366h-456zM1518 -408v2048h454v-2048h-454z" />
<glyph unicode="[" d="M0 614.5q0 278.5 137 514t372.5 372.5t514.5 137t514.5 -137t372.5 -372.5t137 -514t-137 -514t-372.5 -373t-514.5 -137.5t-514.5 137.5t-372.5 373t-137 514zM549 285l145 -146l330 330l330 -330l145 146l-330 329l330 330l-145 146l-330 -330l-330 330l-145 -146 l330 -330z" />
<glyph unicode="\" d="M0 614l1026 1026v-372l-653 -654l653 -651v-371zM748 614l1026 1026v-653q225 -31 416.5 -92t325.5 -139t242.5 -169t176 -185.5t117 -185.5t72 -171t35.5 -141.5t15 -96.5v-34q-12 23 -38.5 60.5t-138 128.5t-255 156.5t-402.5 106.5t-566 15v-648z" />
<glyph unicode="]" d="M0 614.5q0 278.5 137 514t372.5 372.5t514.5 137t514.5 -137t372.5 -372.5t137 -514t-137 -514t-372.5 -373t-514.5 -137.5t-514.5 137.5t-372.5 373t-137 514zM240 614q0 -324 230 -554t554 -230q258 0 463 152l-1096 1095q-151 -205 -151 -463zM561 1247l1096 -1095 q152 205 151 462q0 324 -230 554.5t-554 230.5q-258 0 -463 -152z" />
<glyph unicode="^" d="M0 928v123q0 260 165 423.5t423 163.5q166 0 274.5 -62.5t224.5 -201.5q119 139 227.5 201.5t272.5 62.5q258 0 424 -163.5t166 -423.5v-123q0 -584 -1090 -1338q-1087 752 -1087 1338zM238 938q0 -61 34 -154q139 -408 815 -903q674 489 818 903q33 102 32 154v102 q0 119 -79.5 232.5t-194.5 126.5q-25 4 -76 4q-109 0 -170 -40t-147 -140l-183 -215l-182 215q-86 100 -147.5 140t-169.5 40q-49 0 -76 -4q-115 -12 -191.5 -123t-82.5 -236v-102z" />
<glyph unicode="_" d="M0 928v123q0 260 165 423.5t423 163.5q166 0 274.5 -62.5t224.5 -201.5q119 139 227.5 201.5t272.5 62.5q258 0 424 -163.5t166 -423.5v-123q0 -584 -1090 -1338q-1087 752 -1087 1338z" />
<glyph unicode="`" d="M0 1157h1083l-540 -1085z" />
<glyph unicode="a" d="M0 614l1026 1026v-653q225 -31 416.5 -92t326 -139t243 -169t176 -185.5t116.5 -185.5t71.5 -171t36 -141.5t13.5 -96.5l2 -34q-12 23 -39 60.5t-138.5 128.5t-255 156.5t-402.5 106.5q-157 25 -331 25q-114 0 -235 -10v-648z" />
<glyph unicode="b" d="M0 250q154 -147 371 -148q231 0 391 170q-13 -2 -26 -2l-72 18q-49 24 -50 70q0 55 84 93q-20 -2 -38 -3q-60 0 -111 25q-68 33 -105 105q45 51 142 57q-201 49 -230 209q55 16 109 16h16q-76 41 -127 105.5t-49 142.5l2 16q317 -121 527 -237q61 -35 155 -129 q66 178 138.5 308t183.5 202q-2 -33 -31 -64q68 66 160 78q-6 -47 -109 -84q14 4 52 19.5t68 23.5t52 8q31 0 31 -22q0 -16 -34 -32.5t-87 -32t-57 -17.5q20 2 39 2q142 0 251 -108q124 -122 156 -291q37 -12 74 -13q102 0 170 39q-27 -61 -89.5 -96t-135.5 -39 q70 -31 170 -31q33 0 63 6q-85 -94 -233 -94h-13q-76 -311 -363.5 -499.5t-623.5 -188.5q-248 0 -462 108.5t-359 309.5z" />
<glyph unicode="c" d="M0 -408v902h901v-902h-901zM0 739v901h901v-901h-901zM246 -162h409v410h-409v-410zM246 985h409v410h-409v-410zM1147 -408v902h901v-902h-901zM1147 739v901h901v-901h-901zM1393 -162h409v410h-409v-410zM1393 985h409v410h-409v-410z" />
<glyph unicode="d" d="M0 -408v902h901v-902h-901zM0 739v901h901v-901h-901zM246 -162h409v410h-409v-410zM246 985h409v410h-409v-410zM1147 -80h901v-328h-901v328zM1147 166v328h901v-328h-901zM1147 739v328h901v-328h-901zM1147 1313v327h901v-327h-901z" />
<glyph unicode="e" d="M0 1079q0 231 167 395t400 164q166 0 301 -86q78 14 166 15q264 0 488.5 -128t356.5 -349.5t132 -485.5q0 -115 -22 -207q59 -119 59 -247q0 -231 -167 -395.5t-400 -164.5q-141 0 -267 66q-94 -16 -180 -16q-401 0 -689 281.5t-288 682.5q0 86 21 193q-78 130 -78 282z M459 330q0 -86 63 -174q147 -213 510 -213q102 0 198.5 22.5t182.5 68.5t138.5 130t52.5 194q0 102 -45.5 177t-118 116t-160.5 70t-176 46t-161 36.5t-118 52.5t-45 80q0 70 75 101.5t155 31.5q82 0 136 -25.5t78.5 -61.5t44 -72t51.5 -61.5t83 -25.5q57 0 99 39t42 94.5 t-31 110.5q-61 113 -197 164t-288 51q-94 0 -183 -18.5t-173 -58.5t-135.5 -115.5t-51.5 -178.5q0 -135 83 -218t203 -116.5t238.5 -58t201.5 -68.5t83 -120q0 -86 -86 -128t-184 -42q-92 0 -151.5 30.5t-85 73.5t-46 87t-53.5 75t-86 31q-57 0 -100 -36t-43 -91z" />
<glyph unicode="f" d="M0 -229v1687q0 74 53 127t127 53h1688q74 0 127 -53t53 -127v-1687q0 -74 -53 -127.5t-127 -53.5h-1688q-74 0 -127 53.5t-53 127.5zM238 199q0 -158 125.5 -235t293.5 -77q188 0 326.5 93.5t138.5 273.5q0 78 -40 149.5t-89 112.5t-89 79t-40 58q0 23 31 52.5t68.5 59.5 t68.5 95.5t31 151.5q0 156 -90 219q2 0 31.5 3t42 6t35 10t31.5 20.5t9 32.5q0 23 -45 22q-6 0 -106 1q-50 1 -87.5 1t-61.5 -1q-48 -1 -123.5 -8t-120.5 -22q-119 -39 -190 -127t-71 -208q0 -143 91 -232q88 -86 227 -86h6h12q0 -49 4.5 -71.5t10.5 -23.5t15 -10.5 t17 -29.5q-113 0 -210 -24.5t-174.5 -98t-77.5 -186.5zM432 236q0 98 84 147t189 49q94 0 173.5 -48t79.5 -136q0 -90 -88 -145.5t-184 -55.5t-175 49.5t-79 139.5zM522 1061q0 72 32 123t99 51q88 0 140.5 -93t52.5 -188q0 -72 -32 -123t-99 -51q-88 0 -140.5 93.5 t-52.5 187.5zM1190 969h250v-248h123v248h247v123h-247v249h-123v-249h-250v-123z" />
<glyph unicode="g" d="M0 1282v268q0 35 26.5 61.5t61.5 26.5h2316q37 0 62.5 -26.5t25.5 -61.5v-268q0 -37 -25.5 -62.5t-62.5 -25.5h-2316q-35 0 -61.5 25.5t-26.5 62.5zM88 -322v1248q0 37 26.5 63.5t63.5 26.5h2136q37 0 63.5 -26.5t26.5 -63.5v-1248q0 -35 -26.5 -61.5t-63.5 -26.5h-2136 q-37 0 -63.5 26.5t-26.5 61.5zM713 614.5q0 -55.5 39 -94.5t94 -39h801q55 0 95 39t40 94.5t-40 94.5t-95 39h-801q-55 0 -94 -39t-39 -94.5z" />
<glyph unicode="h" d="M0 -410v2048h2785v-2048h-2785zM164 -82v-164h246v164h-246zM164 82h655v1065h-655v-1065zM164 1311h246v164h-246v-164zM573 -82v-164h246v164h-246zM573 1311h246v164h-246v-164zM1065 -82v-164h246v164h-246zM1065 82h655v1065h-655v-1065zM1065 1311h246v164h-246 v-164zM1475 -82v-164h245v164h-245zM1475 1311h245v164h-245v-164zM1966 -82v-164h246v164h-246zM1966 82h655v1065h-655v-1065zM1966 1311h246v164h-246v-164zM2376 -82v-164h245v164h-245zM2376 1311h245v164h-245v-164z" />
<glyph unicode="i" d="M0 801q0 346 246 591.5t592 245.5t591.5 -245.5t245.5 -591.5q0 -260 -147 -473l520 -523l-215 -215l-520 521q-217 -147 -475 -148q-346 0 -592 246t-246 592zM279 800.5q0 -231.5 163.5 -394t395 -162.5t394.5 162.5t163 394t-163 395.5t-394.5 164t-395 -164 t-163.5 -395.5z" />
<glyph unicode="j" d="M0 618q0 276 139.5 512t376 372t512.5 136q377 0 715 -303l-215 -217q-233 213 -498 213q-305 0 -515 -213t-210 -520q0 -287 216 -493.5t507 -206.5q268 0 500 211l217 -220q-319 -299 -692 -299q-444 0 -748.5 294t-304.5 734zM1022 434v361h846v362l565 -545 l-565 -540v362h-846z" />
<glyph unicode="k" d="M0 -229v1687q0 74 53 127t127 53h1688q74 0 127 -53t53 -127v-1687q0 -74 -53 -127.5t-127 -53.5h-1688q-74 0 -127 53.5t-53 127.5zM946 645h162v-819h305v819h242l18 236h-260v73v86v25q0 86 121 86q63 0 131 -21l41 242q-88 31 -293 31q-162 0 -252 -119 q-53 -70 -53 -244v-12v-74v-73h-162v-236z" />
<glyph unicode="l" d="M0 -80h2048v-328h-2048v328zM0 166v328h2048v-328h-2048zM0 739v328h2048v-328h-2048zM0 1313v327h2048v-327h-2048z" />
<glyph unicode="m" d="M0 616.5q0 278.5 137 514t372.5 372.5t514.5 137t514.5 -137t372.5 -372.5t137 -514t-137 -514t-372.5 -373t-514.5 -137.5t-514.5 137.5t-372.5 373t-137 514zM391 737h211v-602h242v602h211l-332 543zM993 498l332 -484l332 484h-211v600h-242v-600h-211z" />
<glyph unicode="n" d="M0 -229v1687q0 74 53 127t127 53h1688q74 0 127 -53t53 -127v-1687q0 -74 -53 -127.5t-127 -53.5h-1688q-74 0 -127 53.5t-53 127.5zM301 72q0 -74 53.5 -127.5t126.5 -53.5q76 0 129.5 53.5t53.5 127.5q0 76 -53.5 129t-129.5 53q-74 0 -127 -53t-53 -129zM301 569 q279 0 477 -198q199 -195 199 -480h278q0 258 -128 478.5t-348 348.5t-478 128v-277zM301 1061q315 0 584.5 -156.5t426 -426t156.5 -587.5h279q0 293 -114.5 561.5t-308.5 462t-462 308t-561 114.5v-276z" />
<glyph unicode="o" d="M186 -248h78q0 -76 66 -76q29 0 47 16.5t18 45.5t-20.5 44t-50.5 13h-19v55h11q71 0 71 50q0 23 -15.5 36t-39.5 13q-59 0 -60 -68h-75q2 61 37.5 96t97.5 35q53 0 92 -27.5t39 -78.5q0 -27 -15.5 -49.5t-39.5 -28.5q70 -16 69 -90q0 -59 -43 -93t-102 -34q-66 0 -106 36 t-40 99v6zM186 291q2 57 35 99t71 61.5t69.5 48t31.5 61.5q0 25 -15.5 40t-41.5 15q-59 0 -64 -84h-75q0 70 36.5 112t106.5 42q57 0 95 -32.5t38 -88.5q0 -51 -33.5 -83.5t-82 -62.5t-68.5 -61h186v-67h-289zM221 1219v59q100 0 115 78h65v-393h-86v256h-94zM678 29h1370 v-437h-1370v437zM678 279v436h1370v-436h-1370zM678 963v436h1370v-436h-1370z" />
<glyph unicode="p" d="M0 -410q90 121 144.5 259.5t64.5 216.5l8 77q-217 246 -217 545q0 258 162 477t439.5 346t605 127t606 -127t440.5 -346t162 -477t-162 -478t-440.5 -347t-606.5 -127q-250 0 -479 80l4 -6zM586 688q0 -61 43 -104t102 -43q61 0 104.5 43t43.5 104q0 59 -43 102.5 t-105 43.5q-59 0 -102 -43.5t-43 -102.5zM1098 688q0 -61 43 -104t102 -43q61 0 104.5 43t43.5 104q0 59 -43 102.5t-105 43.5q-59 0 -102 -43.5t-43 -102.5zM1610 688q0 -61 43 -104t102 -43q61 0 104.5 43t43.5 104q0 59 -43 102.5t-105 43.5q-59 0 -102 -43.5t-43 -102.5 z" />
<glyph unicode="q" d="M0 -244q0 61 37 125l944 1647q68 113 160 112.5t155 -112.5l947 -1649q37 -66 36 -123q0 -80 -56 -122t-138 -42h-1890q-82 0 -138.5 43t-56.5 121zM997 10.5q0 -59.5 42 -101.5t100 -42q59 0 101 42t42 101.5t-42 100.5t-101 41q-57 0 -99.5 -41t-42.5 -100.5zM997 803 q0 -29 4.5 -54.5t11.5 -57.5t11 -54l53 -332h121l55 332q4 20 12.5 53t12.5 58.5t4 54.5v299h-285v-299z" />
<glyph unicode="r" d="M0 135q0 229 160 385l358 361q160 160 387 159q199 0 350 -129l-235 -235q-53 35 -115 35q-90 0 -153 -64l-359 -360q-63 -59 -63 -152q0 -90 62.5 -152.5t152.5 -62.5q51 0 101 24.5t67 69.5h487l-270 -264q-164 -160 -385 -160q-225 0 -385 160t-160 385zM793 317 l235 236q53 -35 115 -35q90 0 153 64l359 360q63 59 63 152q0 90 -62.5 152.5t-152.5 62.5q-51 0 -101 -24.5t-67 -70.5h-487l270 265q164 160 385 159q225 0 385 -159.5t160 -384.5q0 -229 -160 -385l-358 -361q-160 -160 -387 -160q-198 0 -350 129z" />
<glyph unicode="s" d="M0 737l614 656l615 -656h-492v-491h819l240 -246h-1302l-2 737h-492zM989 1393h1303l2 -738h491l-614 -655l-615 655h492v492h-819z" />
<glyph unicode="t" d="M0 -410v2048h2785v-2048h-2785zM246 -164h2294v1557h-2294v-1557zM410 8v4q37 74 276.5 573.5t294.5 612.5q2 4 7 5h2q4 0 5 -3l637 -790l312 249h14l2 -4q80 -102 208 -317t214 -324q3 -1 3 -4q0 -10 -9 -10h-1956h-2q-8 0 -8 8zM1966 983q0 68 48 116t116 48t116 -48 t48 -116t-48 -116t-116 -48t-116 48t-48 116z" />
<glyph unicode="u" d="M0 -408v830h829l-313 -313q160 -127 363 -127q227 0 395 155.5t186 380.5h293q-18 -348 -272 -587.5t-602 -239.5q-324 0 -572 209zM2 715q18 348 272 587.5t605 239.5q322 0 569 -209l307 307v-829h-829l313 313q-158 127 -360 127q-227 0 -396.5 -155.5t-187.5 -380.5 h-293z" />
<glyph unicode="v" d="M0 -410q90 121 144.5 259.5t64.5 216.5l8 77q-217 246 -217 545q0 258 162 477t439.5 346t605 127t606 -127t440.5 -346t162 -477t-162 -478t-440.5 -347t-606.5 -127q-250 0 -479 80l4 -6z" />
<glyph unicode="w" d="M0 373l481 483l484 -483h-965z" />
<glyph unicode="x" d="M0 856h965l-484 -483z" />
<glyph unicode="y" d="M182 496l307 219v-436zM678 29h1370v-437h-1370v437zM678 279v436h1370v-436h-1370zM678 963v436h1370v-436h-1370z" />
<glyph unicode="z" d="M178 -190q0 66 46 111.5t109.5 45.5t109.5 -46t46 -111q0 -63 -46 -109.5t-109.5 -46.5t-109.5 46.5t-46 109.5zM178 495.5q0 65.5 46 110.5t109.5 45t109.5 -45t46 -110.5t-46 -110.5t-109.5 -45t-109.5 45t-46 110.5zM178 1181.5q0 63.5 46 109.5t109.5 46t109.5 -46 t46 -109.5t-46 -109.5t-109.5 -46t-109.5 46t-46 109.5zM678 29h1370v-437h-1370v437zM678 279v436h1370v-436h-1370zM678 963v436h1370v-436h-1370z" />
<glyph unicode="{" d="M0 344v1090q0 84 60.5 144t144.5 60h1919q84 0 144.5 -60t60.5 -144v-1090q0 -84 -60.5 -144.5t-144.5 -60.5h-344v-549l-547 549h-1028q-84 0 -144.5 60.5t-60.5 144.5z" />
<glyph unicode="|" d="M0 -281q0 61 2 76q25 100 131.5 173t228 109t257 96t198.5 134q35 45 35 78q0 45 -23 150q-8 43 -21 74.5t-32.5 67.5t-32.5 64q-31 72 -67 271q-12 78 -12 153q0 215 109.5 344t322.5 129t322.5 -129t109.5 -344q0 -63 -15 -153q-29 -182 -65 -271q-12 -29 -31.5 -64.5 t-33 -67t-21.5 -74.5q-23 -104 -23 -150q0 -37 35 -78q63 -74 198.5 -134t256.5 -96t227.5 -108.5t130.5 -173.5q4 -16 4 -76q0 -43 -4 -129h-2185q0 20 -1 63t-1 66z" />
<glyph unicode="&#xaa;" d="M0 614l1026 1026v-653q225 -31 416.5 -92t326 -139t243 -169t176 -185.5t116.5 -185.5t71.5 -171t36 -141.5t13.5 -96.5l2 -34q-12 23 -39 60.5t-138.5 128.5t-255 156.5t-402.5 106.5q-157 25 -331 25q-114 0 -235 -10v-648z" />
<glyph unicode="&#xad;" d="M0 635v242h543v-242h-543zM215 117l383 383l170 -170l-383 -383zM215 1395l170 170l383 -383l-170 -170zM903 -268v542h242v-542h-242zM1280 330l170 170l383 -383l-170 -170zM1280 1182l383 383l170 -170l-383 -383zM1505 635v242h543v-242h-543z" />
<glyph unicode="&#xb2;" d="M0 635v242h543v-242h-543zM215 117l383 383l170 -170l-383 -383zM215 1395l170 170l383 -383l-170 -170zM903 -268v542h242v-542h-242zM903 1237v543h242v-543h-242zM1280 1182l383 383l170 -170l-383 -383zM1505 635v242h543v-242h-543z" />
<glyph unicode="&#xb3;" d="M0 635v242h543v-242h-543zM215 117l383 383l170 -170l-383 -383zM215 1395l170 170l383 -383l-170 -170zM903 -268v542h242v-542h-242zM903 1237v543h242v-543h-242zM1280 330l170 170l383 -383l-170 -170zM1280 1182l383 383l170 -170l-383 -383z" />
<glyph unicode="&#xb9;" d="M0 635v242h543v-242h-543zM215 117l383 383l170 -170l-383 -383zM215 1395l170 170l383 -383l-170 -170zM903 1237v543h242v-543h-242zM1280 330l170 170l383 -383l-170 -170zM1280 1182l383 383l170 -170l-383 -383zM1505 635v242h543v-242h-543z" />
<glyph unicode="&#xba;" d="M186 -248h78q0 -76 66 -76q29 0 47 16.5t18 45.5t-20.5 44t-50.5 13h-19v55h11q71 0 71 50q0 23 -15.5 36t-39.5 13q-59 0 -60 -68h-75q2 61 37.5 96t97.5 35q53 0 92 -27.5t39 -78.5q0 -27 -15.5 -49.5t-39.5 -28.5q70 -16 69 -90q0 -59 -43 -93t-102 -34q-66 0 -106 36 t-40 99v6zM186 291q2 57 35 99t71 61.5t69.5 48t31.5 61.5q0 25 -15.5 40t-41.5 15q-59 0 -64 -84h-75q0 70 36.5 112t106.5 42q57 0 95 -32.5t38 -88.5q0 -51 -33.5 -83.5t-82 -62.5t-68.5 -61h186v-67h-289zM221 1219v59q100 0 115 78h65v-393h-86v256h-94zM678 29h1370 v-437h-1370v437zM678 279v436h1370v-436h-1370zM678 963v436h1370v-436h-1370z" />
<glyph unicode="&#xc0;" d="M1386 2847h1083l-540 -1085zM0 170q0 152 76 285t207 211q-16 66 -17 127q0 240 170 409.5t410 169.5q211 0 381 -143q88 186 263 297.5t380 111.5q295 0 504 -208.5t209 -503.5q0 -113 -33 -211q174 -59 281.5 -211t107.5 -334q0 -227 -154.5 -394t-380.5 -184v-2h-1781 v2q-14 -2 -43 -2q-240 0 -410 170t-170 410z" />
<glyph unicode="&#xc2;" d="M1516 3099v123q0 260 165 423.5t423 163.5q166 0 274.5 -62.5t224.5 -201.5q119 139 227.5 201.5t272.5 62.5q258 0 424 -163.5t166 -423.5v-123q0 -584 -1090 -1338q-1087 752 -1087 1338zM1754 3109q0 -61 34 -154q139 -408 815 -903q674 489 818 903q33 102 32 154 v102q0 119 -79.5 232.5t-194.5 126.5q-25 4 -76 4q-109 0 -170 -40t-147 -140l-183 -215l-182 215q-86 100 -147.5 140t-169.5 40q-49 0 -76 -4q-115 -12 -191.5 -123t-82.5 -236v-102zM0 170q0 152 76 285t207 211q-16 66 -17 127q0 240 170 409.5t410 169.5 q211 0 381 -143q88 186 263 297.5t380 111.5q295 0 504 -208.5t209 -503.5q0 -113 -33 -211q174 -59 281.5 -211t107.5 -334q0 -227 -154.5 -394t-380.5 -184v-2h-1781v2q-14 -2 -43 -2q-240 0 -410 170t-170 410z" />
<glyph unicode="&#xc8;" d="M500 2847h1083l-540 -1085zM0 176q0 82 17.5 151.5t43 122t72.5 97.5t88 74.5t109.5 56.5t118 42t131.5 30.5t130 22.5t134 18q102 12 205 30q49 8 75.5 14.5t69.5 22.5t65.5 34.5t40 52.5t17.5 79q0 258 -348 258q-178 0 -267.5 -64.5t-115.5 -232.5h-500 q12 184 90 315.5t206 203t275.5 103t325.5 31.5q139 0 255 -15t228.5 -58t189.5 -112t124 -182.5t47 -262.5v-836q0 -131 1 -186.5t17.5 -158.5t48.5 -181h-540q-31 82 -37 188q-246 -244 -627 -244q-195 0 -346 59.5t-247.5 194.5t-96.5 332zM547 199q0 -127 82 -193.5 t211 -66.5q211 0 342 112.5t131 319.5v217q-68 -39 -178.5 -62.5t-205.5 -38t-185.5 -40t-143.5 -87t-53 -161.5z" />
<glyph unicode="&#xca;" d="M629 3099v123q0 260 165 423.5t423 163.5q166 0 274.5 -62.5t224.5 -201.5q119 139 227.5 201.5t272.5 62.5q258 0 424 -163.5t166 -423.5v-123q0 -584 -1090 -1338q-1087 752 -1087 1338zM867 3109q0 -61 34 -154q139 -408 815 -903q674 489 818 903q33 102 32 154v102 q0 119 -79.5 232.5t-194.5 126.5q-25 4 -76 4q-109 0 -170 -40t-147 -140l-183 -215l-182 215q-86 100 -147.5 140t-169.5 40q-49 0 -76 -4q-115 -12 -191.5 -123t-82.5 -236v-102zM0 176q0 82 17.5 151.5t43 122t72.5 97.5t88 74.5t109.5 56.5t118 42t131.5 30.5t130 22.5 t134 18q102 12 205 30q49 8 75.5 14.5t69.5 22.5t65.5 34.5t40 52.5t17.5 79q0 258 -348 258q-178 0 -267.5 -64.5t-115.5 -232.5h-500q12 184 90 315.5t206 203t275.5 103t325.5 31.5q139 0 255 -15t228.5 -58t189.5 -112t124 -182.5t47 -262.5v-836q0 -131 1 -186.5 t17.5 -158.5t48.5 -181h-540q-31 82 -37 188q-246 -244 -627 -244q-195 0 -346 59.5t-247.5 194.5t-96.5 332zM547 199q0 -127 82 -193.5t211 -66.5q211 0 342 112.5t131 319.5v217q-68 -39 -178.5 -62.5t-205.5 -38t-185.5 -40t-143.5 -87t-53 -161.5z" />
<glyph unicode="&#xcc;" d="M63 2849h1083l-540 -1085zM152 127q0 100 12 297q8 102 78.5 162.5t173.5 64.5q201 10 608.5 10.5t607.5 -10.5q102 -4 173 -64.5t79 -162.5q12 -197 12 -297t-12 -297q-8 -102 -78.5 -162.5t-173.5 -64.5q-203 -10 -608 -11q-408 0 -608 11q-102 4 -173 64.5t-79 162.5 q-12 197 -12 297zM287 393h123v-600h118v600h125v103h-366v-103zM301 1640h150l94 -346h10l90 346h150l-113 -337q-8 -25 -20.5 -57t-21.5 -57.5t-15 -55.5v-361h-148v344q-4 25 -59 174zM651 -125q0 -90 74 -90q61 0 123 65v-57h104v518h-104v-393q-35 -39 -64 -39 q-27 0 -26 35v397h-107v-436zM788 934v332q0 80 56.5 122t138.5 42q78 0 131 -45.5t53 -120.5v-332q0 -86 -51 -131t-139 -45q-84 0 -136.5 48t-52.5 130zM924 922q0 -53 53 -54q57 0 57 54v350q0 20 -18.5 33.5t-39 13.5t-36.5 -13.5t-16 -33.5v-350zM1057 -207h106v41 q45 -47 101 -47q96 0 96 115v286q0 129 -103 129q-51 0 -94 -47v226h-106v-703zM1163 -109v324q20 20 45 21q43 0 43 -52v-272q0 -43 -37 -43q-28 -1 -51 22zM1278 879v534h131v-491q0 -43 35 -43t78 49v485h131v-641h-131v72q-76 -80 -152 -80q-92 0 -92 115zM1440 -59 q0 -74 40 -118t113 -44q158 0 158 162v39h-109q0 -4 1.5 -27t0 -32t-5.5 -23.5t-14 -20.5t-29 -6q-20 0 -31.5 12.5t-12.5 24.5t-1 35v98h201v131q0 72 -39 113t-110 41q-70 0 -116 -42t-46 -112v-231zM1550 121v57q0 55 47 55q45 0 45 -55v-57h-92z" />
<glyph unicode="&#xce;" d="M195 3101v123q0 260 165 423.5t423 163.5q166 0 274.5 -62.5t224.5 -201.5q119 139 227.5 201.5t272.5 62.5q258 0 424 -163.5t166 -423.5v-123q0 -584 -1090 -1338q-1087 752 -1087 1338zM433 3111q0 -61 34 -154q139 -408 815 -903q674 489 818 903q33 102 32 154v102 q0 119 -79.5 232.5t-194.5 126.5q-25 4 -76 4q-109 0 -170 -40t-147 -140l-183 -215l-182 215q-86 100 -147.5 140t-169.5 40q-49 0 -76 -4q-115 -12 -191.5 -123t-82.5 -236v-102zM152 127q0 100 12 297q8 102 78.5 162.5t173.5 64.5q201 10 608.5 10.5t607.5 -10.5 q102 -4 173 -64.5t79 -162.5q12 -197 12 -297t-12 -297q-8 -102 -78.5 -162.5t-173.5 -64.5q-203 -10 -608 -11q-408 0 -608 11q-102 4 -173 64.5t-79 162.5q-12 197 -12 297zM287 393h123v-600h118v600h125v103h-366v-103zM301 1640h150l94 -346h10l90 346h150l-113 -337 q-8 -25 -20.5 -57t-21.5 -57.5t-15 -55.5v-361h-148v344q-4 25 -59 174zM651 -125q0 -90 74 -90q61 0 123 65v-57h104v518h-104v-393q-35 -39 -64 -39q-27 0 -26 35v397h-107v-436zM788 934v332q0 80 56.5 122t138.5 42q78 0 131 -45.5t53 -120.5v-332q0 -86 -51 -131 t-139 -45q-84 0 -136.5 48t-52.5 130zM924 922q0 -53 53 -54q57 0 57 54v350q0 20 -18.5 33.5t-39 13.5t-36.5 -13.5t-16 -33.5v-350zM1057 -207h106v41q45 -47 101 -47q96 0 96 115v286q0 129 -103 129q-51 0 -94 -47v226h-106v-703zM1163 -109v324q20 20 45 21 q43 0 43 -52v-272q0 -43 -37 -43q-28 -1 -51 22zM1278 879v534h131v-491q0 -43 35 -43t78 49v485h131v-641h-131v72q-76 -80 -152 -80q-92 0 -92 115zM1440 -59q0 -74 40 -118t113 -44q158 0 158 162v39h-109q0 -4 1.5 -27t0 -32t-5.5 -23.5t-14 -20.5t-29 -6 q-20 0 -31.5 12.5t-12.5 24.5t-1 35v98h201v131q0 72 -39 113t-110 41q-70 0 -116 -42t-46 -112v-231zM1550 121v57q0 55 47 55q45 0 45 -55v-57h-92z" />
<glyph unicode="&#xd2;" d="M541 2847h1083l-540 -1085zM0 -229v1687q0 74 53 127t127 53h1688q74 0 127 -53t53 -127v-1687q0 -74 -53 -127.5t-127 -53.5h-1688q-74 0 -127 53.5t-53 127.5zM403 1095.5q0 -57.5 38 -95t98 -37.5q66 0 104 37q37 36 37 90q0 63 -38 101t-99.5 38t-100.5 -38 t-39 -95.5zM410 0h262v858h-262v-858zM823 858q6 -233 6 -274v-584h263v494q0 43 8 67q41 100 135 101q133 0 133 -187v-475h264v506q0 182 -84 276.5t-219 94.5q-96 0 -162.5 -43t-99.5 -97h-4l-12 121h-228z" />
<glyph unicode="&#xd4;" d="M670 3099v123q0 260 165 423.5t423 163.5q166 0 274.5 -62.5t224.5 -201.5q119 139 227.5 201.5t272.5 62.5q258 0 424 -163.5t166 -423.5v-123q0 -584 -1090 -1338q-1087 752 -1087 1338zM908 3109q0 -61 34 -154q139 -408 815 -903q674 489 818 903q33 102 32 154v102 q0 119 -79.5 232.5t-194.5 126.5q-25 4 -76 4q-109 0 -170 -40t-147 -140l-183 -215l-182 215q-86 100 -147.5 140t-169.5 40q-49 0 -76 -4q-115 -12 -191.5 -123t-82.5 -236v-102zM0 -229v1687q0 74 53 127t127 53h1688q74 0 127 -53t53 -127v-1687q0 -74 -53 -127.5 t-127 -53.5h-1688q-74 0 -127 53.5t-53 127.5zM403 1095.5q0 -57.5 38 -95t98 -37.5q66 0 104 37q37 36 37 90q0 63 -38 101t-99.5 38t-100.5 -38t-39 -95.5zM410 0h262v858h-262v-858zM823 858q6 -233 6 -274v-584h263v494q0 43 8 67q41 100 135 101q133 0 133 -187v-475 h264v506q0 182 -84 276.5t-219 94.5q-96 0 -162.5 -43t-99.5 -97h-4l-12 121h-228z" />
<glyph unicode="&#xd9;" d="M541 2847h1083l-540 -1085zM0 614.5q0 278.5 137 514t372.5 372.5t514.5 137t514.5 -137t372.5 -372.5t137 -514t-137 -514t-372.5 -373t-514.5 -137.5t-514.5 137.5t-372.5 373t-137 514zM240 614q0 -324 230 -554t554 -230q258 0 463 152l-4 4q98 72 170 170l4 -4 q152 205 151 462q0 324 -230 554.5t-554 230.5q-258 0 -463 -152l4 -4q-98 -72 -170 -170l-4 4q-151 -205 -151 -463zM901 492v655q0 51 36 87t87 36t87 -36t36 -87v-645l209 -211q37 -33 37 -86q0 -51 -36 -87t-87 -36q-53 0 -86 37l-246 246q-37 37 -37 127z" />
<glyph unicode="&#xdb;" d="M670 3099v123q0 260 165 423.5t423 163.5q166 0 274.5 -62.5t224.5 -201.5q119 139 227.5 201.5t272.5 62.5q258 0 424 -163.5t166 -423.5v-123q0 -584 -1090 -1338q-1087 752 -1087 1338zM908 3109q0 -61 34 -154q139 -408 815 -903q674 489 818 903q33 102 32 154v102 q0 119 -79.5 232.5t-194.5 126.5q-25 4 -76 4q-109 0 -170 -40t-147 -140l-183 -215l-182 215q-86 100 -147.5 140t-169.5 40q-49 0 -76 -4q-115 -12 -191.5 -123t-82.5 -236v-102zM0 614.5q0 278.5 137 514t372.5 372.5t514.5 137t514.5 -137t372.5 -372.5t137 -514 t-137 -514t-372.5 -373t-514.5 -137.5t-514.5 137.5t-372.5 373t-137 514zM240 614q0 -324 230 -554t554 -230q258 0 463 152l-4 4q98 72 170 170l4 -4q152 205 151 462q0 324 -230 554.5t-554 230.5q-258 0 -463 -152l4 -4q-98 -72 -170 -170l-4 4q-151 -205 -151 -463z M901 492v655q0 51 36 87t87 36t87 -36t36 -87v-645l209 -211q37 -33 37 -86q0 -51 -36 -87t-87 -36q-53 0 -86 37l-246 246q-37 37 -37 127z" />
<glyph unicode="&#xe0;" d="M543 2849h1083l-540 -1085zM0 614l1026 1026v-653q225 -31 416.5 -92t326 -139t243 -169t176 -185.5t116.5 -185.5t71.5 -171t36 -141.5t13.5 -96.5l2 -34q-12 23 -39 60.5t-138.5 128.5t-255 156.5t-402.5 106.5q-157 25 -331 25q-114 0 -235 -10v-648z" />
<glyph unicode="&#xe2;" d="M672 3101v123q0 260 165 423.5t423 163.5q166 0 274.5 -62.5t224.5 -201.5q119 139 227.5 201.5t272.5 62.5q258 0 424 -163.5t166 -423.5v-123q0 -584 -1090 -1338q-1087 752 -1087 1338zM910 3111q0 -61 34 -154q139 -408 815 -903q674 489 818 903q33 102 32 154v102 q0 119 -79.5 232.5t-194.5 126.5q-25 4 -76 4q-109 0 -170 -40t-147 -140l-183 -215l-182 215q-86 100 -147.5 140t-169.5 40q-49 0 -76 -4q-115 -12 -191.5 -123t-82.5 -236v-102zM0 614l1026 1026v-653q225 -31 416.5 -92t326 -139t243 -169t176 -185.5t116.5 -185.5 t71.5 -171t36 -141.5t13.5 -96.5l2 -34q-12 23 -39 60.5t-138.5 128.5t-255 156.5t-402.5 106.5q-157 25 -331 25q-114 0 -235 -10v-648z" />
<glyph unicode="&#xe8;" d="M84 2847h1083l-540 -1085zM0 1079q0 231 167 395t400 164q166 0 301 -86q78 14 166 15q264 0 488.5 -128t356.5 -349.5t132 -485.5q0 -115 -22 -207q59 -119 59 -247q0 -231 -167 -395.5t-400 -164.5q-141 0 -267 66q-94 -16 -180 -16q-401 0 -689 281.5t-288 682.5 q0 86 21 193q-78 130 -78 282zM459 330q0 -86 63 -174q147 -213 510 -213q102 0 198.5 22.5t182.5 68.5t138.5 130t52.5 194q0 102 -45.5 177t-118 116t-160.5 70t-176 46t-161 36.5t-118 52.5t-45 80q0 70 75 101.5t155 31.5q82 0 136 -25.5t78.5 -61.5t44 -72t51.5 -61.5 t83 -25.5q57 0 99 39t42 94.5t-31 110.5q-61 113 -197 164t-288 51q-94 0 -183 -18.5t-173 -58.5t-135.5 -115.5t-51.5 -178.5q0 -135 83 -218t203 -116.5t238.5 -58t201.5 -68.5t83 -120q0 -86 -86 -128t-184 -42q-92 0 -151.5 30.5t-85 73.5t-46 87t-53.5 75t-86 31 q-57 0 -100 -36t-43 -91z" />
<glyph unicode="&#xea;" d="M213 3099v123q0 260 165 423.5t423 163.5q166 0 274.5 -62.5t224.5 -201.5q119 139 227.5 201.5t272.5 62.5q258 0 424 -163.5t166 -423.5v-123q0 -584 -1090 -1338q-1087 752 -1087 1338zM451 3109q0 -61 34 -154q139 -408 815 -903q674 489 818 903q33 102 32 154v102 q0 119 -79.5 232.5t-194.5 126.5q-25 4 -76 4q-109 0 -170 -40t-147 -140l-183 -215l-182 215q-86 100 -147.5 140t-169.5 40q-49 0 -76 -4q-115 -12 -191.5 -123t-82.5 -236v-102zM0 1079q0 231 167 395t400 164q166 0 301 -86q78 14 166 15q264 0 488.5 -128t356.5 -349.5 t132 -485.5q0 -115 -22 -207q59 -119 59 -247q0 -231 -167 -395.5t-400 -164.5q-141 0 -267 66q-94 -16 -180 -16q-401 0 -689 281.5t-288 682.5q0 86 21 193q-78 130 -78 282zM459 330q0 -86 63 -174q147 -213 510 -213q102 0 198.5 22.5t182.5 68.5t138.5 130t52.5 194 q0 102 -45.5 177t-118 116t-160.5 70t-176 46t-161 36.5t-118 52.5t-45 80q0 70 75 101.5t155 31.5q82 0 136 -25.5t78.5 -61.5t44 -72t51.5 -61.5t83 -25.5q57 0 99 39t42 94.5t-31 110.5q-61 113 -197 164t-288 51q-94 0 -183 -18.5t-173 -58.5t-135.5 -115.5 t-51.5 -178.5q0 -135 83 -218t203 -116.5t238.5 -58t201.5 -68.5t83 -120q0 -86 -86 -128t-184 -42q-92 0 -151.5 30.5t-85 73.5t-46 87t-53.5 75t-86 31q-57 0 -100 -36t-43 -91z" />
<glyph unicode="&#xec;" d="M354 2847h1083l-540 -1085zM0 801q0 346 246 591.5t592 245.5t591.5 -245.5t245.5 -591.5q0 -260 -147 -473l520 -523l-215 -215l-520 521q-217 -147 -475 -148q-346 0 -592 246t-246 592zM279 800.5q0 -231.5 163.5 -394t395 -162.5t394.5 162.5t163 394t-163 395.5 t-394.5 164t-395 -164t-163.5 -395.5z" />
<glyph unicode="&#xee;" d="M483 3099v123q0 260 165 423.5t423 163.5q166 0 274.5 -62.5t224.5 -201.5q119 139 227.5 201.5t272.5 62.5q258 0 424 -163.5t166 -423.5v-123q0 -584 -1090 -1338q-1087 752 -1087 1338zM721 3109q0 -61 34 -154q139 -408 815 -903q674 489 818 903q33 102 32 154v102 q0 119 -79.5 232.5t-194.5 126.5q-25 4 -76 4q-109 0 -170 -40t-147 -140l-183 -215l-182 215q-86 100 -147.5 140t-169.5 40q-49 0 -76 -4q-115 -12 -191.5 -123t-82.5 -236v-102zM0 801q0 346 246 591.5t592 245.5t591.5 -245.5t245.5 -591.5q0 -260 -147 -473l520 -523 l-215 -215l-520 521q-217 -147 -475 -148q-346 0 -592 246t-246 592zM279 800.5q0 -231.5 163.5 -394t395 -162.5t394.5 162.5t163 394t-163 395.5t-394.5 164t-395 -164t-163.5 -395.5z" />
<glyph unicode="&#xf2;" d="M879 2607h1083l-540 -1085zM186 -248h78q0 -76 66 -76q29 0 47 16.5t18 45.5t-20.5 44t-50.5 13h-19v55h11q71 0 71 50q0 23 -15.5 36t-39.5 13q-59 0 -60 -68h-75q2 61 37.5 96t97.5 35q53 0 92 -27.5t39 -78.5q0 -27 -15.5 -49.5t-39.5 -28.5q70 -16 69 -90 q0 -59 -43 -93t-102 -34q-66 0 -106 36t-40 99v6zM186 291q2 57 35 99t71 61.5t69.5 48t31.5 61.5q0 25 -15.5 40t-41.5 15q-59 0 -64 -84h-75q0 70 36.5 112t106.5 42q57 0 95 -32.5t38 -88.5q0 -51 -33.5 -83.5t-82 -62.5t-68.5 -61h186v-67h-289zM221 1219v59 q100 0 115 78h65v-393h-86v256h-94zM678 29h1370v-437h-1370v437zM678 279v436h1370v-436h-1370zM678 963v436h1370v-436h-1370z" />
<glyph unicode="&#xf4;" d="M1010 2859v123q0 260 165 423.5t423 163.5q166 0 274.5 -62.5t224.5 -201.5q119 139 227.5 201.5t272.5 62.5q258 0 424 -163.5t166 -423.5v-123q0 -584 -1090 -1338q-1087 752 -1087 1338zM1248 2869q0 -61 34 -154q139 -408 815 -903q674 489 818 903q33 102 32 154 v102q0 119 -79.5 232.5t-194.5 126.5q-25 4 -76 4q-109 0 -170 -40t-147 -140l-183 -215l-182 215q-86 100 -147.5 140t-169.5 40q-49 0 -76 -4q-115 -12 -191.5 -123t-82.5 -236v-102zM186 -248h78q0 -76 66 -76q29 0 47 16.5t18 45.5t-20.5 44t-50.5 13h-19v55h11 q71 0 71 50q0 23 -15.5 36t-39.5 13q-59 0 -60 -68h-75q2 61 37.5 96t97.5 35q53 0 92 -27.5t39 -78.5q0 -27 -15.5 -49.5t-39.5 -28.5q70 -16 69 -90q0 -59 -43 -93t-102 -34q-66 0 -106 36t-40 99v6zM186 291q2 57 35 99t71 61.5t69.5 48t31.5 61.5q0 25 -15.5 40 t-41.5 15q-59 0 -64 -84h-75q0 70 36.5 112t106.5 42q57 0 95 -32.5t38 -88.5q0 -51 -33.5 -83.5t-82 -62.5t-68.5 -61h186v-67h-289zM221 1219v59q100 0 115 78h65v-393h-86v256h-94zM678 29h1370v-437h-1370v437zM678 279v436h1370v-436h-1370zM678 963v436h1370v-436 h-1370z" />
<glyph unicode="&#xf9;" d="M1272 2849h1083l-540 -1085zM0 -408v830h829l-313 -313q160 -127 363 -127q227 0 395 155.5t186 380.5h293q-18 -348 -272 -587.5t-602 -239.5q-324 0 -572 209zM2 715q18 348 272 587.5t605 239.5q322 0 569 -209l307 307v-829h-829l313 313q-158 127 -360 127 q-227 0 -396.5 -155.5t-187.5 -380.5h-293z" />
<glyph unicode="&#xfb;" d="M1401 3101v123q0 260 165 423.5t423 163.5q166 0 274.5 -62.5t224.5 -201.5q119 139 227.5 201.5t272.5 62.5q258 0 424 -163.5t166 -423.5v-123q0 -584 -1090 -1338q-1087 752 -1087 1338zM1639 3111q0 -61 34 -154q139 -408 815 -903q674 489 818 903q33 102 32 154 v102q0 119 -79.5 232.5t-194.5 126.5q-25 4 -76 4q-109 0 -170 -40t-147 -140l-183 -215l-182 215q-86 100 -147.5 140t-169.5 40q-49 0 -76 -4q-115 -12 -191.5 -123t-82.5 -236v-102zM0 -408v830h829l-313 -313q160 -127 363 -127q227 0 395 155.5t186 380.5h293 q-18 -348 -272 -587.5t-602 -239.5q-324 0 -572 209zM2 715q18 348 272 587.5t605 239.5q322 0 569 -209l307 307v-829h-829l313 313q-158 127 -360 127q-227 0 -396.5 -155.5t-187.5 -380.5h-293z" />
<glyph unicode="&#x152;" horiz-adv-x="2048" d="M1024 176q0 82 17.5 151.5t43 122t72.5 97.5t88 74.5t109.5 56.5t118 42t131.5 30.5t130 22.5t134 18q102 12 205 30q49 8 75.5 14.5t69.5 22.5t65.5 34.5t40 52.5t17.5 79q0 258 -348 258q-178 0 -267.5 -64.5t-115.5 -232.5h-500q12 184 90 315.5t206 203t275.5 103 t325.5 31.5q139 0 255 -15t228.5 -58t189.5 -112t124 -182.5t47 -262.5v-836q0 -131 1 -186.5t17.5 -158.5t48.5 -181h-540q-31 82 -37 188q-246 -244 -627 -244q-195 0 -346 59.5t-247.5 194.5t-96.5 332zM1571 199q0 -127 82 -193.5t211 -66.5q211 0 342 112.5t131 319.5 v217q-68 -39 -178.5 -62.5t-205.5 -38t-185.5 -40t-143.5 -87t-53 -161.5zM0 -229v1687q0 74 53 127t127 53h1688q74 0 127 -53t53 -127v-1687q0 -74 -53 -127.5t-127 -53.5h-1688q-74 0 -127 53.5t-53 127.5zM403 1095.5q0 -57.5 38 -95t98 -37.5q66 0 104 37q37 36 37 90 q0 63 -38 101t-99.5 38t-100.5 -38t-39 -95.5zM410 0h262v858h-262v-858zM823 858q6 -233 6 -274v-584h263v494q0 43 8 67q41 100 135 101q133 0 133 -187v-475h264v506q0 182 -84 276.5t-219 94.5q-96 0 -162.5 -43t-99.5 -97h-4l-12 121h-228z" />
<glyph unicode="&#x153;" horiz-adv-x="2048" d="M1024 1079q0 231 167 395t400 164q166 0 301 -86q78 14 166 15q264 0 488.5 -128t356.5 -349.5t132 -485.5q0 -115 -22 -207q59 -119 59 -247q0 -231 -167 -395.5t-400 -164.5q-141 0 -267 66q-94 -16 -180 -16q-401 0 -689 281.5t-288 682.5q0 86 21 193 q-78 130 -78 282zM1483 330q0 -86 63 -174q147 -213 510 -213q102 0 198.5 22.5t182.5 68.5t138.5 130t52.5 194q0 102 -45.5 177t-118 116t-160.5 70t-176 46t-161 36.5t-118 52.5t-45 80q0 70 75 101.5t155 31.5q82 0 136 -25.5t78.5 -61.5t44 -72t51.5 -61.5t83 -25.5 q57 0 99 39t42 94.5t-31 110.5q-61 113 -197 164t-288 51q-94 0 -183 -18.5t-173 -58.5t-135.5 -115.5t-51.5 -178.5q0 -135 83 -218t203 -116.5t238.5 -58t201.5 -68.5t83 -120q0 -86 -86 -128t-184 -42q-92 0 -151.5 30.5t-85 73.5t-46 87t-53.5 75t-86 31q-57 0 -100 -36 t-43 -91zM186 -248h78q0 -76 66 -76q29 0 47 16.5t18 45.5t-20.5 44t-50.5 13h-19v55h11q71 0 71 50q0 23 -15.5 36t-39.5 13q-59 0 -60 -68h-75q2 61 37.5 96t97.5 35q53 0 92 -27.5t39 -78.5q0 -27 -15.5 -49.5t-39.5 -28.5q70 -16 69 -90q0 -59 -43 -93t-102 -34 q-66 0 -106 36t-40 99v6zM186 291q2 57 35 99t71 61.5t69.5 48t31.5 61.5q0 25 -15.5 40t-41.5 15q-59 0 -64 -84h-75q0 70 36.5 112t106.5 42q57 0 95 -32.5t38 -88.5q0 -51 -33.5 -83.5t-82 -62.5t-68.5 -61h186v-67h-289zM221 1219v59q100 0 115 78h65v-393h-86v256h-94z M678 29h1370v-437h-1370v437zM678 279v436h1370v-436h-1370zM678 963v436h1370v-436h-1370z" />
<glyph unicode="&#x2c6;" d="M0 928v123q0 260 165 423.5t423 163.5q166 0 274.5 -62.5t224.5 -201.5q119 139 227.5 201.5t272.5 62.5q258 0 424 -163.5t166 -423.5v-123q0 -584 -1090 -1338q-1087 752 -1087 1338zM238 938q0 -61 34 -154q139 -408 815 -903q674 489 818 903q33 102 32 154v102 q0 119 -79.5 232.5t-194.5 126.5q-25 4 -76 4q-109 0 -170 -40t-147 -140l-183 -215l-182 215q-86 100 -147.5 140t-169.5 40q-49 0 -76 -4q-115 -12 -191.5 -123t-82.5 -236v-102z" />
<glyph unicode="&#x2000;" horiz-adv-x="1904" />
<glyph unicode="&#x2001;" horiz-adv-x="3811" />
<glyph unicode="&#x2002;" horiz-adv-x="1904" />
<glyph unicode="&#x2003;" horiz-adv-x="3811" />
<glyph unicode="&#x2004;" horiz-adv-x="1269" />
<glyph unicode="&#x2005;" horiz-adv-x="952" />
<glyph unicode="&#x2006;" horiz-adv-x="634" />
<glyph unicode="&#x2007;" horiz-adv-x="634" />
<glyph unicode="&#x2008;" horiz-adv-x="475" />
<glyph unicode="&#x2009;" horiz-adv-x="761" />
<glyph unicode="&#x200a;" horiz-adv-x="210" />
<glyph unicode="&#x2010;" d="M0 635v242h543v-242h-543zM215 117l383 383l170 -170l-383 -383zM215 1395l170 170l383 -383l-170 -170zM903 -268v542h242v-542h-242zM1280 330l170 170l383 -383l-170 -170zM1280 1182l383 383l170 -170l-383 -383zM1505 635v242h543v-242h-543z" />
<glyph unicode="&#x2011;" d="M0 635v242h543v-242h-543zM215 117l383 383l170 -170l-383 -383zM215 1395l170 170l383 -383l-170 -170zM903 -268v542h242v-542h-242zM1280 330l170 170l383 -383l-170 -170zM1280 1182l383 383l170 -170l-383 -383zM1505 635v242h543v-242h-543z" />
<glyph unicode="&#x2012;" d="M0 635v242h543v-242h-543zM215 117l383 383l170 -170l-383 -383zM215 1395l170 170l383 -383l-170 -170zM903 -268v542h242v-542h-242zM1280 330l170 170l383 -383l-170 -170zM1280 1182l383 383l170 -170l-383 -383zM1505 635v242h543v-242h-543z" />
<glyph unicode="&#x2013;" d="M0 -268v1833h2048v-1833h-2048z" />
<glyph unicode="&#x2014;" horiz-adv-x="2048" d="M0 -268v1833h3072v-1833h-3072z" />
<glyph unicode="&#x2018;" d="M0 1157h1083l-540 -1085z" />
<glyph unicode="&#x2019;" d="M0 614.5q0 278.5 137 514t372.5 372.5t514.5 137t514.5 -137t372.5 -372.5t137 -514t-137 -514t-372.5 -373t-514.5 -137.5t-514.5 137.5t-372.5 373t-137 514zM492 82h573l-209 237l463 463l237 -209v574h-573l209 -238l-27 -26l-436 -437l-237 209v-573z" />
<glyph unicode="&#x2026;" horiz-adv-x="3072" d="M2048 635v242h543v-242h-543zM2263 117l383 383l170 -170l-383 -383zM2951 -268v542h242v-542h-242zM2951 1237v543h242v-543h-242zM3328 330l170 170l383 -383l-170 -170zM3328 1182l383 383l170 -170l-383 -383zM3553 635v242h543v-242h-543zM1024 635v242h543v-242 h-543zM1239 117l383 383l170 -170l-383 -383zM1927 -268v542h242v-542h-242zM1927 1237v543h242v-543h-242zM2304 330l170 170l383 -383l-170 -170zM2304 1182l383 383l170 -170l-383 -383zM2529 635v242h543v-242h-543zM0 635v242h543v-242h-543zM215 117l383 383l170 -170 l-383 -383zM903 -268v542h242v-542h-242zM903 1237v543h242v-543h-242zM1280 330l170 170l383 -383l-170 -170zM1280 1182l383 383l170 -170l-383 -383zM1505 635v242h543v-242h-543z" />
<glyph unicode="&#x202f;" horiz-adv-x="761" />
<glyph unicode="&#x2039;" d="M0 -94l709 708l-709 709l315 315l1024 -1024l-1024 -1024z" />
<glyph unicode="&#x203a;" d="M0 -193v1608q0 88 63.5 151.5t151.5 63.5h2359q88 0 151.5 -63.5t63.5 -151.5v-1608q0 -90 -63.5 -152.5t-151.5 -62.5h-2359q-88 0 -151.5 62.5t-63.5 152.5zM322 -86h2146v1143l-1012 -844h-125l-1009 844v-1143zM356 1309l1039 -867l1038 867h-2077z" />
<glyph unicode="&#x205f;" horiz-adv-x="952" />
<glyph unicode="&#x2122;" horiz-adv-x="2048" d="M1024 614.5q0 278.5 137 514t372.5 372.5t514.5 137t514.5 -137t372.5 -372.5t137 -514t-137 -514t-372.5 -373t-514.5 -137.5t-514.5 137.5t-372.5 373t-137 514zM1335 494q39 -225 203 -389t389 -203v291h242v-291q225 39 389 202.5t203 389.5h-291v241h291 q-39 225 -203 389t-389 203v-291h-242v291q-225 -39 -389 -202.5t-203 -389.5h291v-241h-291zM0 -229v1687q0 74 53 127t127 53h1688q74 0 127 -53t53 -127v-1687q0 -74 -53 -127.5t-127 -53.5h-1688q-74 0 -127 53.5t-53 127.5zM559 442q0 -139 301 -198l-239 -248 q-37 -37 -37 -90t35.5 -91t87 -38t88.5 37l229 237l229 -237q37 -37 88.5 -37t87 38t35.5 91t-37 90l-239 248q301 61 301 200q0 53 -36 91t-87 38q-31 0 -57 -16q-143 -74 -287 -74q-141 0 -283 74q-33 14 -57 14q-51 0 -87 -38t-36 -91zM604 1016q0 -178 121 -307 t299 -129t299 129t121 307t-121 307t-299 129t-299 -129t-121 -307zM850 1016q0 74 50 127t124 53t124 -53t50 -127t-50 -127t-124 -53t-124 53t-50 127z" />
<glyph unicode="&#xe000;" horiz-adv-x="855" d="M0 855h855v-855h-855v855z" />
<glyph unicode="&#xfb01;" horiz-adv-x="2048" d="M1024 801q0 346 246 591.5t592 245.5t591.5 -245.5t245.5 -591.5q0 -260 -147 -473l520 -523l-215 -215l-520 521q-217 -147 -475 -148q-346 0 -592 246t-246 592zM1303 800.5q0 -231.5 163.5 -394t395 -162.5t394.5 162.5t163 394t-163 395.5t-394.5 164t-395 -164 t-163.5 -395.5zM0 -229v1687q0 74 53 127t127 53h1688q74 0 127 -53t53 -127v-1687q0 -74 -53 -127.5t-127 -53.5h-1688q-74 0 -127 53.5t-53 127.5zM238 199q0 -158 125.5 -235t293.5 -77q188 0 326.5 93.5t138.5 273.5q0 78 -40 149.5t-89 112.5t-89 79t-40 58 q0 23 31 52.5t68.5 59.5t68.5 95.5t31 151.5q0 156 -90 219q2 0 31.5 3t42 6t35 10t31.5 20.5t9 32.5q0 23 -45 22q-6 0 -106 1q-50 1 -87.5 1t-61.5 -1q-48 -1 -123.5 -8t-120.5 -22q-119 -39 -190 -127t-71 -208q0 -143 91 -232q88 -86 227 -86h6h12q0 -49 4.5 -71.5 t10.5 -23.5t15 -10.5t17 -29.5q-113 0 -210 -24.5t-174.5 -98t-77.5 -186.5zM432 236q0 98 84 147t189 49q94 0 173.5 -48t79.5 -136q0 -90 -88 -145.5t-184 -55.5t-175 49.5t-79 139.5zM522 1061q0 72 32 123t99 51q88 0 140.5 -93t52.5 -188q0 -72 -32 -123t-99 -51 q-88 0 -140.5 93.5t-52.5 187.5zM1190 969h250v-248h123v248h247v123h-247v249h-123v-249h-250v-123z" />
<glyph unicode="&#xfb02;" horiz-adv-x="2048" d="M1024 -80h2048v-328h-2048v328zM1024 166v328h2048v-328h-2048zM1024 739v328h2048v-328h-2048zM1024 1313v327h2048v-327h-2048zM0 -229v1687q0 74 53 127t127 53h1688q74 0 127 -53t53 -127v-1687q0 -74 -53 -127.5t-127 -53.5h-1688q-74 0 -127 53.5t-53 127.5z M238 199q0 -158 125.5 -235t293.5 -77q188 0 326.5 93.5t138.5 273.5q0 78 -40 149.5t-89 112.5t-89 79t-40 58q0 23 31 52.5t68.5 59.5t68.5 95.5t31 151.5q0 156 -90 219q2 0 31.5 3t42 6t35 10t31.5 20.5t9 32.5q0 23 -45 22q-6 0 -106 1q-50 1 -87.5 1t-61.5 -1 q-48 -1 -123.5 -8t-120.5 -22q-119 -39 -190 -127t-71 -208q0 -143 91 -232q88 -86 227 -86h6h12q0 -49 4.5 -71.5t10.5 -23.5t15 -10.5t17 -29.5q-113 0 -210 -24.5t-174.5 -98t-77.5 -186.5zM432 236q0 98 84 147t189 49q94 0 173.5 -48t79.5 -136q0 -90 -88 -145.5 t-184 -55.5t-175 49.5t-79 139.5zM522 1061q0 72 32 123t99 51q88 0 140.5 -93t52.5 -188q0 -72 -32 -123t-99 -51q-88 0 -140.5 93.5t-52.5 187.5zM1190 969h250v-248h123v248h247v123h-247v249h-123v-249h-250v-123z" />
<glyph unicode="&#xfb03;" horiz-adv-x="3072" d="M2048 801q0 346 246 591.5t592 245.5t591.5 -245.5t245.5 -591.5q0 -260 -147 -473l520 -523l-215 -215l-520 521q-217 -147 -475 -148q-346 0 -592 246t-246 592zM2327 800.5q0 -231.5 163.5 -394t395 -162.5t394.5 162.5t163 394t-163 395.5t-394.5 164t-395 -164 t-163.5 -395.5zM1024 -229v1687q0 74 53 127t127 53h1688q74 0 127 -53t53 -127v-1687q0 -74 -53 -127.5t-127 -53.5h-1688q-74 0 -127 53.5t-53 127.5zM1262 199q0 -158 125.5 -235t293.5 -77q188 0 326.5 93.5t138.5 273.5q0 78 -40 149.5t-89 112.5t-89 79t-40 58 q0 23 31 52.5t68.5 59.5t68.5 95.5t31 151.5q0 156 -90 219q2 0 31.5 3t42 6t35 10t31.5 20.5t9 32.5q0 23 -45 22q-6 0 -106 1q-50 1 -87.5 1t-61.5 -1q-48 -1 -123.5 -8t-120.5 -22q-119 -39 -190 -127t-71 -208q0 -143 91 -232q88 -86 227 -86h6h12q0 -49 4.5 -71.5 t10.5 -23.5t15 -10.5t17 -29.5q-113 0 -210 -24.5t-174.5 -98t-77.5 -186.5zM1456 236q0 98 84 147t189 49q94 0 173.5 -48t79.5 -136q0 -90 -88 -145.5t-184 -55.5t-175 49.5t-79 139.5zM1546 1061q0 72 32 123t99 51q88 0 140.5 -93t52.5 -188q0 -72 -32 -123t-99 -51 q-88 0 -140.5 93.5t-52.5 187.5zM2214 969h250v-248h123v248h247v123h-247v249h-123v-249h-250v-123zM0 -229v1687q0 74 53 127t127 53h1688q74 0 127 -53t53 -127v-1687q0 -74 -53 -127.5t-127 -53.5h-1688q-74 0 -127 53.5t-53 127.5zM238 199q0 -158 125.5 -235 t293.5 -77q188 0 326.5 93.5t138.5 273.5q0 78 -40 149.5t-89 112.5t-89 79t-40 58q0 23 31 52.5t68.5 59.5t68.5 95.5t31 151.5q0 156 -90 219q2 0 31.5 3t42 6t35 10t31.5 20.5t9 32.5q0 23 -45 22q-6 0 -106 1q-50 1 -87.5 1t-61.5 -1q-48 -1 -123.5 -8t-120.5 -22 q-119 -39 -190 -127t-71 -208q0 -143 91 -232q88 -86 227 -86h6h12q0 -49 4.5 -71.5t10.5 -23.5t15 -10.5t17 -29.5q-113 0 -210 -24.5t-174.5 -98t-77.5 -186.5zM432 236q0 98 84 147t189 49q94 0 173.5 -48t79.5 -136q0 -90 -88 -145.5t-184 -55.5t-175 49.5t-79 139.5z M522 1061q0 72 32 123t99 51q88 0 140.5 -93t52.5 -188q0 -72 -32 -123t-99 -51q-88 0 -140.5 93.5t-52.5 187.5zM1190 969h250v-248h123v248h247v123h-247v249h-123v-249h-250v-123z" />
<glyph unicode="&#xfb04;" horiz-adv-x="3072" d="M2048 -80h2048v-328h-2048v328zM2048 166v328h2048v-328h-2048zM2048 739v328h2048v-328h-2048zM2048 1313v327h2048v-327h-2048zM1024 -229v1687q0 74 53 127t127 53h1688q74 0 127 -53t53 -127v-1687q0 -74 -53 -127.5t-127 -53.5h-1688q-74 0 -127 53.5t-53 127.5z M1262 199q0 -158 125.5 -235t293.5 -77q188 0 326.5 93.5t138.5 273.5q0 78 -40 149.5t-89 112.5t-89 79t-40 58q0 23 31 52.5t68.5 59.5t68.5 95.5t31 151.5q0 156 -90 219q2 0 31.5 3t42 6t35 10t31.5 20.5t9 32.5q0 23 -45 22q-6 0 -106 1q-50 1 -87.5 1t-61.5 -1 q-48 -1 -123.5 -8t-120.5 -22q-119 -39 -190 -127t-71 -208q0 -143 91 -232q88 -86 227 -86h6h12q0 -49 4.5 -71.5t10.5 -23.5t15 -10.5t17 -29.5q-113 0 -210 -24.5t-174.5 -98t-77.5 -186.5zM1456 236q0 98 84 147t189 49q94 0 173.5 -48t79.5 -136q0 -90 -88 -145.5 t-184 -55.5t-175 49.5t-79 139.5zM1546 1061q0 72 32 123t99 51q88 0 140.5 -93t52.5 -188q0 -72 -32 -123t-99 -51q-88 0 -140.5 93.5t-52.5 187.5zM2214 969h250v-248h123v248h247v123h-247v249h-123v-249h-250v-123zM0 -229v1687q0 74 53 127t127 53h1688q74 0 127 -53 t53 -127v-1687q0 -74 -53 -127.5t-127 -53.5h-1688q-74 0 -127 53.5t-53 127.5zM238 199q0 -158 125.5 -235t293.5 -77q188 0 326.5 93.5t138.5 273.5q0 78 -40 149.5t-89 112.5t-89 79t-40 58q0 23 31 52.5t68.5 59.5t68.5 95.5t31 151.5q0 156 -90 219q2 0 31.5 3t42 6 t35 10t31.5 20.5t9 32.5q0 23 -45 22q-6 0 -106 1q-50 1 -87.5 1t-61.5 -1q-48 -1 -123.5 -8t-120.5 -22q-119 -39 -190 -127t-71 -208q0 -143 91 -232q88 -86 227 -86h6h12q0 -49 4.5 -71.5t10.5 -23.5t15 -10.5t17 -29.5q-113 0 -210 -24.5t-174.5 -98t-77.5 -186.5z M432 236q0 98 84 147t189 49q94 0 173.5 -48t79.5 -136q0 -90 -88 -145.5t-184 -55.5t-175 49.5t-79 139.5zM522 1061q0 72 32 123t99 51q88 0 140.5 -93t52.5 -188q0 -72 -32 -123t-99 -51q-88 0 -140.5 93.5t-52.5 187.5zM1190 969h250v-248h123v248h247v123h-247v249 h-123v-249h-250v-123z" />
</font>
</defs>
</svg>
