<?xml version="1.0" standalone="no"?>
<!DOCTYPE svg PUBLIC "-//W3C//DTD SVG 1.1//EN" "http://www.w3.org/Graphics/SVG/1.1/DTD/svg11.dtd" >
<svg xmlns="http://www.w3.org/2000/svg">
<metadata>
This is a custom SVG webfont generated by Font Squirrel.
</metadata>
<defs>
<font id="FontomasCustomRegular" horiz-adv-x="1024" >
<font-face units-per-em="2048" ascent="1536" descent="-512" />
<missing-glyph horiz-adv-x="500" />
<glyph unicode=" " d="M31 468q0 239 117.5 440.5t319.5 319.5t441 118h172l-86 86l207 206l440 -438l-440 -440l-207 207l86 84l-172 2q-244 0 -414.5 -171t-170.5 -414t171 -414t413.5 -171t413.5 171t171 415h293q0 -240 -118 -441.5t-319.5 -319.5t-440 -118t-440.5 118t-319.5 319.5 t-117.5 440.5z" />
<glyph unicode="!" d="M31 102v256h352l63 512h-415v256h448l64 512h256l-64 -512h512l64 512h256l-64 -512h320v-256h-353l-63 -512h416v-256h-449l-63 -512h-256l63 512h-512l-63 -512h-256l63 512h-319zM639 358h512l63 512h-512z" />
<glyph unicode="&#x22;" d="M31 1130q0 213 149 363q145 145 362.5 145t362.5 -145q150 -150 150 -361.5t-150 -361.5l-428 -428q-18 -20 -18 -46t18.5 -45.5t45 -19.5t45 19.5t18.5 44.5h256q0 -131 -93.5 -225.5t-226.5 -94.5t-226 94.5t-93 226.5t92 226l428 428q76 74 76 180.5t-75 181 t-181.5 74.5t-181 -74.5t-74.5 -181.5h-256zM389 -282q0 128 128 128t128 -128t-128 -128t-128 128z" />
<glyph unicode="#" d="M31 614.5q0 208.5 81 398t218 327t326.5 218t398.5 80.5t398 -80.5t326.5 -218t218.5 -327t81 -398.5q0 -274 -137 -512h-375q-123 0 -201 105q-141 -106 -311 -107q-213 0 -362.5 149.5t-149.5 361.5t149.5 362.5t362.5 150.5h512v-766h207l2 -2q47 129 47 258 q0 209 -102.5 386.5t-279.5 279.5t-386 102t-386 -102t-279.5 -279.5t-102.5 -386t102.5 -386t279.5 -280t386 -102.5q156 0 296 59.5t246 166.5l183 -181q-143 -143 -329.5 -222t-395.5 -79t-398.5 81t-326.5 218.5t-218 327t-81 398zM799 611.5q0 -105.5 74.5 -180.5 t181 -75t181.5 75t75 181v129v127h-256q-106 0 -181 -75.5t-75 -181z" />
<glyph unicode="$" d="M31 1126q0 213 149.5 362.5t362.5 149.5h256h256h256h256v-256h-256v-1792h-256v1792h-256v-1792h-256v1024q-213 0 -362.5 149.5t-149.5 362.5z" />
<glyph unicode="%" d="M31 -154h129q51 0 89 38t38 91v512q0 51 -38 89t-89 38h-129v256h768v-895q0 -53 37.5 -91t91.5 -38h127v-256h-1024v256zM287 1382q0 256 256 256t256 -256t-256 -256t-256 256z" />
<glyph unicode="&#x26;" d="M31 614l1022 1024l364 -362l-405 -406h1067v-512h-1067l405 -405l-364 -363z" />
<glyph unicode="'" d="M31 614l1024 1024l1024 -1024l-363 -362l-405 405v-1067h-512v1067l-406 -403z" />
<glyph unicode="(" d="M31 358v514h1067l-406 404l365 362l1022 -1024l-1022 -1024l-365 363l406 405h-1067z" />
<glyph unicode=")" d="M31 614l362 363l406 -406v1067h512v-1067l405 404l363 -361l-1024 -1024z" />
<glyph unicode="*" d="M31 614l1024 1024l1024 -1024h-256v-1024h-1536v1024h-256zM543 -154h383v383h258v-383h383v918l-512 362l-512 -362v-918z" />
<glyph unicode="+" d="M31 614.5q0 53.5 37.5 91t90 37.5t90.5 -37.5t38 -91t-38 -90.5t-90.5 -37t-90 37t-37.5 90.5zM287 -26q0 128 128 128t128 -128t-128 -128t-128 128zM287 1254q0 128 128 128t128 -128t-128 -128t-128 128zM543 614q0 213 149.5 362.5t362.5 149.5q211 0 361.5 -149.5 t150.5 -362.5t-150.5 -362.5t-361.5 -149.5q-213 0 -362.5 149.5t-149.5 362.5zM926 -281.5q0 52.5 37.5 90t91 37.5t91.5 -37.5t38 -90t-38 -90.5t-91.5 -38t-91 38t-37.5 90.5zM926 1510.5q0 52.5 37.5 90t91 37.5t91.5 -37.5t38 -90t-38 -90.5t-91.5 -38t-91 38 t-37.5 90.5zM1567 -25.5q0 52.5 37.5 90t91 37.5t90.5 -37.5t37 -90t-37 -90.5t-90.5 -38t-91 38t-37.5 90.5zM1567 1254.5q0 52.5 37.5 90t91 37.5t90.5 -36q37 -39 37 -91.5t-37 -90.5t-90.5 -38t-91 38t-37.5 90.5zM1823 614.5q0 53.5 37.5 90t91 36.5t90.5 -36.5 t37 -90.5q0 -53 -38 -90t-90.5 -37t-90 37t-37.5 90.5z" />
<glyph unicode="," d="M31 870q0 211 150.5 361.5t361.5 150.5q20 0 67 -6q68 119 185.5 190.5t259.5 71.5q139 0 255.5 -71.5t186.5 -190.5q51 6 70 6q211 0 361.5 -150.5t150.5 -361.5t-150.5 -361.5t-361.5 -150.5h-1024q-211 0 -361.5 150.5t-150.5 361.5zM287 870q0 -106 74.5 -181 t181.5 -75h1024q106 0 181 75t75 181.5t-75 181t-181.5 74.5t-181 -74.5t-74.5 -181.5h-256q0 123 55 229.5t150 178.5q-78 104 -205 104q-106 0 -181 -74.5t-75 -181.5q0 -47 16 -90l-240 -88q-31 82 -32 174q-100 -2 -178 -76t-78 -176z" />
<glyph unicode="-" d="M31 754l364 364l400 -399l919 919l365 -364l-1284 -1284z" />
<glyph unicode="." d="M31 -410l2 725l1171 1174q150 150 363 149.5t362 -149.5q150 -150 150 -363t-150 -362l-1175 -1174h-723zM289 102h254v-256h106l1098 1100l-361 361l-1097 -1098v-107z" />
<glyph unicode="/" d="M31 102v1004l1030 -483l1018 481v-1002h-2048zM31 1389v249h2048v-249l-1020 -484z" />
<glyph unicode="0" d="M31 614.5q0 278.5 137 514t372.5 372.5t514 137t514 -137t373 -372.5t137.5 -514t-137.5 -514t-373 -373t-514 -137.5t-514 137.5t-372.5 373t-137 514zM287 614q0 -242 143 -444l1069 1069q-203 143 -444 143q-317 0 -542.5 -225.5t-225.5 -542.5zM610 -10 q203 -143 445 -144q317 0 542.5 225.5t225.5 542.5q0 242 -144 445z" />
<glyph unicode="1" d="M31 -31q0 51 37 86q20 23 107 66t164 76.5t77 31.5q-127 -299 -174 -346q-37 -37 -88.5 -37t-87 36t-35.5 87zM31 870q0 211 150.5 361.5t361.5 150.5q20 0 67 -6q68 119 185.5 190.5t259.5 71.5q139 0 255.5 -71.5t186.5 -190.5q51 6 70 6q211 0 361.5 -150.5 t150.5 -361.5t-150.5 -361.5t-361.5 -150.5h-1024q-211 0 -361.5 150.5t-150.5 361.5zM287 870q0 -106 74.5 -181t181.5 -75h1024q106 0 181 75t75 181.5t-75 181t-181.5 74.5t-181 -74.5t-74.5 -181.5h-256q0 123 55 229.5t150 178.5q-78 104 -205 104q-106 0 -181 -74.5 t-75 -181.5q0 -47 16 -90l-240 -88q-31 82 -32 174q-100 -2 -178 -76t-78 -176zM543 -31q0 51 37 86q47 49 348 174q-127 -299 -174 -346q-37 -37 -88.5 -37t-87 36t-35.5 87zM1055 -31q0 51 37 86q47 49 346 174q-125 -299 -172 -346q-37 -37 -88.5 -37t-87 36t-35.5 87z " />
<glyph unicode="2" d="M31 102l780 781q-12 63 -12 116q0 264 187.5 451.5t452.5 187.5t452.5 -187t187.5 -452.5t-187.5 -453t-453.5 -187.5q-51 0 -115 13l-12 -13v-256h-256v-256h-256v-256h-768v512zM1311 998.5q0 -52.5 37.5 -90.5t91 -38t90.5 38t37 90.5t-37 90t-90.5 37.5t-91 -37.5 t-37.5 -90z" />
<glyph unicode="3" d="M31 -410l895 768l-383 256l1536 1024l-895 -1024l383 -256z" />
<glyph unicode="4" d="M31 485v256l301 127q16 47 30 78l-122 301l180 180l303 -122q33 16 76 30l127 303h256l129 -303q41 -16 71 -30l306 125l180 -181l-123 -307q12 -29 29 -70l305 -129v-256l-305 -129q-16 -43 -29 -69l125 -307l-180 -181l-308 123q-29 -12 -71 -28l-127 -306h-256 l-129 304q-45 14 -74 28l-303 -123l-180 181l120 303q-14 33 -30 75zM670 614.5q0 -159.5 111.5 -272.5t271 -113t272.5 113t113 272.5t-113 272t-272.5 112.5t-271 -112.5t-111.5 -272z" />
<glyph unicode="5" d="M31 1022v47q0 236 167 402.5t402 166.5q137 0 256 -66.5t199 -178.5q80 113 198.5 179t255.5 66q236 0 403 -166.5t167 -402.5v-47l-1024 -1176z" />
<glyph unicode="6" d="M31 637q0 354 213 629.5t544 371.5q-129 -225 -129 -471q0 -193 75 -368.5t202 -302.5t303 -202t369 -75q246 0 471 129q-96 -332 -371.5 -545t-630.5 -213q-213 0 -406.5 83t-333.5 223.5t-223 334t-83 406.5z" />
<glyph unicode="7" d="M31 870h768l256 768l256 -768h768l-631 -487l248 -793l-639 492l-643 -492l250 795z" />
<glyph unicode="8" d="M31 614q0 209 81 398.5t218 327t326.5 218t398.5 80.5t398 -80.5t326.5 -218t218.5 -327t81 -398.5h-256q0 39 -29 68t-67.5 29t-67.5 -29t-29 -68h-256q0 39 -27.5 68t-67.5 29t-67.5 -29t-27.5 -68v-639q0 -160 -113 -272.5t-271.5 -112.5t-271 113t-112.5 272h256 q0 -53 36.5 -91t90 -38t91.5 38t38 91v639q0 39 -29 68t-68.5 29t-67.5 -29t-28 -68h-256q0 39 -28.5 68t-67.5 29t-67.5 -29t-28.5 -68h-256z" />
<glyph unicode="9" d="M31 614.5q0 278.5 137 514t372.5 372.5t514 137t514 -137t373 -372.5t137.5 -514t-137.5 -514t-373 -373t-514 -137.5t-514 137.5t-372.5 373t-137 514zM424 612l473 -471l795 797l-181 182l-616 -616l-289 291z" />
<glyph unicode=":" d="M31 743q0 180 70.5 347t190.5 287t286.5 190.5t347.5 70.5q244 0 450.5 -119.5t326.5 -326.5t120 -449.5t-120 -449.5t-327 -327t-450 -120q-98 0 -211 29l-428 -285l2 523q-121 125 -189.5 286.5t-68.5 343.5z" />
<glyph unicode=";" d="M31 614.5q0 208.5 81 398t218 327t326.5 218t398.5 80.5t398 -80.5t326.5 -218t218.5 -327t81 -398t-81 -398t-218.5 -327t-326.5 -218.5t-398 -81t-398.5 81t-326.5 218.5t-218 327t-81 398zM543 614l510 -510v383h514v254h-514v385z" />
<glyph unicode="&#x3c;" d="M31 102l1024 -256l1024 256v-256l-1024 -256l-1024 256v256zM31 358v256l1024 -256l1024 256v-256l-1024 -256zM31 870v256l1024 -256l1024 256v-256l-1024 -256zM31 1382v256l1024 -256l1024 256v-256l-1024 -256z" />
<glyph unicode="=" d="M31 -154q0 256 256 256t256 -256t-256 -256t-256 256zM414 870v256q236 0 448.5 -91t367 -245.5t246 -367.5t91.5 -449h-256q0 182 -71 348t-191.5 287t-286.5 191.5t-348 70.5zM414 1382v256q338 0 646 -132t531.5 -355t355.5 -531.5t132 -646.5h-256q0 287 -112 548 t-300 449.5t-449 300t-548 111.5zM416 358v256q264 0 452.5 -187t188.5 -454h-256q0 160 -112.5 272.5t-272.5 112.5z" />
<glyph unicode="&#x3e;" d="M31 1253l383 385v-256h385v-256h-385v-256zM1311 1126v256h385v256l383 -385l-383 -383v256h-385z" />
<glyph unicode="?" d="M31 870q0 211 150.5 361.5t361.5 150.5q20 0 67 -6q68 119 185.5 190.5t259.5 71.5q139 0 255.5 -71.5t186.5 -192.5q47 8 70 8q211 0 361.5 -150.5t150.5 -361.5t-150.5 -361.5t-361.5 -150.5h-383v-383h254l-383 -385l-383 385h254v383h-383q-211 0 -361.5 150.5 t-150.5 361.5zM287 870q0 -106 74.5 -181t181.5 -75h1024q106 0 181 75t75 181.5t-75 181t-181.5 74.5t-181 -74.5t-74.5 -181.5h-256q0 123 55 229.5t150 178.5q-78 104 -205 104q-106 0 -181 -74.5t-75 -181.5q0 -47 16 -90l-240 -90q-31 84 -32 176q-100 -2 -178 -76 t-78 -176z" />
<glyph unicode="@" d="M31 -229l293 295l-293 292h768v-768l-293 293l-295 -293zM31 870l293 293l-291 291l182 182l291 -290l293 292v-768h-768zM1311 358h768l-293 -292l293 -295l-181 -181l-294 293l-293 -293v768zM1311 870v768l293 -292l290 290l183 -182l-291 -291l293 -293h-768z" />
<glyph unicode="A" d="M31 741v770q0 51 37.5 89t91.5 38h1536q51 0 89 -37.5t38 -89.5v-129h256v-512h-256v-129q0 -51 -38 -89t-89 -38h-1536q-53 0 -91 38t-38 89zM287 870h1280v512h-1280v-512z" />
<glyph unicode="B" d="M31 998.5q0 265.5 187.5 452.5t452.5 187t452.5 -187t187.5 -452.5t-189 -451.5q-18 -18 -48 -51t-108.5 -137.5t-138 -211t-107.5 -260t-48 -297.5q0 143 -47 294t-114 265.5t-133.5 205.5t-112.5 142l-46 50q-188 186 -188 451.5zM416 997.5q0 -106.5 74.5 -181.5 t180 -75t181.5 75t76 181.5t-76 181t-181.5 74.5t-180 -74.5t-74.5 -181z" />
<glyph unicode="C" d="M31 10l585 586q-55 139 -55 283q0 207 101.5 382t276.5 276t381 101t381 -101t276.5 -276.5t101.5 -381t-101.5 -380.5t-276.5 -276.5t-382 -101.5q-143 0 -283 55l-585 -586zM393 10q41 43 173 175l190 190q29 -31 59 -60q-256 -254 -364 -362zM815 879.5 q0 -207.5 148.5 -355t356.5 -147.5t355.5 147.5t147.5 355t-147.5 355t-355.5 147.5t-356.5 -147.5t-148.5 -355z" />
<glyph unicode="D" d="M31 -25v895h256v129q0 264 187.5 451.5t451.5 187.5q266 0 453.5 -187t187.5 -452v-1024q0 -160 -113 -272.5t-270 -112.5h-770q-158 0 -270.5 112.5t-112.5 272.5zM543 870h768v129q0 158 -113 270.5t-271.5 112.5t-271 -112.5t-112.5 -270.5v-129zM672 230.5 q0 -52.5 36.5 -90.5t90 -38t90.5 38t37 90.5t-37 90t-90.5 37.5t-90 -37.5t-36.5 -90z" />
<glyph unicode="E" d="M31 -154v1536q0 106 74.5 181t181.5 75h1536v-2048h-1536q-106 0 -181 75t-75 181zM543 -154h1024v1536h-256v-516l-258 258l-254 -256v514h-256v-1536z" />
<glyph unicode="F" d="M31 741v254h409q39 -113 137.5 -184.5t223.5 -71.5v131h260v127h-260v256h254v129h-254v125q-125 0 -223.5 -71.5t-137.5 -184.5h-409v260q0 51 37.5 89t91.5 38h1536q51 0 89 -37.5t38 -89.5v-129h256v-512h-256v-129q0 -51 -38 -89t-89 -38h-1536q-53 0 -91 38t-38 89z " />
<glyph unicode="G" d="M31 -229l422 422l-166 165h512v-512l-166 166l-422 -422zM31 1458l180 180l420 -417l168 161l-2 -510l-510 -2l164 168zM1311 -154v512h512l-166 -165l422 -422l-181 -181l-421 422zM1311 870v514l166 -165l419 419l183 -182l-420 -420l166 -166h-514z" />
<glyph unicode="H" d="M31 614v256h129v641q0 51 36.5 89t90 38t90.5 -37.5t37 -89.5v-641h129v-256h-129v-897q0 -51 -37 -89t-90.5 -38t-90 38t-36.5 89v897h-129zM799 102v256h127v1153q0 51 37.5 89t91 38t91.5 -37.5t38 -89.5v-1153h127v-256h-127v-385q0 -51 -38 -89t-91.5 -38t-91 38 t-37.5 89v385h-127zM1567 870v256h129v385q0 51 36.5 89t90 38t90.5 -37.5t37 -89.5v-385h129v-256h-129v-1153q0 -51 -37 -89t-90.5 -38t-90 38t-36.5 89v1153h-129z" />
<glyph unicode="I" d="M31 1126q0 135 43 237.5t117.5 161t162.5 86t189 27.5h512q98 0 188 -30.5t163 -91t117 -162t44 -228.5v-256q100 0 188 -27.5t163 -86t118 -160.5t43 -238q0 -133 -43 -234t-118 -160.5t-163 -88.5t-188 -29h-256q-106 0 -181 -74.5t-75 -181.5q-213 0 -362.5 149.5 t-149.5 362.5v256q0 141 59 256h-59q-100 0 -188.5 29t-163 88.5t-117.5 160.5t-43 234zM287 1126q0 -256 256 -256h256q123 0 230.5 -55t178.5 -149q102 76 103 204v256q0 78 -25.5 133.5t-67.5 80t-81 33.5t-82 9h-512q-74 0 -125 -20.5t-76 -46t-38 -67.5t-15 -64.5 t-2 -57.5zM799 102q0 -127 102 -204q72 94 179.5 149t230.5 55h256q72 0 124 21.5t76.5 49.5t38 70t15.5 63.5t2 51.5q0 35 -2 57.5t-15.5 64.5t-38 67.5t-77 46t-123.5 20.5h-72q-68 -117 -184.5 -186.5t-255.5 -69.5q0 72 -38 132.5t-102 93.5q-117 -74 -116 -226v-256z M1544 725q0 2 2 8t2 10q0 -4 -2 -10t-2 -8z" />
<glyph unicode="J" d="M31 102v1536q215 0 399 -26.5t295 -63.5t189.5 -74.5t109.5 -64.5l31 -27q10 10 31.5 27.5t107.5 62t191.5 78t292 61t401.5 27.5v-1536q-217 0 -402.5 -26.5t-295 -63.5t-188.5 -74.5t-108 -64.5l-30 -27q-10 10 -32 27.5t-105.5 62t-190 78t-293 61t-403.5 27.5z M287 352q393 -35 639 -164v1031q-246 131 -639 163v-1030zM1184 188q246 129 639 164v1030q-393 -33 -639 -163v-1031z" />
<glyph unicode="K" d="M31 -25v895h1280v129q0 158 -113 270.5t-271.5 112.5t-271 -112.5t-112.5 -270.5h-256q0 264 187.5 451.5t452.5 187.5t452.5 -187t187.5 -452v-1024q0 -160 -113 -272.5t-270 -112.5h-770q-158 0 -270.5 112.5t-112.5 272.5zM670 230.5q0 -52.5 37.5 -90.5t91 -38 t90.5 38t37 90.5t-37 90t-90.5 37.5t-91 -37.5t-37.5 -90z" />
<glyph unicode="L" d="M31 -281.5q0 52.5 37 91.5l260 260q-105 157 -105 346q0 33 3 67q22 229 184 391l385 386q186 186 452 186q193 0 352 -107l261 263q37 37 90 36.5t91 -38t38 -90t-37 -91.5l-262 -260q107 -157 106 -347q0 -33 -3 -67q-22 -229 -185 -391l-383 -385q-186 -186 -453 -186 q-193 0 -352 106l-260 -262q-39 -37 -91.5 -37t-90 38t-37.5 90.5zM479 422q0 -84 39 -164l191 191q37 37 90 36.5t90 -37t37 -90t-37 -90.5l-191 -190q80 -39 164 -39q160 0 273 113l383 383q113 113 112 272q0 84 -39 164l-194 -195q-37 -37 -90.5 -37t-90 37t-36.5 90.5 t37 89.5l194 195q-82 39 -164 39q-160 0 -272 -113l-383 -383q-113 -112 -113 -272z" />
<glyph unicode="M" d="M31 -238.5q0 70.5 49 119.5l1026 1026q-51 106 -51 219q0 213 149.5 362.5t362.5 149.5q68 0 147 -24l-317 -318v-340h336l321 322q25 -80 25 -152q0 -213 -149.5 -362.5t-362.5 -149.5q-113 0 -219 52l-1026 -1026q-49 -49 -121 -50q-70 0 -120 50.5t-50 121z" />
<glyph unicode="N" d="M31 614.5q0 278.5 137 514t372.5 372.5t514 137t514 -137t373 -372.5t137.5 -514t-137.5 -514t-373 -373t-514 -137.5t-514 137.5t-372.5 373t-137 514zM287 614.5q0 -317.5 225 -543t542.5 -225.5t543 225.5t225.5 543t-225.5 542.5t-543 225t-542.5 -225t-225 -542.5z M926 614v512h258v-458l217 -219l-180 -181l-250 252q-45 39 -45 94z" />
<glyph unicode="O" d="M31 358v641q0 264 187.5 451.5t453.5 187.5h639q317 0 542.5 -225t225.5 -542.5t-225.5 -543t-542.5 -225.5h-512q-106 0 -181 -74.5t-75 -181.5q-211 0 -361.5 149.5t-150.5 362.5z" />
<glyph unicode="P" d="M31 -410v1792h383v-131q0 -106 75.5 -181t181 -75t180.5 75t75 181v131h258v-131q0 -106 74.5 -181t180 -75t181.5 75t76 181v131h383v-1792h-2048zM414 102v-256h258v256h-258zM414 358h258v256h-258v-256zM543 1253v258q0 51 37.5 89t90 38t90.5 -37.5t38 -89.5v-258 q0 -51 -38 -89t-90.5 -38t-90 38t-37.5 89zM926 102v-256h258v256h-258zM926 358h258v256h-258v-256zM1311 1253v258q0 51 37.5 89t90 38t90.5 -37.5t38 -89.5v-258q0 -51 -38 -89t-90.5 -38t-90 38t-37.5 89zM1438 102v-256l258 256h-258zM1438 358h258v256h-258v-256z" />
<glyph unicode="Q" d="M31 -410v1280h2048v-1280h-2048zM31 1126l256 512h639v-512h-895zM1184 1126v512h639l256 -512h-895z" />
<glyph unicode="R" d="M31 870v125q0 51 37.5 89t90 38t90.5 -37.5t38 -89.5v-125q0 -211 150.5 -361.5t361.5 -150.5t361.5 150.5t150.5 361.5v125q0 51 37.5 89t90 38t90.5 -37.5t38 -89.5v-125q0 -283 -183.5 -495.5t-457.5 -259.5v-269h129q106 0 181 -74.5t75 -181.5h-1024q0 106 74.5 181 t181.5 75h129v269q-274 47 -457.5 259.5t-183.5 495.5zM543 870v512q0 106 74.5 181t181 75t181.5 -74.5t75 -181.5v-512q0 -106 -75 -181t-181.5 -75t-181 75t-74.5 181z" />
<glyph unicode="S" d="M31 102v256h2048v-256h-2048zM31 -154h1536v-256h-1536v256zM31 870v256h1280v-256h-1280zM31 1382v256h2048v-256h-2048zM1823 -281.5q0 52.5 37.5 90t89.5 37.5q53 0 91 -37.5t38 -90t-38 -90.5t-91 -38q-51 0 -89 38t-38 90.5z" />
<glyph unicode="T" d="M31 -282q0 128 128 128t128 -128t-128 -128t-128 128zM31 352v256h2048v-256h-2048zM31 870v256h1280v-256h-1280zM31 1382v256h2048v-256h-2048zM543 -281.5q0 52.5 37.5 90t91.5 37.5q51 0 89 -37.5t38 -90t-38 -90.5t-89 -38q-53 0 -91 38t-38 90.5zM1055 -282 q0 128 128 128t128 -128t-128 -128t-128 128z" />
<glyph unicode="U" d="M31 -410v2048h256l258 -258l-260 -254h256l262 258l-256 254h362l258 -258l-260 -254h301l262 258l-256 254h357l252 -258l-254 -254h252l258 256l-252 256h252v-2048h-2048zM287 104v-256h1536v256h-1536zM287 358h1536v256h-1536v-256z" />
<glyph unicode="V" d="M31 -25v512q0 51 37.5 89t91.5 38h127v256q0 317 225 542.5t542.5 225.5t543 -225t225.5 -543v-256h127q53 0 91 -37.5t38 -89.5v-512q0 -53 -38 -91t-91 -38h-383v768v256q0 211 -150.5 361.5t-361.5 150.5t-361.5 -150.5t-150.5 -361.5v-256v-768h-383q-53 0 -91 38 t-38 91z" />
<glyph unicode="W" d="M31 -26q0 128 128 128t128 -128t-128 -128t-128 128zM31 486q0 128 128 128t128 -128t-128 -128t-128 128zM31 998q0 128 128 128t128 -128t-128 -128t-128 128zM31 1510q0 128 128 128t128 -128t-128 -128t-128 128zM543 102h1536v-256h-1536v256zM543 358v256h1536 v-256h-1536zM543 870v256h1536v-256h-1536zM543 1382v256h1536v-256h-1536z" />
<glyph unicode="X" d="M31 1510q0 128 128 128t128 -128t-128 -128t-128 128zM543 -26q0 128 128 128t128 -128t-128 -128t-128 128zM543 998q0 128 128 128t128 -128t-128 -128t-128 128zM543 1382v256h1536v-256h-1536zM1055 102h1024v-256h-1024v256zM1055 486q0 128 128 128t128 -128 t-128 -128t-128 128zM1055 870v256h1024v-256h-1024zM1567 358v256h512v-256h-512z" />
<glyph unicode="Y" d="M31 -154q0 317 225 542.5t542.5 225.5t543 -225t225.5 -543q0 -106 -75 -181t-181 -75h-1024q-106 0 -181 75t-75 181zM414 1254q0 384 385 384t385 -384t-385 -384t-385 384z" />
<glyph unicode="Z" d="M31 102v1024q0 213 149.5 362.5t362.5 149.5h512q213 0 362.5 -149.5t149.5 -362.5v-1024q0 -213 -149.5 -362.5t-362.5 -149.5h-512q-213 0 -362.5 149.5t-149.5 362.5zM287 102h1024v1024q0 106 -75 181t-181 75h-512q-106 0 -181 -74.5t-75 -181.5v-1024zM668 -153.5 q0 -55.5 37.5 -93.5t93 -38t93.5 38t38 93.5t-38 93t-93.5 37.5t-93 -37.5t-37.5 -93z" />
<glyph unicode="[" d="M31 -410v1024h512v-1024h-512zM799 -410v1536h512v-1536h-512zM1567 -410v2048h512v-2048h-512z" />
<glyph unicode="\" d="M31 997q0 266 187.5 453.5t452.5 187.5t452.5 -187t187.5 -454q0 -156 -67.5 -289t-186.5 -221q-131 -100 -131 -221v-164h-510v164q0 121 -131 221q-119 88 -186.5 221t-67.5 289zM287 997q0 -92 40 -172t111 -133q186 -141 224 -332h18q37 190 223 332q72 53 112 133 t40 172q0 160 -113 272.5t-271.5 112.5t-271 -112.5t-112.5 -272.5zM416 -154h510v-256h-510v256z" />
<glyph unicode="]" d="M31 1638l1536 -512l-383 -385l895 -895l-256 -256l-897 897l-383 -385z" />
<glyph unicode="^" d="M31 625q0 344 217 624q35 -29 76 -28q53 0 90 37.5t37 91.5q0 39 -27 75q221 176 506 213q4 -49 40 -82.5t85 -33.5t85 32.5t40 81.5q279 -35 501 -206q-31 -37 -30 -80q0 -53 37.5 -91t91.5 -38q41 0 78 30q221 -279 221 -626q0 -207 -81 -397.5t-218.5 -327 t-326.5 -218t-398 -81.5t-398.5 81.5t-326.5 218t-218 327t-81 397.5zM543 626q0 -212 149.5 -362.5t362.5 -150.5t362.5 150.5t149.5 362.5t-152 361l-360 363l-363 -363q-149 -149 -149 -361zM799 625q0 256 256 256t256 -256t-256 -256t-256 256z" />
<glyph unicode="_" d="M31 614.5q0 278.5 137 514t372.5 372.5t514 137t514 -137t373 -372.5t137.5 -514t-137.5 -514t-373 -373t-514 -137.5t-514 137.5t-372.5 373t-137 514zM803 616.5q0 -104.5 74.5 -179.5t179 -75t179.5 75t75 179.5t-75 179t-179.5 74.5t-179 -74.5t-74.5 -179z" />
<glyph unicode="`" d="M31 -410v1280q0 106 74.5 181t181.5 75h512l219 424q12 39 46 63.5t75 24.5h352q41 0 74.5 -24.5t46.5 -61.5l211 -426q106 0 181 -74.5t75 -181.5v-1280h-2048zM287 742.5q0 -52.5 37.5 -90.5t90 -38t90.5 38t38 90.5t-38 90t-90.5 37.5t-90 -37.5t-37.5 -90zM799 358 q0 -213 149.5 -362.5t362.5 -149.5t362.5 149.5t149.5 362.5t-149.5 362.5t-362.5 149.5t-362.5 -149.5t-149.5 -362.5zM1055 358q0 256 256 256t256 -256t-256 -256t-256 256z" />
<glyph unicode="a" d="M31 870q0 213 149.5 362.5t362.5 149.5v-1024q-213 0 -362.5 149.5t-149.5 362.5zM799 358v1024l512 256v-1536zM1567 741v258h512v-258h-512z" />
<glyph unicode="b" d="M31 -283v1153h2048v-1153q0 -51 -38 -89t-91 -38h-1790q-53 0 -91 38t-38 89zM31 1126v512h768v-256h1280v-256h-2048z" />
<glyph unicode="c" d="M31 -410v1536h512v512h1536v-1536h-512v-512h-1536zM287 -154h1024v256h-768v512h-256v-768zM799 358h1024v768h-1024v-768z" />
<glyph unicode="d" d="M31 1126v256h256h256q0 106 74.5 181t181.5 75h512q106 0 181 -74.5t75 -181.5h256h256v-256h-256v-1151q0 -160 -113 -272.5t-272 -112.5h-766q-160 0 -272.5 113t-112.5 272v1151h-256zM672 230.5q0 -52.5 36.5 -90.5t90 -38t90.5 38t37 90.5t-37 90t-90.5 37.5 t-90 -37.5t-36.5 -90zM672 742.5q0 -52.5 36.5 -90.5t90 -38t90.5 38t37 90.5t-37 90t-90.5 37.5t-90 -37.5t-36.5 -90zM1184 230.5q0 -52.5 36.5 -90.5t90 -38t90.5 38t37 90.5t-37 90t-90.5 37.5t-90 -37.5t-36.5 -90zM1184 742.5q0 -52.5 36.5 -90.5t90 -38t90.5 38 t37 90.5t-37 90t-90.5 37.5t-90 -37.5t-36.5 -90z" />
<glyph unicode="e" d="M31 -410v2048h1382l666 -659v-1389l-512 424l-512 -424l-514 426zM1184 741h639l-639 641v-641z" />
<glyph unicode="f" d="M31 870q0 213 149.5 362.5t362.5 149.5v-1024q-213 0 -362.5 149.5t-149.5 362.5zM799 358v1024l512 256v-1536zM1567 358v256q31 0 63 9q86 20 139.5 89.5t53.5 157.5t-54.5 157t-138.5 91q-31 8 -63 8v256q63 0 125 -16q172 -43 279.5 -181t107.5 -314.5t-107.5 -314.5 t-277.5 -181q-66 -17 -127 -17z" />
<glyph unicode="g" d="M31 741v770q0 51 37.5 89t91.5 38h1536q51 0 89 -37.5t38 -89.5v-129h256v-512h-256v-129q0 -51 -38 -89t-89 -38h-1536q-53 0 -91 38t-38 89z" />
<glyph unicode="h" d="M31 -410l389 592q-135 197 -135 434q0 209 102 386.5t279.5 279.5t386.5 102q14 0 40.5 -3t28.5 -5q68 119 185.5 190.5t259.5 71.5q211 0 361.5 -150.5t150.5 -361.5q0 -141 -72 -259.5t-192 -186.5q0 -2 3 -26.5t3 -37.5q0 -209 -102.5 -386t-279.5 -279.5t-386 -102.5 q-233 0 -428 129zM541 616.5q0 -210.5 150.5 -361.5t361.5 -151t361.5 149.5t150.5 360.5q-61 0 -131 21l-203 -201q-74 -76 -180.5 -76t-181 75t-74.5 181.5t75 180.5l203 204q-18 70 -18 127v2h-1q-212 0 -362.5 -150.5t-150.5 -361zM1311 1126.5q0 -106.5 74.5 -181.5 t181 -75t181.5 75t75 181.5t-75 181t-181.5 74.5t-181 -74.5t-74.5 -181z" />
<glyph unicode="i" d="M31 741v770q0 51 37.5 89t91.5 38h1536q51 0 89 -37.5t38 -89.5v-129h256v-512h-256v-129q0 -51 -38 -89t-89 -38h-1536q-53 0 -91 38t-38 89zM1055 870h512v512h-512v-512z" />
<glyph unicode="j" d="M31 102l166 -165l421 421l181 -180l-422 -422l166 -166h-512v512zM31 1126v512h512l-166 -165l422 -422l-181 -181l-421 422zM1311 178l180 180l422 -421l166 165v-512h-512l166 166zM1311 1051l422 422l-166 165h512v-512l-166 166l-422 -422z" />
<glyph unicode="k" d="M31 358l293 -292l294 292l181 -180l-293 -295l293 -293h-768v768zM31 870v768h768l-293 -292l291 -291l-183 -183l-290 291zM1311 178l180 180l295 -292l293 292v-768h-768l293 293zM1311 1638h768v-768l-293 293l-291 -291l-182 183l291 291z" />
<glyph unicode="l" d="M31 -410v2048l1536 -1024zM1567 -154v1536h512v-1536h-512z" />
<glyph unicode="m" d="M31 -154v1536h512v-1536h-512zM543 614l1536 1024v-2048z" />
<glyph unicode="n" d="M31 102h2046v-512h-2046v512zM31 358l1024 1280l1024 -1280h-2048z" />
<glyph unicode="o" d="M31 -410v2048h2048v-2048h-2048z" />
<glyph unicode="p" d="M31 -410v2048h512v-2048h-512zM1055 -410v2048h512v-2048h-512z" />
<glyph unicode="q" d="M31 614.5q0 278.5 137 514t372.5 372.5t514 137t514 -137t373 -372.5t137.5 -514t-137.5 -514t-373 -373t-514 -137.5t-514 137.5t-372.5 373t-137 514zM672 102l1024 512l-1024 512v-1024z" />
<glyph unicode="r" d="M31 -410v2048l1536 -1024z" />
<glyph unicode="s" d="M31 -27h258q12 252 186 426l723 719q113 113 113 273v247h256v-247q0 -266 -189 -453l-723 -721q-100 -98 -110 -244h254l-385 -383zM1055 -25h254q-12 143 -111 242l-143 143l182 181l141 -142q174 -174 187 -426v2h258l-385 -385z" />
<glyph unicode="t" d="M31 870q0 211 150.5 361.5t361.5 150.5q18 0 67 -6q68 119 185.5 190.5t259.5 71.5q139 0 255.5 -71.5t186.5 -190.5q53 6 70 6q211 0 361.5 -150.5t150.5 -361.5t-150.5 -361.5t-361.5 -150.5h-1024q-211 0 -361.5 150.5t-150.5 361.5zM287 870q0 -106 74.5 -181 t181.5 -75h1024q106 0 181 75t75 181.5t-75 181t-181.5 74.5t-181 -74.5t-74.5 -181.5h-256q0 123 55 229.5t150 178.5q-78 104 -205 104q-106 0 -181 -74.5t-75 -181.5q0 -47 16 -90l-240 -88q-31 82 -32 174q-100 -2 -178 -76t-78 -176zM672 -25l383 383l383 -383h-254 v-385h-256v385h-256z" />
<glyph unicode="u" d="M31 1253l383 385v-256h385l-127 -129l127 -127h-385v-256zM1311 1126l125 127l-125 129h383v256l385 -385l-385 -383v256h-383z" />
<glyph unicode="v" d="M31 614.5q0 278.5 137 514t372.5 372.5t514 137t514 -137t373 -372.5t137.5 -514t-137.5 -514t-373 -373t-514 -137.5t-514 137.5t-372.5 373t-137 514zM287 614.5q0 -317.5 225 -543t542.5 -225.5t543 225.5t225.5 543t-225.5 542.5t-543 225t-542.5 -225t-225 -542.5z M543 102l329 557q-7 -28 -7 -54q0 -72 55 -126q56 -56 128 -56q29 0 60 9zM1010 797l557 329l-330 -565q9 31 9 60q0 73 -56 129q-54 54 -126 54q-26 0 -54 -7z" />
<glyph unicode="w" d="M31 -117q121 0 207 -86t86 -207h-293v293zM31 176v293q238 0 440.5 -118t320 -320.5t117.5 -440.5h-293q0 242 -171.5 414t-413.5 172zM31 760v293q297 0 568 -116t467 -311.5t311.5 -467t115.5 -568.5h-293q0 238 -92 455t-249 373.5t-373.5 249t-454.5 92.5zM31 1346 v292q416 0 794.5 -162.5t653 -437t437.5 -653.5t163 -795h-293q0 238 -63.5 465.5t-176 420t-275.5 355t-354.5 275.5t-419.5 176.5t-466 63.5z" />
<glyph unicode="x" d="M31 1126q0 512 512 512t512 -512t-512 -512t-512 512zM287 406q133 -47 256 -47.5t256 47.5v-816l-256 256l-256 -256v816z" />
<glyph unicode="y" d="M31 742.5q0 52.5 37.5 90t91.5 37.5q45 0 78.5 -28.5t42.5 -71.5l309 -104q49 94 139 149t199 55q121 0 221 -71l457 456q-39 66 -39 127q0 106 74.5 181t181 75t181.5 -74.5t75 -181t-75 -181.5t-181 -75q-61 0 -127 39l-457 -456q72 -100 72 -222q0 -86 -39 -168 l389 -278q76 61 162 61q106 0 181 -74.5t75 -181t-75 -181.5t-181.5 -75t-181 75t-74.5 181q0 43 18 91l-387 278q-113 -113 -270 -113q-160 0 -272.5 113t-112.5 272q0 18 6 58l-307 102q-37 -33 -82 -33q-53 0 -91 38t-38 90.5z" />
<glyph unicode="z" d="M31 614.5q0 278.5 137 514t372.5 372.5t514 137t514 -137t373 -372.5t137.5 -514t-137.5 -514t-373 -373t-514 -137.5t-514 137.5t-372.5 373t-137 514zM414 614l258 -256v129h766v-129l258 256l-258 256v-129h-766v129z" />
<glyph unicode="{" d="M31 -25h256v383h256v-383h256l-385 -385zM31 1253l383 385l385 -385h-256v-383h-256v383h-256z" />
<glyph unicode="|" d="M31 614v768h256v-340l358 359q156 156 375 211t438 -0.5t375 -210.5q119 -119 182.5 -272.5t63.5 -322.5t-63.5 -321.5t-182.5 -273.5l-193 -193l-182 183l193 192q172 172 172 414t-172 412q-106 109 -259 147.5t-305.5 -0.5t-261.5 -147l-348 -349h322v-256h-768z M1030 -227l182 180l181 -182l-183 -181z" />
<glyph unicode="}" d="M31 102v1409q0 51 37.5 89t91.5 38h766q53 0 91 -37.5t38 -89.5v-1409q0 -213 -149.5 -362.5t-362.5 -149.5t-362.5 149.5t-149.5 362.5zM287 614h129q0 53 38 90t91 37t91 -36.5t38 -90.5h125v768h-512v-768zM543 230.5q0 -52.5 37.5 -90.5t90 -38t90.5 38t38 90.5 t-38 90t-90.5 37.5t-90 -37.5t-37.5 -90z" />
<glyph unicode="~" d="M31 614.5q0 278.5 137 514t372.5 372.5t514 137t514 -137t373 -372.5t137.5 -514t-137.5 -514t-373 -373t-514 -137.5t-514 137.5t-372.5 373t-137 514zM287 614q0 -283 182 -495.5t457 -259.5q-2 207 -88 380t-232.5 274t-318.5 101zM334 870h1442q-80 227 -278 369.5 t-443.5 142.5t-443 -142.5t-277.5 -369.5zM926 614.5q0 -53.5 37.5 -90.5t91 -37t91.5 37t38 90.5t-38 90t-91.5 36.5t-91 -36.5t-37.5 -90zM1184 -141q274 47 456.5 260t182.5 495q-172 0 -318.5 -101t-232.5 -274t-88 -380z" />
<glyph unicode="&#xa0;" d="M31 468q0 239 117.5 440.5t319.5 319.5t441 118h172l-86 86l207 206l440 -438l-440 -440l-207 207l86 84l-172 2q-244 0 -414.5 -171t-170.5 -414t171 -414t413.5 -171t413.5 171t171 415h293q0 -240 -118 -441.5t-319.5 -319.5t-440 -118t-440.5 118t-319.5 319.5 t-117.5 440.5z" />
<glyph unicode="&#xaa;" d="M31 870q0 213 149.5 362.5t362.5 149.5v-1024q-213 0 -362.5 149.5t-149.5 362.5zM799 358v1024l512 256v-1536zM1567 741v258h512v-258h-512z" />
<glyph unicode="&#xad;" d="M31 754l364 364l400 -399l919 919l365 -364l-1284 -1284z" />
<glyph unicode="&#xb2;" d="M31 102l780 781q-12 63 -12 116q0 264 187.5 451.5t452.5 187.5t452.5 -187t187.5 -452.5t-187.5 -453t-453.5 -187.5q-51 0 -115 13l-12 -13v-256h-256v-256h-256v-256h-768v512zM1311 998.5q0 -52.5 37.5 -90.5t91 -38t90.5 38t37 90.5t-37 90t-90.5 37.5t-91 -37.5 t-37.5 -90z" />
<glyph unicode="&#xb3;" d="M31 -410l895 768l-383 256l1536 1024l-895 -1024l383 -256z" />
<glyph unicode="&#xb9;" d="M31 -31q0 51 37 86q20 23 107 66t164 76.5t77 31.5q-127 -299 -174 -346q-37 -37 -88.5 -37t-87 36t-35.5 87zM31 870q0 211 150.5 361.5t361.5 150.5q20 0 67 -6q68 119 185.5 190.5t259.5 71.5q139 0 255.5 -71.5t186.5 -190.5q51 6 70 6q211 0 361.5 -150.5 t150.5 -361.5t-150.5 -361.5t-361.5 -150.5h-1024q-211 0 -361.5 150.5t-150.5 361.5zM287 870q0 -106 74.5 -181t181.5 -75h1024q106 0 181 75t75 181.5t-75 181t-181.5 74.5t-181 -74.5t-74.5 -181.5h-256q0 123 55 229.5t150 178.5q-78 104 -205 104q-106 0 -181 -74.5 t-75 -181.5q0 -47 16 -90l-240 -88q-31 82 -32 174q-100 -2 -178 -76t-78 -176zM543 -31q0 51 37 86q47 49 348 174q-127 -299 -174 -346q-37 -37 -88.5 -37t-87 36t-35.5 87zM1055 -31q0 51 37 86q47 49 346 174q-125 -299 -172 -346q-37 -37 -88.5 -37t-87 36t-35.5 87z " />
<glyph unicode="&#xba;" d="M31 -410v2048h2048v-2048h-2048z" />
<glyph unicode="&#xc0;" d="M-186 1761v1280q0 106 74.5 181t181.5 75h512l219 424q12 39 46 63.5t75 24.5h352q41 0 74.5 -24.5t46.5 -61.5l211 -426q106 0 181 -74.5t75 -181.5v-1280h-2048zM70 2913.5q0 -52.5 37.5 -90.5t90 -38t90.5 38t38 90.5t-38 90t-90.5 37.5t-90 -37.5t-37.5 -90z M582 2529q0 -213 149.5 -362.5t362.5 -149.5t362.5 149.5t149.5 362.5t-149.5 362.5t-362.5 149.5t-362.5 -149.5t-149.5 -362.5zM838 2529q0 256 256 256t256 -256t-256 -256t-256 256zM31 741v770q0 51 37.5 89t91.5 38h1536q51 0 89 -37.5t38 -89.5v-129h256v-512h-256 v-129q0 -51 -38 -89t-89 -38h-1536q-53 0 -91 38t-38 89zM287 870h1280v512h-1280v-512z" />
<glyph unicode="&#xc2;" d="M-925 2786q0 344 217 624q35 -29 76 -28q53 0 90 37.5t37 91.5q0 39 -27 75q221 176 506 213q4 -49 40 -82.5t85 -33.5t85 32.5t40 81.5q279 -35 501 -206q-31 -37 -30 -80q0 -53 37.5 -91t91.5 -38q41 0 78 30q221 -279 221 -626q0 -207 -81 -397.5t-218.5 -327 t-326.5 -218t-398 -81.5t-398.5 81.5t-326.5 218t-218 327t-81 397.5zM-413 2787q0 -212 149.5 -362.5t362.5 -150.5t362.5 150.5t149.5 362.5t-152 361l-360 363l-363 -363q-149 -149 -149 -361zM-157 2786q0 256 256 256t256 -256t-256 -256t-256 256zM31 741v770 q0 51 37.5 89t91.5 38h1536q51 0 89 -37.5t38 -89.5v-129h256v-512h-256v-129q0 -51 -38 -89t-89 -38h-1536q-53 0 -91 38t-38 89zM287 870h1280v512h-1280v-512z" />
<glyph unicode="&#xc3;" d="M-921 2785.5q0 278.5 137 514t372.5 372.5t514 137t514 -137t373 -372.5t137.5 -514t-137.5 -514t-373 -373t-514 -137.5t-514 137.5t-372.5 373t-137 514zM-665 2785q0 -283 182 -495.5t457 -259.5q-2 207 -88 380t-232.5 274t-318.5 101zM-618 3041h1442 q-80 227 -278 369.5t-443.5 142.5t-443 -142.5t-277.5 -369.5zM-26 2785.5q0 -53.5 37.5 -90.5t91 -37t91.5 37t38 90.5t-38 90t-91.5 36.5t-91 -36.5t-37.5 -90zM232 2030q274 47 456.5 260t182.5 495q-172 0 -318.5 -101t-232.5 -274t-88 -380zM31 741v770q0 51 37.5 89 t91.5 38h1536q51 0 89 -37.5t38 -89.5v-129h256v-512h-256v-129q0 -51 -38 -89t-89 -38h-1536q-53 0 -91 38t-38 89zM287 870h1280v512h-1280v-512z" />
<glyph unicode="&#xc8;" d="M-59 1761v1280q0 106 74.5 181t181.5 75h512l219 424q12 39 46 63.5t75 24.5h352q41 0 74.5 -24.5t46.5 -61.5l211 -426q106 0 181 -74.5t75 -181.5v-1280h-2048zM197 2913.5q0 -52.5 37.5 -90.5t90 -38t90.5 38t38 90.5t-38 90t-90.5 37.5t-90 -37.5t-37.5 -90z M709 2529q0 -213 149.5 -362.5t362.5 -149.5t362.5 149.5t149.5 362.5t-149.5 362.5t-362.5 149.5t-362.5 -149.5t-149.5 -362.5zM965 2529q0 256 256 256t256 -256t-256 -256t-256 256zM31 -154v1536q0 106 74.5 181t181.5 75h1536v-2048h-1536q-106 0 -181 75t-75 181z M543 -154h1024v1536h-256v-516l-258 258l-254 -256v514h-256v-1536z" />
<glyph unicode="&#xca;" d="M-798 2786q0 344 217 624q35 -29 76 -28q53 0 90 37.5t37 91.5q0 39 -27 75q221 176 506 213q4 -49 40 -82.5t85 -33.5t85 32.5t40 81.5q279 -35 501 -206q-31 -37 -30 -80q0 -53 37.5 -91t91.5 -38q41 0 78 30q221 -279 221 -626q0 -207 -81 -397.5t-218.5 -327 t-326.5 -218t-398 -81.5t-398.5 81.5t-326.5 218t-218 327t-81 397.5zM-286 2787q0 -212 149.5 -362.5t362.5 -150.5t362.5 150.5t149.5 362.5t-152 361l-360 363l-363 -363q-149 -149 -149 -361zM-30 2786q0 256 256 256t256 -256t-256 -256t-256 256zM31 -154v1536 q0 106 74.5 181t181.5 75h1536v-2048h-1536q-106 0 -181 75t-75 181zM543 -154h1024v1536h-256v-516l-258 258l-254 -256v514h-256v-1536z" />
<glyph unicode="&#xcc;" d="M-315 1761v1280q0 106 74.5 181t181.5 75h512l219 424q12 39 46 63.5t75 24.5h352q41 0 74.5 -24.5t46.5 -61.5l211 -426q106 0 181 -74.5t75 -181.5v-1280h-2048zM-59 2913.5q0 -52.5 37.5 -90.5t90 -38t90.5 38t38 90.5t-38 90t-90.5 37.5t-90 -37.5t-37.5 -90z M453 2529q0 -213 149.5 -362.5t362.5 -149.5t362.5 149.5t149.5 362.5t-149.5 362.5t-362.5 149.5t-362.5 -149.5t-149.5 -362.5zM709 2529q0 256 256 256t256 -256t-256 -256t-256 256zM31 1126q0 135 43 237.5t117.5 161t162.5 86t189 27.5h512q98 0 188 -30.5t163 -91 t117 -162t44 -228.5v-256q100 0 188 -27.5t163 -86t118 -160.5t43 -238q0 -133 -43 -234t-118 -160.5t-163 -88.5t-188 -29h-256q-106 0 -181 -74.5t-75 -181.5q-213 0 -362.5 149.5t-149.5 362.5v256q0 141 59 256h-59q-100 0 -188.5 29t-163 88.5t-117.5 160.5t-43 234z M287 1126q0 -256 256 -256h256q123 0 230.5 -55t178.5 -149q102 76 103 204v256q0 78 -25.5 133.5t-67.5 80t-81 33.5t-82 9h-512q-74 0 -125 -20.5t-76 -46t-38 -67.5t-15 -64.5t-2 -57.5zM799 102q0 -127 102 -204q72 94 179.5 149t230.5 55h256q72 0 124 21.5t76.5 49.5 t38 70t15.5 63.5t2 51.5q0 35 -2 57.5t-15.5 64.5t-38 67.5t-77 46t-123.5 20.5h-72q-68 -117 -184.5 -186.5t-255.5 -69.5q0 72 -38 132.5t-102 93.5q-117 -74 -116 -226v-256zM1544 725q0 2 2 8t2 10q0 -4 -2 -10t-2 -8z" />
<glyph unicode="&#xce;" d="M-1054 2786q0 344 217 624q35 -29 76 -28q53 0 90 37.5t37 91.5q0 39 -27 75q221 176 506 213q4 -49 40 -82.5t85 -33.5t85 32.5t40 81.5q279 -35 501 -206q-31 -37 -30 -80q0 -53 37.5 -91t91.5 -38q41 0 78 30q221 -279 221 -626q0 -207 -81 -397.5t-218.5 -327 t-326.5 -218t-398 -81.5t-398.5 81.5t-326.5 218t-218 327t-81 397.5zM-542 2787q0 -212 149.5 -362.5t362.5 -150.5t362.5 150.5t149.5 362.5t-152 361l-360 363l-363 -363q-149 -149 -149 -361zM-286 2786q0 256 256 256t256 -256t-256 -256t-256 256zM31 1126 q0 135 43 237.5t117.5 161t162.5 86t189 27.5h512q98 0 188 -30.5t163 -91t117 -162t44 -228.5v-256q100 0 188 -27.5t163 -86t118 -160.5t43 -238q0 -133 -43 -234t-118 -160.5t-163 -88.5t-188 -29h-256q-106 0 -181 -74.5t-75 -181.5q-213 0 -362.5 149.5t-149.5 362.5 v256q0 141 59 256h-59q-100 0 -188.5 29t-163 88.5t-117.5 160.5t-43 234zM287 1126q0 -256 256 -256h256q123 0 230.5 -55t178.5 -149q102 76 103 204v256q0 78 -25.5 133.5t-67.5 80t-81 33.5t-82 9h-512q-74 0 -125 -20.5t-76 -46t-38 -67.5t-15 -64.5t-2 -57.5zM799 102 q0 -127 102 -204q72 94 179.5 149t230.5 55h256q72 0 124 21.5t76.5 49.5t38 70t15.5 63.5t2 51.5q0 35 -2 57.5t-15.5 64.5t-38 67.5t-77 46t-123.5 20.5h-72q-68 -117 -184.5 -186.5t-255.5 -69.5q0 72 -38 132.5t-102 93.5q-117 -74 -116 -226v-256zM1544 725q0 2 2 8 t2 10q0 -4 -2 -10t-2 -8z" />
<glyph unicode="&#xd1;" d="M-794 2785.5q0 278.5 137 514t372.5 372.5t514 137t514 -137t373 -372.5t137.5 -514t-137.5 -514t-373 -373t-514 -137.5t-514 137.5t-372.5 373t-137 514zM-538 2785q0 -283 182 -495.5t457 -259.5q-2 207 -88 380t-232.5 274t-318.5 101zM-491 3041h1442 q-80 227 -278 369.5t-443.5 142.5t-443 -142.5t-277.5 -369.5zM101 2785.5q0 -53.5 37.5 -90.5t91 -37t91.5 37t38 90.5t-38 90t-91.5 36.5t-91 -36.5t-37.5 -90zM359 2030q274 47 456.5 260t182.5 495q-172 0 -318.5 -101t-232.5 -274t-88 -380zM31 614.5q0 278.5 137 514 t372.5 372.5t514 137t514 -137t373 -372.5t137.5 -514t-137.5 -514t-373 -373t-514 -137.5t-514 137.5t-372.5 373t-137 514zM287 614.5q0 -317.5 225 -543t542.5 -225.5t543 225.5t225.5 543t-225.5 542.5t-543 225t-542.5 -225t-225 -542.5zM926 614v512h258v-458 l217 -219l-180 -181l-250 252q-45 39 -45 94z" />
<glyph unicode="&#xd2;" d="M-123 1761v1280q0 106 74.5 181t181.5 75h512l219 424q12 39 46 63.5t75 24.5h352q41 0 74.5 -24.5t46.5 -61.5l211 -426q106 0 181 -74.5t75 -181.5v-1280h-2048zM133 2913.5q0 -52.5 37.5 -90.5t90 -38t90.5 38t38 90.5t-38 90t-90.5 37.5t-90 -37.5t-37.5 -90z M645 2529q0 -213 149.5 -362.5t362.5 -149.5t362.5 149.5t149.5 362.5t-149.5 362.5t-362.5 149.5t-362.5 -149.5t-149.5 -362.5zM901 2529q0 256 256 256t256 -256t-256 -256t-256 256zM31 358v641q0 264 187.5 451.5t453.5 187.5h639q317 0 542.5 -225t225.5 -542.5 t-225.5 -543t-542.5 -225.5h-512q-106 0 -181 -74.5t-75 -181.5q-211 0 -361.5 149.5t-150.5 362.5z" />
<glyph unicode="&#xd4;" d="M-862 2786q0 344 217 624q35 -29 76 -28q53 0 90 37.5t37 91.5q0 39 -27 75q221 176 506 213q4 -49 40 -82.5t85 -33.5t85 32.5t40 81.5q279 -35 501 -206q-31 -37 -30 -80q0 -53 37.5 -91t91.5 -38q41 0 78 30q221 -279 221 -626q0 -207 -81 -397.5t-218.5 -327 t-326.5 -218t-398 -81.5t-398.5 81.5t-326.5 218t-218 327t-81 397.5zM-350 2787q0 -212 149.5 -362.5t362.5 -150.5t362.5 150.5t149.5 362.5t-152 361l-360 363l-363 -363q-149 -149 -149 -361zM-94 2786q0 256 256 256t256 -256t-256 -256t-256 256zM31 358v641 q0 264 187.5 451.5t453.5 187.5h639q317 0 542.5 -225t225.5 -542.5t-225.5 -543t-542.5 -225.5h-512q-106 0 -181 -74.5t-75 -181.5q-211 0 -361.5 149.5t-150.5 362.5z" />
<glyph unicode="&#xd5;" d="M-858 2785.5q0 278.5 137 514t372.5 372.5t514 137t514 -137t373 -372.5t137.5 -514t-137.5 -514t-373 -373t-514 -137.5t-514 137.5t-372.5 373t-137 514zM-602 2785q0 -283 182 -495.5t457 -259.5q-2 207 -88 380t-232.5 274t-318.5 101zM-555 3041h1442 q-80 227 -278 369.5t-443.5 142.5t-443 -142.5t-277.5 -369.5zM37 2785.5q0 -53.5 37.5 -90.5t91 -37t91.5 37t38 90.5t-38 90t-91.5 36.5t-91 -36.5t-37.5 -90zM295 2030q274 47 456.5 260t182.5 495q-172 0 -318.5 -101t-232.5 -274t-88 -380zM31 358v641 q0 264 187.5 451.5t453.5 187.5h639q317 0 542.5 -225t225.5 -542.5t-225.5 -543t-542.5 -225.5h-512q-106 0 -181 -74.5t-75 -181.5q-211 0 -361.5 149.5t-150.5 362.5z" />
<glyph unicode="&#xd9;" d="M-59 1761v1280q0 106 74.5 181t181.5 75h512l219 424q12 39 46 63.5t75 24.5h352q41 0 74.5 -24.5t46.5 -61.5l211 -426q106 0 181 -74.5t75 -181.5v-1280h-2048zM197 2913.5q0 -52.5 37.5 -90.5t90 -38t90.5 38t38 90.5t-38 90t-90.5 37.5t-90 -37.5t-37.5 -90z M709 2529q0 -213 149.5 -362.5t362.5 -149.5t362.5 149.5t149.5 362.5t-149.5 362.5t-362.5 149.5t-362.5 -149.5t-149.5 -362.5zM965 2529q0 256 256 256t256 -256t-256 -256t-256 256zM31 -410v2048h256l258 -258l-260 -254h256l262 258l-256 254h362l258 -258l-260 -254 h301l262 258l-256 254h357l252 -258l-254 -254h252l258 256l-252 256h252v-2048h-2048zM287 104v-256h1536v256h-1536zM287 358h1536v256h-1536v-256z" />
<glyph unicode="&#xdb;" d="M-798 2786q0 344 217 624q35 -29 76 -28q53 0 90 37.5t37 91.5q0 39 -27 75q221 176 506 213q4 -49 40 -82.5t85 -33.5t85 32.5t40 81.5q279 -35 501 -206q-31 -37 -30 -80q0 -53 37.5 -91t91.5 -38q41 0 78 30q221 -279 221 -626q0 -207 -81 -397.5t-218.5 -327 t-326.5 -218t-398 -81.5t-398.5 81.5t-326.5 218t-218 327t-81 397.5zM-286 2787q0 -212 149.5 -362.5t362.5 -150.5t362.5 150.5t149.5 362.5t-152 361l-360 363l-363 -363q-149 -149 -149 -361zM-30 2786q0 256 256 256t256 -256t-256 -256t-256 256zM31 -410v2048h256 l258 -258l-260 -254h256l262 258l-256 254h362l258 -258l-260 -254h301l262 258l-256 254h357l252 -258l-254 -254h252l258 256l-252 256h252v-2048h-2048zM287 104v-256h1536v256h-1536zM287 358h1536v256h-1536v-256z" />
<glyph unicode="&#xe0;" d="M197 1761v1280q0 106 74.5 181t181.5 75h512l219 424q12 39 46 63.5t75 24.5h352q41 0 74.5 -24.5t46.5 -61.5l211 -426q106 0 181 -74.5t75 -181.5v-1280h-2048zM453 2913.5q0 -52.5 37.5 -90.5t90 -38t90.5 38t38 90.5t-38 90t-90.5 37.5t-90 -37.5t-37.5 -90z M965 2529q0 -213 149.5 -362.5t362.5 -149.5t362.5 149.5t149.5 362.5t-149.5 362.5t-362.5 149.5t-362.5 -149.5t-149.5 -362.5zM1221 2529q0 256 256 256t256 -256t-256 -256t-256 256zM31 870q0 213 149.5 362.5t362.5 149.5v-1024q-213 0 -362.5 149.5t-149.5 362.5z M799 358v1024l512 256v-1536zM1567 741v258h512v-258h-512z" />
<glyph unicode="&#xe2;" d="M-542 2786q0 344 217 624q35 -29 76 -28q53 0 90 37.5t37 91.5q0 39 -27 75q221 176 506 213q4 -49 40 -82.5t85 -33.5t85 32.5t40 81.5q279 -35 501 -206q-31 -37 -30 -80q0 -53 37.5 -91t91.5 -38q41 0 78 30q221 -279 221 -626q0 -207 -81 -397.5t-218.5 -327 t-326.5 -218t-398 -81.5t-398.5 81.5t-326.5 218t-218 327t-81 397.5zM-30 2787q0 -212 149.5 -362.5t362.5 -150.5t362.5 150.5t149.5 362.5t-152 361l-360 363l-363 -363q-149 -149 -149 -361zM226 2786q0 256 256 256t256 -256t-256 -256t-256 256zM31 870 q0 213 149.5 362.5t362.5 149.5v-1024q-213 0 -362.5 149.5t-149.5 362.5zM799 358v1024l512 256v-1536zM1567 741v258h512v-258h-512z" />
<glyph unicode="&#xe3;" d="M-538 2785.5q0 278.5 137 514t372.5 372.5t514 137t514 -137t373 -372.5t137.5 -514t-137.5 -514t-373 -373t-514 -137.5t-514 137.5t-372.5 373t-137 514zM-282 2785q0 -283 182 -495.5t457 -259.5q-2 207 -88 380t-232.5 274t-318.5 101zM-235 3041h1442 q-80 227 -278 369.5t-443.5 142.5t-443 -142.5t-277.5 -369.5zM357 2785.5q0 -53.5 37.5 -90.5t91 -37t91.5 37t38 90.5t-38 90t-91.5 36.5t-91 -36.5t-37.5 -90zM615 2030q274 47 456.5 260t182.5 495q-172 0 -318.5 -101t-232.5 -274t-88 -380zM31 870q0 213 149.5 362.5 t362.5 149.5v-1024q-213 0 -362.5 149.5t-149.5 362.5zM799 358v1024l512 256v-1536zM1567 741v258h512v-258h-512z" />
<glyph unicode="&#xe8;" d="M-391 1761v1280q0 106 74.5 181t181.5 75h512l219 424q12 39 46 63.5t75 24.5h352q41 0 74.5 -24.5t46.5 -61.5l211 -426q106 0 181 -74.5t75 -181.5v-1280h-2048zM-135 2913.5q0 -52.5 37.5 -90.5t90 -38t90.5 38t38 90.5t-38 90t-90.5 37.5t-90 -37.5t-37.5 -90z M377 2529q0 -213 149.5 -362.5t362.5 -149.5t362.5 149.5t149.5 362.5t-149.5 362.5t-362.5 149.5t-362.5 -149.5t-149.5 -362.5zM633 2529q0 256 256 256t256 -256t-256 -256t-256 256zM31 -410v2048h1382l666 -659v-1389l-512 424l-512 -424l-514 426zM1184 741h639 l-639 641v-641z" />
<glyph unicode="&#xea;" d="M-1132 2786q0 344 217 624q35 -29 76 -28q53 0 90 37.5t37 91.5q0 39 -27 75q221 176 506 213q4 -49 40 -82.5t85 -33.5t85 32.5t40 81.5q279 -35 501 -206q-31 -37 -30 -80q0 -53 37.5 -91t91.5 -38q41 0 78 30q221 -279 221 -626q0 -207 -81 -397.5t-218.5 -327 t-326.5 -218t-398 -81.5t-398.5 81.5t-326.5 218t-218 327t-81 397.5zM-620 2787q0 -212 149.5 -362.5t362.5 -150.5t362.5 150.5t149.5 362.5t-152 361l-360 363l-363 -363q-149 -149 -149 -361zM-364 2786q0 256 256 256t256 -256t-256 -256t-256 256zM31 -410v2048h1382 l666 -659v-1389l-512 424l-512 -424l-514 426zM1184 741h639l-639 641v-641z" />
<glyph unicode="&#xec;" d="M-186 1761v1280q0 106 74.5 181t181.5 75h512l219 424q12 39 46 63.5t75 24.5h352q41 0 74.5 -24.5t46.5 -61.5l211 -426q106 0 181 -74.5t75 -181.5v-1280h-2048zM70 2913.5q0 -52.5 37.5 -90.5t90 -38t90.5 38t38 90.5t-38 90t-90.5 37.5t-90 -37.5t-37.5 -90z M582 2529q0 -213 149.5 -362.5t362.5 -149.5t362.5 149.5t149.5 362.5t-149.5 362.5t-362.5 149.5t-362.5 -149.5t-149.5 -362.5zM838 2529q0 256 256 256t256 -256t-256 -256t-256 256zM31 741v770q0 51 37.5 89t91.5 38h1536q51 0 89 -37.5t38 -89.5v-129h256v-512h-256 v-129q0 -51 -38 -89t-89 -38h-1536q-53 0 -91 38t-38 89zM1055 870h512v512h-512v-512z" />
<glyph unicode="&#xee;" d="M-925 2786q0 344 217 624q35 -29 76 -28q53 0 90 37.5t37 91.5q0 39 -27 75q221 176 506 213q4 -49 40 -82.5t85 -33.5t85 32.5t40 81.5q279 -35 501 -206q-31 -37 -30 -80q0 -53 37.5 -91t91.5 -38q41 0 78 30q221 -279 221 -626q0 -207 -81 -397.5t-218.5 -327 t-326.5 -218t-398 -81.5t-398.5 81.5t-326.5 218t-218 327t-81 397.5zM-413 2787q0 -212 149.5 -362.5t362.5 -150.5t362.5 150.5t149.5 362.5t-152 361l-360 363l-363 -363q-149 -149 -149 -361zM-157 2786q0 256 256 256t256 -256t-256 -256t-256 256zM31 741v770 q0 51 37.5 89t91.5 38h1536q51 0 89 -37.5t38 -89.5v-129h256v-512h-256v-129q0 -51 -38 -89t-89 -38h-1536q-53 0 -91 38t-38 89zM1055 870h512v512h-512v-512z" />
<glyph unicode="&#xf1;" d="M-1992 2785.5q0 278.5 137 514t372.5 372.5t514 137t514 -137t373 -372.5t137.5 -514t-137.5 -514t-373 -373t-514 -137.5t-514 137.5t-372.5 373t-137 514zM-1736 2785q0 -283 182 -495.5t457 -259.5q-2 207 -88 380t-232.5 274t-318.5 101zM-1689 3041h1442 q-80 227 -278 369.5t-443.5 142.5t-443 -142.5t-277.5 -369.5zM-1097 2785.5q0 -53.5 37.5 -90.5t91 -37t91.5 37t38 90.5t-38 90t-91.5 36.5t-91 -36.5t-37.5 -90zM-839 2030q274 47 456.5 260t182.5 495q-172 0 -318.5 -101t-232.5 -274t-88 -380zM31 102h2046v-512h-2046 v512zM31 358l1024 1280l1024 -1280h-2048z" />
<glyph unicode="&#xf2;" d="M-59 1761v1280q0 106 74.5 181t181.5 75h512l219 424q12 39 46 63.5t75 24.5h352q41 0 74.5 -24.5t46.5 -61.5l211 -426q106 0 181 -74.5t75 -181.5v-1280h-2048zM197 2913.5q0 -52.5 37.5 -90.5t90 -38t90.5 38t38 90.5t-38 90t-90.5 37.5t-90 -37.5t-37.5 -90z M709 2529q0 -213 149.5 -362.5t362.5 -149.5t362.5 149.5t149.5 362.5t-149.5 362.5t-362.5 149.5t-362.5 -149.5t-149.5 -362.5zM965 2529q0 256 256 256t256 -256t-256 -256t-256 256zM31 -410v2048h2048v-2048h-2048z" />
<glyph unicode="&#xf4;" d="M-798 2786q0 344 217 624q35 -29 76 -28q53 0 90 37.5t37 91.5q0 39 -27 75q221 176 506 213q4 -49 40 -82.5t85 -33.5t85 32.5t40 81.5q279 -35 501 -206q-31 -37 -30 -80q0 -53 37.5 -91t91.5 -38q41 0 78 30q221 -279 221 -626q0 -207 -81 -397.5t-218.5 -327 t-326.5 -218t-398 -81.5t-398.5 81.5t-326.5 218t-218 327t-81 397.5zM-286 2787q0 -212 149.5 -362.5t362.5 -150.5t362.5 150.5t149.5 362.5t-152 361l-360 363l-363 -363q-149 -149 -149 -361zM-30 2786q0 256 256 256t256 -256t-256 -256t-256 256zM31 -410v2048h2048 v-2048h-2048z" />
<glyph unicode="&#xf5;" d="M-794 2785.5q0 278.5 137 514t372.5 372.5t514 137t514 -137t373 -372.5t137.5 -514t-137.5 -514t-373 -373t-514 -137.5t-514 137.5t-372.5 373t-137 514zM-538 2785q0 -283 182 -495.5t457 -259.5q-2 207 -88 380t-232.5 274t-318.5 101zM-491 3041h1442 q-80 227 -278 369.5t-443.5 142.5t-443 -142.5t-277.5 -369.5zM101 2785.5q0 -53.5 37.5 -90.5t91 -37t91.5 37t38 90.5t-38 90t-91.5 36.5t-91 -36.5t-37.5 -90zM359 2030q274 47 456.5 260t182.5 495q-172 0 -318.5 -101t-232.5 -274t-88 -380zM31 -410v2048h2048v-2048 h-2048z" />
<glyph unicode="&#xf9;" d="M-59 1761v1280q0 106 74.5 181t181.5 75h512l219 424q12 39 46 63.5t75 24.5h352q41 0 74.5 -24.5t46.5 -61.5l211 -426q106 0 181 -74.5t75 -181.5v-1280h-2048zM197 2913.5q0 -52.5 37.5 -90.5t90 -38t90.5 38t38 90.5t-38 90t-90.5 37.5t-90 -37.5t-37.5 -90z M709 2529q0 -213 149.5 -362.5t362.5 -149.5t362.5 149.5t149.5 362.5t-149.5 362.5t-362.5 149.5t-362.5 -149.5t-149.5 -362.5zM965 2529q0 256 256 256t256 -256t-256 -256t-256 256zM31 1253l383 385v-256h385l-127 -129l127 -127h-385v-256zM1311 1126l125 127 l-125 129h383v256l385 -385l-385 -383v256h-383z" />
<glyph unicode="&#xfb;" d="M-800 2786q0 344 217 624q35 -29 76 -28q53 0 90 37.5t37 91.5q0 39 -27 75q221 176 506 213q4 -49 40 -82.5t85 -33.5t85 32.5t40 81.5q279 -35 501 -206q-31 -37 -30 -80q0 -53 37.5 -91t91.5 -38q41 0 78 30q221 -279 221 -626q0 -207 -81 -397.5t-218.5 -327 t-326.5 -218t-398 -81.5t-398.5 81.5t-326.5 218t-218 327t-81 397.5zM-288 2787q0 -212 149.5 -362.5t362.5 -150.5t362.5 150.5t149.5 362.5t-152 361l-360 363l-363 -363q-149 -149 -149 -361zM-32 2786q0 256 256 256t256 -256t-256 -256t-256 256zM31 1253l383 385 v-256h385l-127 -129l127 -127h-385v-256zM1311 1126l125 127l-125 129h383v256l385 -385l-385 -383v256h-383z" />
<glyph unicode="&#x152;" horiz-adv-x="2048" d="M1055 -154v1536q0 106 74.5 181t181.5 75h1536v-2048h-1536q-106 0 -181 75t-75 181zM1567 -154h1024v1536h-256v-516l-258 258l-254 -256v514h-256v-1536zM31 358v641q0 264 187.5 451.5t453.5 187.5h639q317 0 542.5 -225t225.5 -542.5t-225.5 -543t-542.5 -225.5h-512 q-106 0 -181 -74.5t-75 -181.5q-211 0 -361.5 149.5t-150.5 362.5z" />
<glyph unicode="&#x153;" horiz-adv-x="2048" d="M1055 -410v2048h1382l666 -659v-1389l-512 424l-512 -424l-514 426zM2208 741h639l-639 641v-641zM31 -410v2048h2048v-2048h-2048z" />
<glyph unicode="&#x2c6;" d="M31 625q0 344 217 624q35 -29 76 -28q53 0 90 37.5t37 91.5q0 39 -27 75q221 176 506 213q4 -49 40 -82.5t85 -33.5t85 32.5t40 81.5q279 -35 501 -206q-31 -37 -30 -80q0 -53 37.5 -91t91.5 -38q41 0 78 30q221 -279 221 -626q0 -207 -81 -397.5t-218.5 -327 t-326.5 -218t-398 -81.5t-398.5 81.5t-326.5 218t-218 327t-81 397.5zM543 626q0 -212 149.5 -362.5t362.5 -150.5t362.5 150.5t149.5 362.5t-152 361l-360 363l-363 -363q-149 -149 -149 -361zM799 625q0 256 256 256t256 -256t-256 -256t-256 256z" />
<glyph unicode="&#x2dc;" d="M-1849 1146.5q0 278.5 137 514t372.5 372.5t514 137t514 -137t373 -372.5t137.5 -514t-137.5 -514t-373 -373t-514 -137.5t-514 137.5t-372.5 373t-137 514zM-1593 1146q0 -283 182 -495.5t457 -259.5q-2 207 -88 380t-232.5 274t-318.5 101zM-1546 1402h1442 q-80 227 -278 369.5t-443.5 142.5t-443 -142.5t-277.5 -369.5zM-954 1146.5q0 -53.5 37.5 -90.5t91 -37t91.5 37t38 90.5t-38 90t-91.5 36.5t-91 -36.5t-37.5 -90zM-696 391q274 47 456.5 260t182.5 495q-172 0 -318.5 -101t-232.5 -274t-88 -380z" />
<glyph unicode="&#x2000;" horiz-adv-x="1904" />
<glyph unicode="&#x2001;" horiz-adv-x="3809" />
<glyph unicode="&#x2002;" horiz-adv-x="1904" />
<glyph unicode="&#x2003;" horiz-adv-x="3809" />
<glyph unicode="&#x2004;" horiz-adv-x="1269" />
<glyph unicode="&#x2005;" horiz-adv-x="952" />
<glyph unicode="&#x2006;" horiz-adv-x="634" />
<glyph unicode="&#x2007;" horiz-adv-x="634" />
<glyph unicode="&#x2008;" horiz-adv-x="475" />
<glyph unicode="&#x2009;" horiz-adv-x="761" />
<glyph unicode="&#x200a;" horiz-adv-x="210" />
<glyph unicode="&#x2010;" d="M31 754l364 364l400 -399l919 919l365 -364l-1284 -1284z" />
<glyph unicode="&#x2011;" d="M31 754l364 364l400 -399l919 919l365 -364l-1284 -1284z" />
<glyph unicode="&#x2012;" d="M31 754l364 364l400 -399l919 919l365 -364l-1284 -1284z" />
<glyph unicode="&#x2013;" d="M31 -10v1648h2048v-1648h-2048z" />
<glyph unicode="&#x2014;" horiz-adv-x="2048" d="M31 -10v1648h3072v-1648h-3072z" />
<glyph unicode="&#x2018;" d="M31 -410v1280q0 106 74.5 181t181.5 75h512l219 424q12 39 46 63.5t75 24.5h352q41 0 74.5 -24.5t46.5 -61.5l211 -426q106 0 181 -74.5t75 -181.5v-1280h-2048zM287 742.5q0 -52.5 37.5 -90.5t90 -38t90.5 38t38 90.5t-38 90t-90.5 37.5t-90 -37.5t-37.5 -90zM799 358 q0 -213 149.5 -362.5t362.5 -149.5t362.5 149.5t149.5 362.5t-149.5 362.5t-362.5 149.5t-362.5 -149.5t-149.5 -362.5zM1055 358q0 256 256 256t256 -256t-256 -256t-256 256z" />
<glyph unicode="&#x2019;" d="M31 614l1024 1024l1024 -1024l-363 -362l-405 405v-1067h-512v1067l-406 -403z" />
<glyph unicode="&#x201c;" d="M31 1130q0 213 149 363q145 145 362.5 145t362.5 -145q150 -150 150 -361.5t-150 -361.5l-428 -428q-18 -20 -18 -46t18.5 -45.5t45 -19.5t45 19.5t18.5 44.5h256q0 -131 -93.5 -225.5t-226.5 -94.5t-226 94.5t-93 226.5t92 226l428 428q76 74 76 180.5t-75 181 t-181.5 74.5t-181 -74.5t-74.5 -181.5h-256zM389 -282q0 128 128 128t128 -128t-128 -128t-128 128z" />
<glyph unicode="&#x201d;" d="M31 1130q0 213 149 363q145 145 362.5 145t362.5 -145q150 -150 150 -361.5t-150 -361.5l-428 -428q-18 -20 -18 -46t18.5 -45.5t45 -19.5t45 19.5t18.5 44.5h256q0 -131 -93.5 -225.5t-226.5 -94.5t-226 94.5t-93 226.5t92 226l428 428q76 74 76 180.5t-75 181 t-181.5 74.5t-181 -74.5t-74.5 -181.5h-256zM389 -282q0 128 128 128t128 -128t-128 -128t-128 128z" />
<glyph unicode="&#x2026;" horiz-adv-x="3072" d="M2079 -410l2 725l1171 1174q150 150 363 149.5t362 -149.5q150 -150 150 -363t-150 -362l-1175 -1174h-723zM2337 102h254v-256h106l1098 1100l-361 361l-1097 -1098v-107zM1055 -410l2 725l1171 1174q150 150 363 149.5t362 -149.5q150 -150 150 -363t-150 -362 l-1175 -1174h-723zM1313 102h254v-256h106l1098 1100l-361 361l-1097 -1098v-107zM31 -410l2 725l1171 1174q150 150 363 149.5t362 -149.5q150 -150 150 -363t-150 -362l-1175 -1174h-723zM289 102h254v-256h106l1098 1100l-361 361l-1097 -1098v-107z" />
<glyph unicode="&#x202f;" horiz-adv-x="761" />
<glyph unicode="&#x2039;" d="M31 102l1024 -256l1024 256v-256l-1024 -256l-1024 256v256zM31 358v256l1024 -256l1024 256v-256l-1024 -256zM31 870v256l1024 -256l1024 256v-256l-1024 -256zM31 1382v256l1024 -256l1024 256v-256l-1024 -256z" />
<glyph unicode="&#x203a;" d="M31 1253l383 385v-256h385v-256h-385v-256zM1311 1126v256h385v256l383 -385l-383 -383v256h-385z" />
<glyph unicode="&#x205f;" horiz-adv-x="952" />
<glyph unicode="&#x2122;" horiz-adv-x="2048" d="M1055 -238.5q0 70.5 49 119.5l1026 1026q-51 106 -51 219q0 213 149.5 362.5t362.5 149.5q68 0 147 -24l-317 -318v-340h336l321 322q25 -80 25 -152q0 -213 -149.5 -362.5t-362.5 -149.5q-113 0 -219 52l-1026 -1026q-49 -49 -121 -50q-70 0 -120 50.5t-50 121zM31 -282 q0 128 128 128t128 -128t-128 -128t-128 128zM31 352v256h2048v-256h-2048zM31 870v256h1280v-256h-1280zM31 1382v256h2048v-256h-2048zM543 -281.5q0 52.5 37.5 90t91.5 37.5q51 0 89 -37.5t38 -90t-38 -90.5t-89 -38q-53 0 -91 38t-38 90.5zM1055 -282q0 128 128 128 t128 -128t-128 -128t-128 128z" />
<glyph unicode="&#xe000;" horiz-adv-x="1640" d="M0 1640h1640v-1640h-1640v1640z" />
<glyph unicode="&#xfb01;" horiz-adv-x="2048" d="M1055 741v770q0 51 37.5 89t91.5 38h1536q51 0 89 -37.5t38 -89.5v-129h256v-512h-256v-129q0 -51 -38 -89t-89 -38h-1536q-53 0 -91 38t-38 89zM2079 870h512v512h-512v-512zM31 870q0 213 149.5 362.5t362.5 149.5v-1024q-213 0 -362.5 149.5t-149.5 362.5zM799 358 v1024l512 256v-1536zM1567 358v256q31 0 63 9q86 20 139.5 89.5t53.5 157.5t-54.5 157t-138.5 91q-31 8 -63 8v256q63 0 125 -16q172 -43 279.5 -181t107.5 -314.5t-107.5 -314.5t-277.5 -181q-66 -17 -127 -17z" />
<glyph unicode="&#xfb02;" horiz-adv-x="2048" d="M1055 -410v2048l1536 -1024zM2591 -154v1536h512v-1536h-512zM31 870q0 213 149.5 362.5t362.5 149.5v-1024q-213 0 -362.5 149.5t-149.5 362.5zM799 358v1024l512 256v-1536zM1567 358v256q31 0 63 9q86 20 139.5 89.5t53.5 157.5t-54.5 157t-138.5 91q-31 8 -63 8v256 q63 0 125 -16q172 -43 279.5 -181t107.5 -314.5t-107.5 -314.5t-277.5 -181q-66 -17 -127 -17z" />
<glyph unicode="&#xfb03;" horiz-adv-x="3072" d="M2079 741v770q0 51 37.5 89t91.5 38h1536q51 0 89 -37.5t38 -89.5v-129h256v-512h-256v-129q0 -51 -38 -89t-89 -38h-1536q-53 0 -91 38t-38 89zM3103 870h512v512h-512v-512zM1055 870q0 213 149.5 362.5t362.5 149.5v-1024q-213 0 -362.5 149.5t-149.5 362.5zM1823 358 v1024l512 256v-1536zM2591 358v256q31 0 63 9q86 20 139.5 89.5t53.5 157.5t-54.5 157t-138.5 91q-31 8 -63 8v256q63 0 125 -16q172 -43 279.5 -181t107.5 -314.5t-107.5 -314.5t-277.5 -181q-66 -17 -127 -17zM31 870q0 213 149.5 362.5t362.5 149.5v-1024 q-213 0 -362.5 149.5t-149.5 362.5zM799 358v1024l512 256v-1536zM1567 358v256q31 0 63 9q86 20 139.5 89.5t53.5 157.5t-54.5 157t-138.5 91q-31 8 -63 8v256q63 0 125 -16q172 -43 279.5 -181t107.5 -314.5t-107.5 -314.5t-277.5 -181q-66 -17 -127 -17z" />
<glyph unicode="&#xfb04;" horiz-adv-x="3072" d="M2079 -410v2048l1536 -1024zM3615 -154v1536h512v-1536h-512zM1055 870q0 213 149.5 362.5t362.5 149.5v-1024q-213 0 -362.5 149.5t-149.5 362.5zM1823 358v1024l512 256v-1536zM2591 358v256q31 0 63 9q86 20 139.5 89.5t53.5 157.5t-54.5 157t-138.5 91q-31 8 -63 8 v256q63 0 125 -16q172 -43 279.5 -181t107.5 -314.5t-107.5 -314.5t-277.5 -181q-66 -17 -127 -17zM31 870q0 213 149.5 362.5t362.5 149.5v-1024q-213 0 -362.5 149.5t-149.5 362.5zM799 358v1024l512 256v-1536zM1567 358v256q31 0 63 9q86 20 139.5 89.5t53.5 157.5 t-54.5 157t-138.5 91q-31 8 -63 8v256q63 0 125 -16q172 -43 279.5 -181t107.5 -314.5t-107.5 -314.5t-277.5 -181q-66 -17 -127 -17z" />
</font>
</defs>
</svg>
