<?xml version="1.0" standalone="no"?>
<!DOCTYPE svg PUBLIC "-//W3C//DTD SVG 1.1//EN" "http://www.w3.org/Graphics/SVG/1.1/DTD/svg11.dtd" >
<svg xmlns="http://www.w3.org/2000/svg">
<metadata>
This is a custom SVG webfont generated by Font Squirrel.
</metadata>
<defs>
<font id="FontomasCustomRegular" horiz-adv-x="1024" >
<font-face units-per-em="2048" ascent="1536" descent="-512" />
<missing-glyph horiz-adv-x="500" />
<glyph unicode=" " d="M207 614q0 29 29 50l765 507q43 29 75 9.5t32 -74.5v-983q0 -55 -32 -73.5t-75 7.5l-765 508q-29 20 -29 49zM1137 614q0 29 28 50l738 507q47 27 76.5 8.5t29.5 -73.5v-983q0 -55 -29.5 -73.5t-76.5 7.5l-738 508q-28 20 -28 49z" />
<glyph unicode="!" d="M209 102.5q-4 30.5 7 55t34.5 57.5t62.5 64q61 49 111.5 72.5t82.5 29.5t66.5 -11.5t53 -34t53.5 -52.5q10 -10 14 -17q84 -84 397.5 229.5t229.5 397.5l-18 18q-35 35 -50.5 53.5t-33 52.5t-11.5 66.5t30 81.5t71 109q33 41 65.5 65.5t58 35.5t55.5 7t48 -10t47 -28.5 t41 -35t41 -42t37 -37.5q33 -33 40 -99.5t-17.5 -161t-76 -202t-142.5 -232t-209.5 -243.5t-242.5 -210t-231.5 -142.5t-201 -75t-161 -16t-102.5 41.5q-6 8 -35.5 37t-41 40t-34 41t-28.5 47.5t-10 48z" />
<glyph unicode="&#x22;" d="M207 -184v1597q0 84 61.5 144.5t143.5 60.5h778q86 0 145.5 -60.5t59.5 -144.5v-1597q0 -86 -59.5 -145.5t-145.5 -59.5h-778q-84 0 -144.5 60.5t-60.5 144.5zM371 0h860v1352h-860v-1352zM657 -205q0 -43 43 -72.5t101 -29.5q61 0 102 29.5t41 72.5t-41 73t-102 30 q-57 0 -100.5 -30t-43.5 -73z" />
<glyph unicode="#" d="M213 1586q8 30 35 44q25 12 53.5 3t40.5 -36l205 -393q164 43 314.5 -33.5t205.5 -236.5l270 -770q55 -162 -38 -322.5t-281 -226.5q-190 -57 -356 16.5t-213 237.5l-222 790q-39 137 14.5 273.5t174.5 214.5l-197 385q-14 24 -6 54zM489 819q18 -57 71.5 -84.5t109 -9.5 t82 71.5t8.5 108.5q-14 57 -66.5 85t-109.5 9q-53 -18 -81 -71.5t-14 -108.5z" />
<glyph unicode="$" d="M207 868q0 23 20 37l242 164q18 18 53 25q31 12 58 12h364v389q0 16 12.5 28.5t28.5 12.5h90q18 0 29.5 -12.5t11.5 -28.5v-1761q0 -18 -11 -29.5t-30 -11.5h-90q-18 0 -29.5 11t-11.5 30v901h-364q-16 0 -58 8q-41 16 -53 25l-242 168q-20 9 -20 32zM1178 1311h700 q27 0 57 -13q37 -6 54 -24l241 -164q25 -18 25 -37q0 -20 -25 -33l-241 -168q-12 -8 -54 -24q-41 -8 -57 -8h-618z" />
<glyph unicode="%" d="M211 119v749v6q0 18 5 23.5t32 -4.5q45 -25 404.5 -213t385.5 -201q41 -20 95 -20q49 0 90 20q29 12 388 200.5t402 213.5q20 14 29.5 8t10.5 -12t1 -21v-749q0 -33 -33.5 -66t-68.5 -33h-1643q-33 0 -65.5 33t-32.5 66zM215 1185.5q8 22.5 49 22.5h1733q41 0 49 -22.5 t-9.5 -49t-43.5 -38.5q-745 -401 -770 -414q-41 -20 -90 -20q-53 0 -95 20q-25 12 -770 414q-25 12 -43 38.5t-10 49z" />
<glyph unicode="&#x26;" d="M207 -184l102 487l594 590l516 520q4 0 13.5 1t36 -3t55 -15.5t70.5 -40t83 -69.5q66 -66 97.5 -130t31.5 -95l-2 -33l-516 -516l-594 -594zM334 106q66 -37 94 -69q47 -45 74 -94l164 37l49 45q0 10 -3 28.5t-29 68.5t-71 95t-96 72.5t-70.5 31t-29.5 3.5l-45 -50z" />
<glyph unicode="'" d="M227.5 227.5q34.5 141.5 151.5 259.5q74 72 472 470.5t544 541.5q78 78 172 106.5t188 4.5q92 -25 161 -95.5t93.5 -162.5t-3.5 -186.5t-103 -170.5l-971 -970q-88 -88 -180 -95q-98 -12 -164 54q-39 39 -52.5 93t9 121.5t80.5 129.5l684 680q23 23 51.5 22.5t46.5 -22.5 q23 -20 23 -50t-23 -53l-680 -680q-41 -41 -51 -82t10 -57q16 -16 49 -16q41 6 94 53l971 971q102 109 70 221q-12 55 -54 98t-102 57q-115 33 -217 -69l-1016 -1016q-88 -90 -113.5 -192.5t2 -186.5t91.5 -149q63 -63 147 -92t188.5 -2.5t192.5 114.5l1012 1016 q23 23 52.5 22.5t51 -22t21.5 -51t-23 -51.5l-1016 -1016q-168 -168 -376 -168q-205 0 -353 147q-90 92 -127.5 212t-3 261.5z" />
<glyph unicode="(" d="M207 647l737 664v-398q145 0 275.5 -33.5t228.5 -91t183 -132t145.5 -157.5t108.5 -165t79 -157t50.5 -133t27.5 -91l8 -35q-53 96 -116.5 170t-128 125t-145.5 88t-155.5 57.5t-173 32.5t-184.5 15.5t-203 3.5v-447z" />
<glyph unicode=")" d="M207 -90q0 45 112.5 111.5t305.5 138.5q193 68 264.5 139.5t71.5 196.5q0 33 -12.5 55t-30 36.5t-37 55.5t-31.5 102q-4 20 -14.5 29.5t-22.5 15t-24.5 14.5t-21.5 37.5t-15 76.5q0 31 10 52t20 27l11 7q-20 102 -29 180q-2 33 6 74.5t34.5 92t70 90.5t120 67.5 t174.5 27.5q100 0 178 -27.5t122 -67.5t71 -90.5t35 -92t4 -74.5q-8 -78 -29 -180q37 -16 37 -86q-2 -47 -12 -76t-21.5 -38t-23.5 -14.5t-22.5 -14.5t-14.5 -30q-10 -61 -30.5 -102t-37 -55.5t-30 -37t-13.5 -54.5q0 -125 72 -197t260 -139q195 -72 306.5 -138.5 t111.5 -111.5v-217h-963h-962v217z" />
<glyph unicode="*" d="M207 651l741 660v-275l-434 -385l434 -401v-287zM719 651l741 660v-398q123 0 227.5 -33.5t179.5 -91t136 -132t100 -157.5t70 -165t45 -157t23.5 -133t11.5 -91l2 -35q-63 113 -122.5 194t-122 134t-120 87t-132.5 50t-139.5 21.5t-158.5 5.5v-447z" />
<glyph unicode="+" d="M207 -82q4 20 14 56t49 139.5t89.5 198t141.5 209t199.5 197.5t268 139t344.5 56v398l737 -660l-737 -688v447q-117 0 -202 -3.5t-184.5 -15.5t-173 -32.5t-154.5 -57.5t-145.5 -88t-128 -125t-118.5 -170z" />
<glyph unicode="," d="M211 894q0 187 143 318q129 117 311.5 117t307.5 -117l119 -106l114 106q129 117 311.5 117t311.5 -117q145 -131 145 -318t-145 -321l-737 -675l-738 675q-143 134 -143 321z" />
<glyph unicode="-" d="M207 614q0 127 90 217.5t217 90.5q106 0 184 -66l537 324q-4 16 -4 49q0 127 90 217t217 90t217 -90t90 -216t-90 -217t-217 -91q-98 0 -188 61l-537 -319q8 -33 8 -49.5t-8 -49.5l537 -323q86 66 188 65q127 0 217 -90t90 -216t-90 -217t-217 -91t-217 90t-90 217 q0 33 4 49l-537 320q-82 -61 -184 -62q-127 0 -217 90t-90 217z" />
<glyph unicode="." d="M207 614.5q0 239.5 117.5 442.5t320.5 320.5t442 117.5q238 0 441 -117.5t321.5 -320.5t118.5 -442.5t-118.5 -442.5t-321.5 -320.5t-441 -117.5q-240 0 -442.5 117.5t-320 320.5t-117.5 442.5zM371 541q29 -252 209 -433.5t434 -205.5v393h143v-393q254 25 435.5 206 t207.5 433h-397v143h397q-27 256 -208 437.5t-435 205.5v-397h-143v397q-254 -25 -434.5 -206t-208.5 -437h397v-143h-397z" />
<glyph unicode="/" d="M207 623q907 508 1421 757q45 20 101.5 50t79 41.5t52 20.5t46 3t32.5 -25q18 -18 24.5 -35.5t-2.5 -47t-20.5 -51t-41 -78t-50.5 -99.5q-109 -231 -297 -587.5t-321 -596.5l-135 -241l-115 778zM1133 696l57 -475l565 1049z" />
<glyph unicode="0" d="M211 602q-2 199 72.5 382t204.5 316.5t310.5 214t379.5 82.5q201 2 384 -72.5t317 -204.5t215 -311.5t83 -381.5q2 -199 -73.5 -381.5t-206 -316.5t-311.5 -214t-380 -84q-201 -2 -384 73t-316 205t-213 311t-82 382zM416 602q4 -209 110.5 -386t285.5 -279.5t390 -100.5 q211 4 388 110.5t278.5 287t99.5 389.5q-2 211 -107.5 389t-286.5 279.5t-392 97.5q-211 -2 -388.5 -107.5t-278.5 -286t-99 -393.5zM727 152q4 20 9 53t26.5 124t49.5 172t75 172t102 146q170 170 596 254l72 12q-2 -18 -7 -51t-26.5 -125t-49.5 -173t-75 -172t-104 -146 q-55 -55 -145.5 -103.5t-177.5 -77t-167 -49t-129 -28.5zM1049 618.5q0 -59.5 43 -102.5q43 -39 102 -39t98 39q106 106 181 385q-276 -76 -381 -180q-43 -43 -43 -102.5z" />
<glyph unicode="1" d="M207 -135v1200q0 37 33 57l479 303q35 20 69 0l443 -278l446 278q35 20 70 0l479 -303q29 -20 29 -57v-1200q0 -41 -33 -62q-16 -8 -32.5 -8t-32.5 8l-447 279l-442 -279q-35 -20 -70 0l-442 279l-447 -279q-33 -18 -65 0q-37 23 -37 62zM342 -12l344 217v1036l-344 -217 v-1036zM821 205l344 -217v1036l-344 217v-1036zM1300 -12l345 217v1036l-345 -217v-1036zM1780 205l344 -217v1036l-344 217v-1036z" />
<glyph unicode="2" d="M207 922q0 213 150.5 362.5t362.5 149.5t361.5 -149.5t149.5 -362.5q0 -137 -52.5 -303t-128 -305.5t-150.5 -260.5t-128 -188l-53 -70q-20 27 -55 73t-123 182t-156 266t-123 299.5t-55 306.5zM440 913q0 -115 81 -194.5t198 -79.5q115 0 194.5 81t79.5 193 q0 117 -79.5 198t-194.5 81q-117 0 -198 -81t-81 -198z" />
<glyph unicode="3" d="M207 -82v1126q0 43 29.5 73t72.5 30h590q-150 -115 -225 -205h-262v-922h1331v111l205 172v-385q0 -41 -31 -71.5t-72 -30.5h-1536q-43 0 -72.5 29.5t-29.5 72.5zM748 274q0 10 1 29t9 75t21.5 110.5t42 128t68.5 137t104.5 128t143.5 109.5t191.5 74t245.5 29v319 l680 -512l-680 -532v364q-176 0 -286.5 -16.5t-207 -69.5t-169 -138t-164.5 -235z" />
<glyph unicode="4" d="M207 0v1229q0 84 60.5 144.5t144.5 60.5h1638q84 0 144.5 -60.5t60.5 -144.5v-1229q0 -84 -60.5 -144.5t-144.5 -60.5h-1638q-86 0 -145.5 59.5t-59.5 145.5zM412 0h1638v1229h-1638v-1229zM616 213v184h512v-184h-512zM616 520v185h512v-185h-512zM616 827v185h512v-185 h-512zM1333 213q0 143 8 143q8 2 19.5 6.5t42.5 17.5t54.5 27.5t42 37t18.5 47.5q0 29 -17.5 59.5t-39 56t-40 73.5t-18.5 105q0 113 42 169.5t142 56.5q102 0 143.5 -55.5t41.5 -170.5q0 -57 -17.5 -105t-38 -73.5t-38 -56.5t-17.5 -59q0 -76 154 -130l18 -6q12 0 12 -143 h-512z" />
<glyph unicode="5" d="M207 102q37 16 97.5 36t66.5 22q193 68 264.5 139.5t71.5 196.5q0 33 -12.5 55t-30 36.5t-37 55.5t-31.5 102q-4 20 -14.5 29.5t-22.5 15t-23.5 14.5t-21.5 37.5t-16 76.5q0 31 10 52t20 27l11 7q-20 102 -29 180q-2 33 6 74.5t35 92t71 90.5t122.5 67.5t179.5 27.5 q100 0 178 -27.5t122 -67.5t70.5 -90.5t34.5 -92t4 -74.5q-8 -78 -28 -180q4 -2 11 -6.5t18.5 -27t11.5 -52.5q-4 -47 -14.5 -76t-23 -38t-23.5 -14.5t-22.5 -14.5t-15.5 -30q-10 -61 -30.5 -102t-37 -55.5t-29.5 -37t-13 -54.5q0 -125 72.5 -197t263.5 -139 q182 -68 277 -134.5t95 -115.5v-217h-1638v409zM1436 512v205h307v307h205v-307h307v-205h-307v-307h-205v307h-307z" />
<glyph unicode="6" d="M207 102q0 27 14.5 51.5t28.5 39t47 32t43 21.5t43 16q154 63 210 125t56 170q0 37 -15.5 58.5t-39 59.5t-35.5 107q-4 20 -15.5 29.5t-22.5 13.5t-23.5 31t-16.5 78q0 27 8.5 46t16.5 26l8 6q-16 90 -20 159q-2 31 4 68t27.5 81t55 80t96 59.5t140.5 23.5 q82 0 144.5 -23.5t97.5 -59.5t56.5 -80t27.5 -81t2 -68q-2 -31 -7 -70.5t-10 -64.5l-4 -24q29 -16 29 -78q-2 -51 -13.5 -78t-23.5 -31t-22.5 -13t-14.5 -30q-8 -55 -24.5 -91t-30.5 -49t-24.5 -33.5t-10.5 -51.5q0 -109 57.5 -170t208.5 -125q180 -72 278.5 -131t98.5 -119 v-270h-1425v360zM1378 823q0 45 25 58q-12 66 -17 118q-2 31 7.5 66t34 75t78 66.5t126.5 26.5q74 0 127 -26.5t77 -66.5t34 -76t8 -65l-16 -118q20 -12 20 -58q-2 -39 -11 -59.5t-17.5 -22.5t-17.5 -9t-11 -23q-8 -51 -24.5 -80t-29 -45.5t-12.5 -42.5q0 -82 43 -130.5 t158 -95.5q123 -49 183.5 -83.5t86.5 -75.5q10 -16 16.5 -125t7.5 -188t1 -101h-459v295q0 47 -8 76.5t-26.5 56.5t-67.5 57.5t-106.5 61t-168.5 84.5q47 35 66.5 72.5t19.5 95.5q0 27 -12 43t-30.5 44.5t-26.5 80.5q-2 16 -10.5 23t-17.5 9t-17.5 22.5t-12.5 59.5z" />
<glyph unicode="7" d="M207 827h655l246 689l242 -689h659l-536 -405l188 -709l-553 426l-557 -426l188 709z" />
<glyph unicode="8" d="M207 45v631q0 37 20.5 63.5t65.5 26.5h323v-819h-319q-43 0 -66.5 26.5t-23.5 71.5zM719 -53v819h33q78 0 176 77t169.5 174t92.5 167q12 41 17 103.5t8.5 100t26 66.5t67.5 29q80 0 113.5 -66.5t33.5 -216.5l-20 -319q258 8 376 8q119 0 178.5 -78t59.5 -221v-492 q0 -80 -67.5 -164t-173 -138t-210.5 -54h-430q-57 0 -104 21.5t-80 51t-66.5 60.5t-83.5 51.5t-116 20.5z" />
<glyph unicode="9" d="M207 205v614q0 84 61.5 144.5t143.5 60.5h389v-635h717h20v-184q0 -86 -59.5 -145.5t-145.5 -59.5h-512l-307 -307v307h-102q-84 0 -144.5 60.5t-60.5 144.5zM924 512v819q0 84 61.5 144.5t142.5 60.5h922q86 0 145.5 -60.5t59.5 -144.5v-614q0 -86 -59.5 -145.5 t-145.5 -59.5h-102v-307l-308 307h-716z" />
<glyph unicode=":" d="M207 410v716q0 84 60.5 144.5t144.5 60.5h1228q84 0 144.5 -60.5t60.5 -144.5v-716q0 -84 -60.5 -144.5t-144.5 -60.5h-409v-307l-410 307h-409q-86 0 -145.5 59.5t-59.5 145.5z" />
<glyph unicode=";" d="M207 -61v143q199 0 338 174q106 137 102 274q-4 127 -115 144q-14 2 -30 2q-121 0 -208 90t-87 217t87 217t208 90q260 0 356 -233q88 -217 4 -514q-86 -299 -291 -469q-165 -135 -364 -135zM1067 -61v143q199 0 336 174q109 137 104 274q-6 127 -114 144q-14 2 -31 2 q-123 0 -209 90t-86 217t86 217t209 90q260 0 356 -233q88 -217 4 -514q-86 -299 -290 -469q-166 -135 -365 -135z" />
<glyph unicode="&#x3c;" d="M207 377v360q0 45 34.5 84t75.5 39h1782q43 0 79 -40t36 -83v-360q0 -41 -36 -82t-79 -41h-201l91 -512h-1557l90 512h-205q-41 0 -75.5 41t-34.5 82zM297 1022q6 18 20 22q47 20 210 76t200 56h94v307h778v-307h91q37 0 200.5 -55.5t208.5 -76.5q14 -4 20.5 -22 t-4 -34.5t-36.5 -16.5h-1741q-27 0 -37 16.5t-4 34.5zM637 -53h1147l-144 667h-860z" />
<glyph unicode="=" d="M213 938q8 70 32.5 141.5t73 131t121.5 120.5q35 29 49.5 59.5t13.5 50t12 39t48 31.5q33 14 56.5 6t34 -23t41 -29.5t73.5 -14.5q96 2 171 -11.5t139.5 -51t113.5 -86t104.5 -134.5t100.5 -174t108 -227q27 -57 65 -91t74.5 -47.5t72.5 -27.5t70 -49t54 -96 q23 -59 -18 -146.5t-127 -177.5t-225.5 -179t-301.5 -149q-211 -78 -417.5 -91t-341 30t-162.5 123q-20 61 -17.5 110.5t22 80t38 71.5t28 83t-9.5 114q-37 150 -58.5 246t-33.5 197t-4 171zM387 -82q4 -12 43 -27.5t109.5 -24.5t156.5 -9t201 20.5t227.5 62.5t214 100 t167 114.5t113.5 109.5t68.5 90t14.5 52q-8 23 -41 41t-97.5 27t-146.5 5t-199.5 -30.5t-247.5 -74.5t-236.5 -105.5t-172 -108.5t-108.5 -100.5t-57.5 -85.5t-8.5 -56zM551 53q166 143 446 242q16 8 78 29v-5q29 -80 -33.5 -165.5t-179.5 -128.5q-92 -35 -176 -27t-135 55z " />
<glyph unicode="&#x3e;" d="M207 180q0 156 115 271l307 303q141 141 291.5 160.5t261.5 -91.5q31 -31 30.5 -71.5t-30.5 -71.5q-27 -31 -70 -31t-74 31q-98 98 -266 -70l-307 -303q-53 -53 -53 -127q0 -72 53 -131q55 -51 131 -51t131 51l82 86q31 29 72 28t71 -32q31 -27 31 -70t-31 -73l-82 -82 q-117 -111 -274.5 -111t-273.5 111q-115 114 -115 274zM844 465q0 41 30 72q29 31 71 30.5t73 -30.5q18 -16 32.5 -25.5t45 -16t73.5 16.5t95 74l327 323q53 53 54 127q0 72 -54 131q-35 33 -73.5 49.5t-85 10.5t-82.5 -43l-103 -103q-31 -29 -71.5 -27.5t-71.5 31.5 q-31 29 -31 71t31 73l102 102q111 109 260.5 102.5t268.5 -122.5q111 -111 110 -275q0 -160 -110 -270l-328 -324q-152 -152 -307 -151q-129 0 -226 102q-30 31 -30 72z" />
<glyph unicode="?" d="M207 1221l188 65q74 53 137.5 91t113.5 62.5t97.5 33t79 11.5t67.5 -10.5t57.5 -24.5t51 -41t45 -47.5t46.5 -53.5q31 -41 48 -60.5t54 -56.5t64.5 -54.5t73.5 -41t90 -30.5t107.5 -11t131 8t155 35.5t183.5 62.5q29 12 45 -2t0 -39q-154 -223 -273.5 -364.5 t-201.5 -199.5t-143.5 -70.5t-109.5 13t-92 63.5t-99.5 67.5t-121 35t-167 -42t-230.5 -153.5l184 -725h-208z" />
<glyph unicode="@" d="M207 344q74 43 119 117t45 153q0 154 -164 250q23 84 69 172q150 -39 279 90q113 111 70 279q86 47 168 70q47 -76 119.5 -120t154.5 -44q80 0 151.5 45t118.5 119q82 -23 168 -70q-41 -168 70 -279q129 -129 278 -90q43 -80 74 -172q-168 -94 -168 -249.5t168 -249.5 q-31 -92 -74 -172q-150 39 -278 -91q-111 -117 -70 -278q-86 -45 -168 -70q-47 76 -118.5 120t-151.5 44q-82 0 -154.5 -44t-119.5 -120q-82 25 -168 70q43 162 -70 278q-113 113 -279 70q-46 88 -69 172zM690 614q0 -156 110.5 -264t266.5 -108t264.5 108.5t108.5 263.5 q0 154 -109.5 263.5t-263.5 109.5q-156 0 -266.5 -109.5t-110.5 -263.5z" />
<glyph unicode="A" d="M220 -42q-10 33 -10 59q0 37 21 57l836 835q-4 35 -4 69q0 65 13 127q19 95 52 128l275 274q27 27 78 28h5q49 0 107 -18q61 -19 132 -65.5t133 -108.5q63 -61 108 -132.5t67 -134.5q21 -60 20 -108q0 -54 -28 -79l-278 -279q-33 -33 -127 -53q-59 -13 -121 -13 q-37 0 -76 5l-835 -836q-21 -21 -57 -21q-25 0 -58 11q-78 27 -151 100q-76 74 -102 155zM922 585q-2 -11 -2 -21q0 -34 21 -55t55 -21q10 0 21 1q48 8 91 48q41 41 48 89q1 9 1 17q0 36 -24 57q-21 22 -55 23q-10 0 -20 -2q-48 -8 -88 -48t-48 -88zM1476.5 1433.5 q-3.5 -3.5 -3.5 -13.5q0 -14 7 -43q11 -48 51 -124.5t101 -138.5q59 -59 136 -98t126 -50q28 -7 44 -7q11 0 14 4q3 2 3 10q0 13 -8 43q-13 47 -54.5 122.5t-100.5 135.5q-61 59 -137 100t-123 54q-29 8 -44 9q-8 0 -11.5 -3.5z" />
<glyph unicode="B" d="M207 1294q0 31 21.5 52.5t52.5 21.5h352q43 78 167 133t328 55q209 0 333 -55t167 -133h352q29 0 49.5 -21.5t20.5 -52.5q0 -90 -17.5 -173t-42 -145.5t-68.5 -123.5t-81 -102t-97.5 -89.5t-97 -74t-100.5 -66.5q-160 -106 -227.5 -178t-67.5 -174v-135 q147 -14 241.5 -63.5t94.5 -112.5q0 -76 -134 -130.5t-325 -54.5q-186 0 -320 54.5t-134 130.5q0 63 95 112t241 64v135q0 53 -18.5 98t-64.5 89t-89 77t-127 88q-63 43 -98 67.5t-96.5 74t-97.5 88t-82 101t-69.5 125t-42 145.5t-18.5 173zM354 1225q10 -100 42 -182 t88.5 -149t108.5 -111t130 -99q-98 215 -111 541h-258zM739 1275q0 -13 13.5 -32.5t44 -41t73.5 -40t112 -31t146 -12.5q80 0 149 12.5t112 31t73.5 40t43 40t12.5 32.5t-12.5 32.5t-43 40t-73.5 40t-112 31t-149 12.5q-78 0 -146.5 -12.5t-111.5 -31t-73.5 -40t-44 -40 t-13.5 -31.5zM1534 684q80 53 133 99t108.5 112t87 147.5t40.5 182.5h-258q-5 -316 -111 -541z" />
<glyph unicode="C" d="M207 615.5q0 191.5 74.5 365.5t200.5 300t301 200.5t366.5 74.5t366 -74.5t300.5 -200.5t200.5 -300t74.5 -365.5t-74.5 -366.5t-200.5 -301t-300.5 -201t-366 -75t-366.5 75t-301 201t-200.5 301t-74.5 366.5zM412 615.5q0 -199.5 98 -369.5t268 -269.5t371 -99.5 t370 99.5t268 269.5t99 368.5t-99 368.5t-268 269.5t-370 99.5t-371 -99.5t-268 -268.5t-98 -368.5zM1075 586v561h144v-504l307 -307l-103 -98z" />
<glyph unicode="D" d="M207 614.5q0 26.5 41 89t128 146.5t202.5 158.5t289.5 127t363.5 52.5t362.5 -52.5t289 -127t204 -158.5t128 -146.5t40 -89t-40 -89t-128 -145.5t-204 -159t-289 -128t-362.5 -52t-363.5 52t-289.5 128t-202.5 159t-128 145.5t-41 89zM772 614q0 -184 134 -313t325 -129 q188 0 321.5 129t133.5 313q0 182 -133.5 312.5t-321.5 130.5t-323.5 -130.5t-135.5 -312.5zM1001 614.5q0 92.5 68 157t162 64.5q29 0 19.5 -47.5t-24.5 -96.5q-7 -21 -7 -38q0 -23 12 -40q12 -12 36.5 -10t57.5 9.5t61.5 14.5t49 5t20.5 -19q0 -92 -66.5 -156.5 t-158.5 -64.5q-94 0 -162 64.5t-68 157z" />
<glyph unicode="E" d="M207 295q0 195 109.5 352.5t283.5 224.5q25 287 239 485.5t507 198.5q203 0 373.5 -100t271 -272t100.5 -373q0 -291 -198.5 -504t-485.5 -237q-68 -176 -226.5 -287t-355.5 -111q-254 0 -436 182.5t-182 440.5zM207 1327q0 86 62.5 149.5t150.5 63.5q86 0 147.5 -63.5 t61.5 -149.5q0 -88 -61.5 -150.5t-147.5 -62.5q-88 0 -150.5 62.5t-62.5 150.5zM301 1327q0 -49 35 -84t84 -35q47 0 81 35t34 84t-34 82t-81 33q-49 0 -84 -33t-35 -82zM412 295q0 -170 121.5 -292t291.5 -122q115 0 210 55.5t151 149.5q-213 47 -367.5 200.5t-202.5 364.5 q-94 -55 -149 -149t-55 -207zM834 709q31 -154 143.5 -264.5t265.5 -141.5q-2 166 -122.5 285t-286.5 121zM834 913q252 0 432 -179t182 -431q180 35 299 178.5t119 329.5q0 215 -152.5 367.5t-367.5 152.5q-188 0 -331.5 -119t-180.5 -299z" />
<glyph unicode="F" d="M211 602v11q0 187 70 357q72 175 195.5 302t296.5 204.5t365 79.5q5 0 10 1q186 0 357 -70q176 -72 304 -197t206 -298t80 -365v-11q0 -185 -71 -355q-73 -175 -196.5 -303t-296.5 -205t-365 -80h-15q-183 0 -352 69q-176 72 -304 196.5t-205 299t-79 364.5zM334 602 q0 -197 90 -364l213 127q-57 115 -57 250t57 249l-213 127q-90 -167 -91 -364q1 -12 1 -25zM702 615.5q0 -187.5 132.5 -319.5t318.5 -132t318.5 132t132.5 318.5t-132.5 318.5t-318.5 132t-318.5 -131t-132.5 -318.5zM772 -115q187 -90 366 -90h23q188 0 369 94l-127 209 q-121 -57 -250 -57q-133 0 -254 57zM772 1339l127 -209q121 57 254 58q129 0 250 -58l127 209q-182 94 -389 95q-199 -7 -369 -95zM1665 365l213 -127q94 176 94 389q-6 195 -94 364l-213 -127q61 -123 61 -249.5t-61 -249.5z" />
<glyph unicode="G" d="M207 266l164 348l-164 349h205l229 -205h365l-254 819h204l459 -819h533q12 0 32.5 -1t73.5 -8.5t94 -20.5t74 -43t33 -71q0 -115 -240 -139l-67 -4h-533l-459 -819h-204l254 819h-365l-229 -205h-205z" />
<glyph unicode="H" d="M211 1139q-2 11 -2 22q0 62 51 101q16 16 114.5 93t110.5 87q39 33 111 33h987q72 0 115 -33q16 -16 114.5 -93t110.5 -87q47 -40 47 -100q0 -11 -2 -23q-4 -23 -53 -354.5t-96 -652.5l-47 -320q-8 -25 -33 -41.5t-49 -16.5h-1201q-25 0 -48 16.5t-33 41.5 q-189 1274 -197 1327zM371 1126h1441l-229 234h-987zM670 938q98 -565 422 -565q319 0 417 565h-188q-78 -381 -229 -381q-154 0 -234 381h-188z" />
<glyph unicode="I" d="M223 -180q-13 37 -12 75q0 79 54 160q81 121 237 178q92 33 175 33q78 0 148 -28v1339h164q0 -53 35 -113.5t84 -115t106.5 -116t101.5 -128t68 -139.5q15 -44 15 -95q0 -34 -6 -70q-16 -91 -80 -190q-24 -40 -40 -40q-7 0 -11 8q-8 10 -2 32q12 33 14 88v15 q0 49 -11 108q-13 68 -43 129.5t-89.5 108.5t-141.5 59v-1093q4 -100 -77 -195.5t-214 -144.5q-91 -34 -176 -34q-60 0 -116 16q-140 40 -183 153z" />
<glyph unicode="J" d="M211 -49q66 152 177.5 294t235.5 247.5t267 200.5t262 157.5t227.5 112t158.5 69t60 21.5h-44q-28 0 -116.5 -8.5t-178 -27t-214 -59t-238.5 -99t-240 -156t-230 -220.5q-4 45 -5 88v19q0 39 3 94q4 70 26.5 135.5t59.5 137t106.5 139t161.5 121.5q268 157 705 156 q94 0 196 -7q324 -23 494 -92q51 -20 51 -35q0 -6 -8 -10q-129 -68 -223.5 -172.5t-150.5 -214t-105.5 -217t-118 -209t-156.5 -162.5q-86 -61 -193 -85q-73 -16 -147 -16q-35 0 -70 4q-110 11 -197 31.5t-175 53.5q-14 -16 -40 -47t-86 -124.5t-104 -185.5q-10 -25 -39 -26 q-4 0 -9 -1q-25 0 -49 11q-28 12 -45 37q-12 17 -12 31q0 7 3 14z" />
<glyph unicode="K" d="M211 541q12 160 106.5 325.5t242 293.5t306.5 175q200 56 390 56q376 0 708 -220q92 -61 151.5 -135.5t79.5 -141.5q20 -63 20 -118q0 -61 -22 -100q-20 -37 -49 -44q-9 -2 -21 -2q-25 0 -63 10q-55 15 -105 30q-21 6 -46 6q-34 0 -74 -11q-70 -19 -133 -87 q-39 -43 -46 -92q-2 -13 -2 -25q0 -34 14 -65q19 -42 45 -78.5t47.5 -72.5t19.5 -57q-2 -27 -28 -67.5t-87 -90.5t-146 -93t-221.5 -72t-296.5 -29q-190 0 -345.5 56.5t-255 152.5t-149.5 224q-42 106 -42 224q0 24 2 48zM1157 369q0 -61 46 -106.5t110.5 -45.5t109.5 45 t45 107q0 66 -45 110.5t-109.5 44.5t-110.5 -44.5t-46 -110.5z" />
<glyph unicode="L" d="M207 233q172 -96 365 -112q38 -3 77 -3q154 0 302 53q185 67 328.5 210t210.5 331q53 150 53 304q0 38 -3 76q-16 193 -113 362q111 -61 197 -147q174 -174 236 -405q31 -115 30.5 -230t-30.5 -231q-61 -230 -236 -404q-170 -170 -401 -232q-116 -31 -231.5 -30.5 t-230.5 30.5q-230 61 -403 232q-85 87 -151 196z" />
<glyph unicode="M" d="M207 0v922q0 84 61.5 144t143.5 60h245q29 0 52.5 16.5t29.5 41.5l66 192q6 25 29.5 41.5t48.5 16.5h696q29 0 52.5 -16.5t29.5 -41.5l65 -192q6 -25 30 -41.5t48 -16.5h246q86 0 145.5 -60t59.5 -144v-922q0 -86 -59.5 -145.5t-145.5 -59.5h-1638q-82 0 -143.5 60.5 t-61.5 144.5zM719 513q0 -212 150.5 -362.5t362.5 -150.5t361.5 150.5t149.5 362.5t-149.5 361.5t-361.5 149.5t-362.5 -149.5t-150.5 -361.5zM924 513q0 126 91 216t216 90q129 0 218 -90t89 -217t-89 -217t-218 -90q-125 0 -216 91t-91 217zM1907 848q0 -29 21.5 -49.5 t52 -20.5t50 20.5t19.5 49.5q0 31 -19.5 52.5t-50 21.5t-52 -21.5t-21.5 -52.5z" />
<glyph unicode="N" d="M211 327q8 42 41 66l954 676q49 33 111 33l323 4q61 -8 95 -53l57 -82q39 29 74 61.5t71.5 75.5t62 93t42.5 106q14 47 14 99q0 10 -1 20q-3 65 -25 130q-8 25 2 46.5t34 30.5q12 4 23 5q12 0 25 -6q23 -10 30 -35q32 -81 33 -161q0 -11 -1 -23q-5 -92 -28.5 -168 t-71.5 -148.5t-100.5 -127t-113.5 -101.5l36 -53q22 -30 22 -69q0 -20 -5 -41l-103 -320q-23 -59 -69 -94l-955 -676q-36 -27 -66 -27q-34 0 -60 35l-435 627q-18 26 -18 56q0 11 2 21zM1447 803q-3 -16 -3 -31q0 -50 29 -92q41 -55 107 -68q16 -3 31 -3q49 0 91 30 q39 27 55 72q12 33 12 66q0 13 -2 26q-8 -6 -18 -12.5t-22.5 -13.5t-20.5 -11t-29 -4q-39 0 -53 33q-10 25 -2 49t31 37q6 0 49 24q-41 31 -93 33h-7q-48 0 -89 -29q-55 -38 -66 -106z" />
<glyph unicode="O" d="M207 573v283q0 18 11 29.5t30 11.5h61q16 0 28.5 -11.5t12.5 -29.5v-283q0 -45 14.5 -91t50.5 -97t91 -90t148.5 -64.5t207.5 -25.5q115 0 207 25.5t147.5 65.5t92.5 90t51 97t14 90v283q0 18 11.5 29.5t29.5 11.5h62q16 0 28.5 -11.5t12.5 -29.5v-283q0 -88 -33 -171 t-98.5 -154.5t-174 -119.5t-247.5 -62v-271h266q16 0 28.5 -11t12.5 -30v-123q0 -14 -12.5 -27.5t-28.5 -13.5h-737q-16 0 -28.5 12.5t-12.5 28.5v123q0 18 11 29.5t30 11.5h266v271q-139 14 -248 62t-173.5 119.5t-98 154.5t-33.5 171zM555 573v324h614v-324 q0 -61 -72.5 -112t-234.5 -51t-234.5 51t-72.5 112zM555 1040v435q0 61 72.5 112t234.5 51t234.5 -51t72.5 -112v-435h-614z" />
<glyph unicode="P" d="M207 -102v1228q0 84 60.5 144.5t144.5 60.5h90v-205h327v205h594v-205h328v205h94q84 0 144.5 -60.5t60.5 -144.5v-1228q0 -84 -60.5 -144.5t-144.5 -60.5h-1433q-86 0 -145.5 59.5t-59.5 145.5zM412 -102h1433v819h-1433v-819zM596 1188v348h143v-348h-143zM1518 1188 v348h143v-348h-143z" />
<glyph unicode="Q" d="M211 662q0 34 172 246q180 222 368 429q180 199 196 199h1q8 -8 -154 -381q-157 -359 -157 -384v-1q4 -8 99 -47t192.5 -84t101.5 -70v-1q0 -32 -177 -247q-181 -220 -367 -427q-180 -201 -193 -201q-9 6 71 190.5t162 373.5q78 180 78 200v2q-4 10 -193 91 q-200 85 -200 112z" />
<glyph unicode="R" d="M207 57q0 61 41 127t99.5 121t116.5 108.5t99 105.5t41 95t-41 95.5t-99 105.5t-116.5 108.5t-99.5 120t-41 123.5v242q0 31 47 71t122 74.5t183.5 59t220.5 24.5q115 0 224.5 -24.5t184.5 -59t120 -74.5t45 -71v-242q0 -59 -41 -123.5t-99.5 -120t-117 -108.5 t-99.5 -105.5t-41 -95.5t41 -95t99.5 -105.5t117 -108.5t99.5 -120.5t41 -127.5v-237q0 -31 -45 -70t-120 -74.5t-184.5 -60.5t-224.5 -25q-113 0 -221 25t-183 60.5t-122 74.5t-47 70v237zM330 1270l4 -103q0 -72 184 -245q12 -10 53 -49t53.5 -51.5t41 -45.5t38 -52 t18.5 -49t9 -59.5t-9 -59.5t-18.5 -50.5t-38 -52t-41 -44t-53.5 -52.5t-53 -50q-184 -174 -184 -250v-135q25 12 102.5 39t136 49.5t108.5 68.5t50 101q0 37 25.5 52.5t51.5 0t26 -52.5q0 -55 51 -101t109.5 -68.5t136 -49.5t100.5 -39v135q0 33 -35 82t-67.5 83t-86.5 85 q-14 14 -51 50t-51 51.5t-40 45t-37 51t-20 51.5t-9 59.5t9 58t20 50t37 51.5t40 45.5t51 51t51 50.5q53 51 87 84.5t68 82t34 78.5l4 103q-213 -106 -455 -107q-245 1 -450 107zM336 1378q-9 -11 -9 -19q0 -9 11 -16q74 -45 191.5 -77.5t250.5 -32.5q137 0 258 30.5 t193 71.5q6 4 9 8.5t3 9.5t-1 9t-5 8t-7 8t-9 8l-10 7q-3 2 -8 5l-5 3q-20 12 -58 30.5t-146.5 49t-205.5 30.5q-250 0 -421 -110z" />
<glyph unicode="S" d="M207 70q0 96 67.5 162.5t161.5 66.5q98 0 166 -66.5t68 -162.5q0 -98 -67.5 -166t-166.5 -68q-94 0 -161.5 68t-67.5 166zM207 664v241q217 0 415.5 -85t341 -227t227.5 -341t85 -416h-242q0 225 -110.5 415.5t-301 301.5t-415.5 111zM207 1151v242q315 0 603 -123 t497 -332t332.5 -496.5t123.5 -605.5h-245q0 268 -103.5 511t-278.5 419t-418 280.5t-511 104.5z" />
<glyph unicode="T" d="M207 1012q207 207 472 314.5t533.5 107.5t533.5 -107.5t468 -314.5l-143 -144q-233 236 -547 320q-157 42 -314 42l-313 -42q-313 -84 -547 -320zM494 725q197 197 457 265q131 34 261 35l262 -35q261 -69 453 -265l-143 -147q-156 158 -364 213q-104 28 -208 27.5 t-208 -27.5q-209 -55 -367 -213zM780 434q178 182 430 182t430 -182l-143 -143q-117 121 -285 121t-288 -121zM1010 0q0 86 59 145.5t141 59.5q86 0 145.5 -59.5t59.5 -145.5t-59.5 -145.5t-145.5 -59.5q-82 0 -141 59.5t-59 145.5z" />
<glyph unicode="U" d="M207 -53v798q0 45 30.5 84t71.5 39h205v144q0 227 103.5 349t306.5 122q201 0 305 -122t104 -349v-144h185q41 0 81.5 -40t40.5 -83v-798q0 -39 -28.5 -79t-69.5 -52l-123 -41q-106 -33 -200 -33h-594q-94 0 -201 33l-123 41q-39 12 -66.5 51t-27.5 80zM719 868h409v185 q0 111 -54 168t-149.5 57t-150.5 -57.5t-55 -167.5v-185z" />
<glyph unicode="V" d="M207 -102v798q0 45 30.5 84t71.5 39h819v287q0 109 -55 167t-149 58q-96 0 -150.5 -58.5t-54.5 -166.5v-82h-205v41q0 225 103.5 348t306.5 123q201 0 305 -124t104 -347v-246h185q41 0 81.5 -40t40.5 -83v-798q0 -43 -28.5 -83t-69.5 -53l-123 -36q-84 -33 -200 -33 h-594q-115 0 -201 33l-123 36q-39 12 -66.5 52.5t-27.5 83.5z" />
<glyph unicode="W" d="M211 544q8 58 57 95q38 28 84 28q11 0 22 -1q58 -8 91 -56l242 -319l606 975q31 49 89 62q18 4 34 4q39 0 73 -21q49 -31 63 -89q4 -18 4 -35q0 -39 -22 -73l-712 -1151q-18 -29 -50 -47t-65 -18h-8q-70 0 -115 57l-364 483q-30 39 -31 85q1 10 2 21z" />
<glyph unicode="X" d="M207 204q0 50 37 87l282 323l-282 324q-37 35 -37 85t37 87t88 37t84 -37l274 -311l271 311q37 37 88 37t84 -37q37 -37 36.5 -87t-36.5 -85l-283 -324l283 -323q37 -37 36.5 -87t-36.5 -85q-33 -37 -84.5 -37t-87.5 37l-271 307l-274 -307q-33 -37 -84 -37t-88 37 q-37 35 -37 85z" />
<glyph unicode="Y" d="M207 614.5q0 233.5 115.5 432t313.5 313.5t431 115t432 -115t313.5 -313.5t114.5 -432t-114.5 -431t-313.5 -313.5t-432 -116t-431 116t-313.5 313.5t-115.5 431zM547 512h1036v209h-1036v-209z" />
<glyph unicode="Z" d="M207 614.5q0 233.5 115.5 432t313.5 313.5t431 115t432 -115t313.5 -313.5t114.5 -432t-114.5 -431t-313.5 -313.5t-432 -116t-431 116t-313.5 313.5t-115.5 431zM575 299l177 -176l315 315l311 -315l176 176l-311 315l311 312l-176 180l-311 -315l-315 315l-177 -180 l312 -312z" />
<glyph unicode="[" d="M207 860l430 369v-225h1106q86 0 145.5 -59.5t59.5 -145.5v-594q0 -86 -59.5 -145.5t-145.5 -59.5h-1413v287h1331v430h-1024v-225z" />
<glyph unicode="\" d="M207 -102v1433q0 84 61.5 144.5t143.5 60.5h1024q86 0 145 -60.5t59 -144.5v-1433q0 -86 -59 -145.5t-145 -59.5h-1024q-84 0 -144.5 60.5t-60.5 144.5zM580 168q23 -63 108.5 -89t173.5 3q176 55 176 201v532q57 -8 94 -41t48.5 -74t11.5 -77.5t-10 -61.5q-8 -23 4 -22 q10 2 24 22q49 76 50.5 153t-33.5 138t-77 115.5t-77 104.5t-35 83h-123v-754q-80 33 -180 -4q-88 -31 -134 -97t-21 -132z" />
<glyph unicode="]" d="M207 131v963q0 74 38 104.5t117 30.5h922q78 0 115 -31t37 -104v-963q0 -72 -37 -101.5t-115 -29.5h-922q-80 0 -117.5 29.5t-37.5 101.5z" />
<glyph unicode="^" d="M209 -186q0 41 31 71l1601 1602q31 31 72 31t71.5 -31t30.5 -73t-30 -71l-1602 -1601q-29 -29 -70 -29q-45 0 -73 29q-31 31 -31 72zM398 485.5q1 106.5 34 215t74 201.5t91 175t89 134.5t66 78.5q72 66 217 24t323 -171l-106 -107q-78 53 -155 88t-117 40t-60 -5 q-8 -18 -4 -59t39 -118t88 -159l-553 -553q-27 109 -26 215.5zM748 -98l569 569q55 -41 111.5 -73.5t100.5 -52t83 -31t59.5 -10.5t30.5 7q8 10 9 30.5t-11 59.5t-30.5 83t-52.5 100.5t-75 111.5l103 103q154 -188 208 -352t-16 -238q-31 -29 -87 -70t-143 -94t-191.5 -95 t-215 -72t-230.5 -24.5t-222 48.5z" />
<glyph unicode="_" d="M207 615.5q0 191.5 74.5 365.5t200.5 300t301 200.5t366.5 74.5t366 -74.5t300.5 -200.5t200.5 -300t74.5 -365.5t-74.5 -366.5t-200.5 -301t-300.5 -201t-366 -75t-366.5 75t-301 201t-200.5 301t-74.5 366.5zM412 615.5q0 -199.5 98 -369.5t268 -269.5t371 -99.5 t370 99.5t268 269.5t99 368.5t-99 368.5t-268 269.5t-370 99.5t-371 -99.5t-268 -268.5t-98 -368.5zM752 430v369h422v229l389 -414l-389 -413v229h-422z" />
<glyph unicode="`" d="M207 615.5q0 191.5 74.5 365.5t200.5 300t301 200.5t366.5 74.5t366 -74.5t300.5 -200.5t200.5 -300t74.5 -365.5t-74.5 -366.5t-200.5 -301t-300.5 -201t-366 -75t-366.5 75t-301 201t-200.5 301t-74.5 366.5zM412 615.5q0 -199.5 98 -369.5t268 -269.5t371 -99.5 t370 99.5t268 269.5t99 368.5t-99 368.5t-268 269.5t-370 99.5t-371 -99.5t-268 -268.5t-98 -368.5zM731 639l418 389l414 -389h-230v-418h-368v418h-234z" />
<glyph unicode="a" d="M239 479q28 115 71.5 211t95 183.5t92.5 141.5t69 83q41 42 112 42q78 0 191 -51q217 -97 443 -323q225 -225 323 -444q52 -117 53 -196q0 -69 -40 -110q-29 -29 -83.5 -69.5t-141.5 -91t-184 -94.5t-212 -71.5t-223.5 -27.5t-220 43t-200.5 132t-132 200 q-42 108 -42 214q0 109 29 228zM665.5 966.5q-8.5 -8.5 -8.5 -28.5q0 -25 13 -69q23 -79 100.5 -206.5t194 -244.5t244.5 -196t207 -101q41 -12 66 -12q22 0 31 10q9 9 9 30q0 25 -12 67q-22 79 -100.5 207t-195 244.5t-244.5 194.5t-207 101q-43 12 -69 12 q-20 0 -28.5 -8.5zM1114 1240q-5 17 -5 33q0 24 11 46l111 197q23 37 62 47q13 3 27 3q26 0 50 -14q37 -18 50 -60q5 -16 5 -31q0 -25 -14 -48l-111 -196q-33 -53 -90 -54q-27 0 -49 17q-35 18 -47 60zM1425 1028q0 43 31 70l197 196q31 31 71.5 31t71.5 -30.5t31 -72.5 t-31 -71l-192 -197q-29 -29 -74 -28.5t-74 28.5q-31 31 -31 74zM1671 737q10 41 47 62l201 110q23 13 47 13q15 0 30 -4q40 -12 62 -50q11 -23 12 -47q0 -15 -5 -29q-11 -40 -48 -63l-196 -111q-25 -12 -49 -12q-63 0 -91 53q-14 25 -13 51q0 13 3 27z" />
<glyph unicode="b" d="M207 615.5q0 195.5 96 360.5t261 260t360 95t359.5 -95t260.5 -261t96 -360.5t-96 -359.5t-261 -261t-359 -96q-195 0 -360 96t-261 261t-96 360.5z" />
<glyph unicode="c" d="M207 -20v122h205v205h-205v205h205v205h-205v205h205v204h-205v123q0 35 24.5 58.5t57.5 23.5h1843q37 0 59.5 -23.5t22.5 -58.5v-123h-205v-204h205v-205h-205v-205h205v-205h-205v-205h205v-122q0 -35 -22.5 -58.5t-59.5 -23.5h-1843q-33 0 -57.5 24.5t-24.5 57.5z M985 307l512 307l-512 308v-615z" />
<glyph unicode="d" d="M207 0v287h217q68 0 132.5 24.5t112.5 55t108.5 95t95 108.5t100.5 130q53 70 83.5 110t86 103.5t98.5 101.5t105.5 84t121 70.5t133 42t154.5 17.5h70v246l430 -369l-430 -369v205h-70q-57 0 -109.5 -13.5t-102.5 -46t-88 -62t-88 -87t-80 -95.5t-85 -110 q-55 -74 -82.5 -108.5t-86 -102t-98.5 -102.5t-104.5 -83t-122 -71.5t-131 -42t-153.5 -18.5h-217zM207 922v286h217q279 0 516 -217q-113 -145 -127 -164q-16 -25 -49 -65q-160 160 -340 160h-217zM1219 217q96 117 147 189q2 2 13.5 16t15.5 24q88 -88 174 -134t186 -46 h70v205l430 -369l-430 -368v246h-70q-290 -1 -536 237z" />
<glyph unicode="e" d="M207 635h250q6 223 118.5 411.5t303 298t413.5 109.5q227 0 421 -112.5t306.5 -306t112.5 -421t-112.5 -421t-306 -306t-421.5 -112.5q-287 0 -516 176l144 155q168 -123 372 -122q260 0 443.5 184t183.5 446.5t-183.5 446.5t-443.5 184q-254 0 -435 -177t-191 -433h290 l-376 -418z" />
<glyph unicode="f" d="M215 971q-6 15 -6 29q0 16 7 33q13 32 44 40l1393 508q14 5 27 6q17 0 33 -9q30 -15 38 -46l213 -578h-205l-254 308l-442 -308h-365q-109 0 -185.5 -77.5t-76.5 -188.5v-328zM621 -279v967q0 35 22.5 58.5t54.5 23.5h1479q33 0 55.5 -23.5t22.5 -58.5v-967 q0 -33 -22.5 -57t-55.5 -24h-1479q-33 0 -55 24t-22 57zM838 25v-177h1228v328l-147 332l-344 -123l-266 -274l-283 352z" />
<glyph unicode="g" d="M207 29v1167q0 135 184 135t184 -135v-1167q0 -131 -184 -131t-184 131zM924 29v1167q0 135 184 135t184 -135v-1167q0 -131 -184 -131t-184 131z" />
<glyph unicode="h" d="M209 128q0 23 51 56l1643 926q35 20 63 20q20 0 38 -10q42 -25 42 -92v-766q0 -68 -48 -116t-116 -48h-1597q-76 0 -76 30z" />
<glyph unicode="i" d="M207 615.5q0 191.5 74.5 365.5t200.5 300t301 200.5t366.5 74.5t366 -74.5t300.5 -200.5t200.5 -300t74.5 -365.5t-74.5 -366.5t-200.5 -301t-300.5 -201t-366 -75t-366.5 75t-301 201t-200.5 301t-74.5 366.5zM412 614q0 -199 99 -368.5t269 -269t370 -99.5t369 99.5 t268 269.5t99 368q0 201 -99 371t-268 268.5t-369 98.5t-370 -98.5t-269 -268.5t-99 -371zM735 590h230v422h368v-422h230l-414 -389z" />
<glyph unicode="j" d="M207 615.5q0 191.5 74.5 365.5t200.5 300t301 200.5t366.5 74.5t366 -74.5t300.5 -200.5t200.5 -300t74.5 -365.5t-74.5 -366.5t-200.5 -301t-300.5 -201t-366 -75t-366.5 75t-301 201t-200.5 301t-74.5 366.5zM412 615.5q0 -199.5 98 -369.5t268 -269.5t371 -99.5 t370 99.5t268 269.5t99 368.5t-99 368.5t-268 269.5t-370 99.5t-371 -99.5t-268 -268.5t-98 -368.5zM731 614l393 414v-229h418v-369h-418v-229z" />
<glyph unicode="k" d="M207 -16l299 303l-164 164l582 45l-45 -586l-164 164l-299 -299zM1174 733l45 586l163 -168l299 303l205 -213l-295 -299l164 -164z" />
<glyph unicode="l" d="M207 86v1057q0 59 33 79q12 7 26 7q24 0 56 -21l876 -540q33 -25 33 -54q0 -33 -33 -53l-876 -541q-31 -21 -56 -20q-14 0 -26 7q-33 20 -33 79z" />
<glyph unicode="m" d="M2 102v1024q0 84 61.5 144.5t143.5 60.5h1638q86 0 145.5 -60.5t59.5 -144.5v-1024q0 -86 -59.5 -145t-145.5 -59h-1638q-82 0 -143.5 60t-61.5 144zM207 102h1638v1024h-1638v-1024z" />
<glyph unicode="n" d="M207 614.5q0 227.5 111.5 421t304 306t419.5 112.5q223 0 414 -109.5t303.5 -298t118.5 -411.5h254l-377 -418l-377 418h291q-8 256 -190.5 433t-436.5 177q-260 0 -443 -184t-183 -446.5t183 -446.5t443 -184q205 0 373 122l144 -155q-227 -176 -517 -176 q-227 0 -419.5 112.5t-304 306t-111.5 421z" />
<glyph unicode="o" d="M219 -152l909 1602q25 37 66 37q43 0 61 -37l910 -1602q9 -15 9 -32.5t-9 -36.5q-18 -33 -62 -33h-1822q-41 0 -62 33q-9 19 -9 36.5t9 32.5zM1067 -49h250v205h-250v-205zM1067 311h250v615h-250v-615z" />
<glyph unicode="p" d="M207 205v1229q0 43 31.5 72.5t70.5 29.5h819q43 0 73 -29.5t30 -72.5v-308h307q43 0 72.5 -29.5t29.5 -72.5v-1229q0 -43 -29.5 -72.5t-72.5 -29.5h-819q-41 0 -72 30.5t-31 71.5v307h-307q-39 0 -70.5 31t-31.5 72zM412 307h204v717q0 43 30 72.5t73 29.5h307v205h-614 v-1024zM821 -102h615v1024h-615v-1024z" />
<glyph unicode="q" d="M207 311.5q0 149.5 109.5 255t263.5 105.5h45q-8 49 -9 73q0 221 161 377t384 156q182 0 326.5 -105.5t198.5 -271.5q25 4 81 4q203 0 345.5 -139t142.5 -340q0 -197 -142.5 -338t-345.5 -141h-393v389h217l-360 471l-357 -471h213v-389h-507q-154 0 -263.5 107.5 t-109.5 257z" />
<glyph unicode="r" d="M207 -205l45 574l160 -164l286 295l205 -205l-291 -295l160 -160zM1149 934l291 295l-160 160l565 45l-41 -574l-159 164l-291 -295z" />
<glyph unicode="s" d="M207 328v569h717l4 393l774 -676l-778 -675l4 389h-721z" />
<glyph unicode="t" d="M207 586l676 774l676 -774h-394v-721h-569v721h-389z" />
<glyph unicode="u" d="M207 160v909q0 51 30 69q11 7 23 6q21 0 45 -18l746 -467q25 -20 24 -45q0 -12 -6 -23t-12 -16l-6 -6l-746 -467q-24 -16 -44 -16q-13 0 -24 6q-30 17 -30 68zM1128 139v951q0 119 152 118q156 0 156 -118v-951q0 -119 -156 -119q-152 0 -152 119z" />
<glyph unicode="v" d="M207 311q0 152 107.5 258.5t260.5 106.5q8 0 22.5 -2t23.5 -2q-8 49 -9 78q0 221 161 376.5t384 155.5q182 0 326.5 -106.5t197.5 -274.5q49 8 82 8q203 0 347.5 -140t144.5 -339t-144.5 -339t-347.5 -140h-1188q-152 0 -260 106.5t-108 253.5z" />
<glyph unicode="w" d="M207 -102v1433q0 84 61.5 144.5t143.5 60.5h1024q86 0 145 -60.5t59 -144.5v-1433q0 -86 -59 -145.5t-145 -59.5h-1024q-84 0 -144.5 60.5t-60.5 144.5zM412 -102h1024v1433h-1024v-1433z" />
<glyph unicode="x" d="M211 602v11q0 187 70 357q72 175 195.5 302t296.5 204.5t365 79.5q5 0 10 1q186 0 357 -70q176 -72 304 -197t206 -298t80 -365v-11q0 -185 -71 -355q-73 -175 -196.5 -303t-296.5 -205t-365 -80h-15q-183 0 -352 69q-176 72 -304 196.5t-205 299t-79 364.5zM780 823h226 v13q0 55 36 110q31 49 107 49q82 0 111 -41t28 -94q0 -39 -33 -82q-18 -27 -36 -37l-14 -9q-13 -9 -31.5 -22.5t-40 -29.5t-43 -35.5t-35.5 -38.5q-14 -16 -22.5 -43.5t-9.5 -43t-5 -68.5v-21h217v8q0 20 8 62q14 35 62 69l57 41q94 78 111 99q53 72 53 163q0 158 -111 238 q-111 78 -274 78q-123 0 -213 -58q-135 -86 -148 -294v-13zM997 180q-2 -57 36 -96t100 -43h4q59 0 98 37t41 94q0 61 -37 101t-102 42h-4q-57 0 -96.5 -38t-39.5 -97z" />
<glyph unicode="y" d="M207 975q12 334 229 471q139 90 340 90q268 0 443 -127q176 -125 176 -373q0 -135 -86 -258q-39 -49 -185 -160l-90 -65q-80 -59 -102 -123q-12 -37 -12 -90q0 -8 -8.5 -18.5t-24.5 -10.5h-262q-33 0 -33 29q4 72 7 108.5t14.5 78.5t31.5 67q82 94 266 213q49 41 66 70 q57 72 57 139q0 92 -53 164q-49 74 -188 73q-133 0 -193 -90q-57 -96 -57 -188h-336zM622 57q58 54 138 54h12q94 -2 154 -63q56 -57 56 -145v-9q-3 -94 -66 -149q-60 -52 -149 -52h-7q-88 4 -148 62q-57 56 -57 145q0 96 67 157z" />
<glyph unicode="z" d="M207 -102v1433q0 84 60.5 144.5t144.5 60.5h1024q84 0 144 -60.5t60 -144.5v-1433q0 -84 -60 -144.5t-144 -60.5h-1024q-86 0 -145.5 59.5t-59.5 145.5zM412 -102h1024v1433h-1024v-1433zM637 127v176h573v-176h-573zM637 930v180h573v-180h-573zM641 524v185h573v-185 h-573z" />
<glyph unicode="{" d="M211 328q-6 41 3 99t30 93l319 770q18 37 63.5 63.5t88.5 26.5h213l-41 -413h-279l525 -435l520 435h-275l-41 413h209q43 0 88 -26.5t64 -63.5l323 -770q18 -37 26.5 -94t2.5 -98l-70 -381q-6 -39 -42.5 -71t-79.5 -32h-1455q-41 0 -76.5 31t-45.5 72zM383 242l25 -148 q6 -43 40.5 -72.5t77.5 -29.5h1209q43 0 77.5 29.5t40.5 72.5l29 148q6 43 -20.5 72.5t-69.5 29.5h-1323q-43 0 -67.5 -29.5t-18.5 -72.5z" />
<glyph unicode="|" d="M207 139v955q0 119 151 118q156 0 156 -118v-955q0 -119 -156 -119q-151 0 -151 119zM563 614q0 29 25 45l745 471q43 27 73 9.5t30 -70.5v-905q0 -51 -30 -69.5t-73 7.5l-745 467q-25 20 -25 45z" />
<glyph unicode="}" d="M207 643h389v717h569v-717h394l-676 -778z" />
<glyph unicode="~" d="M207 614l778 676v-393h717v-565h-717v-393z" />
<glyph unicode="&#xa0;" d="M207 614q0 29 29 50l765 507q43 29 75 9.5t32 -74.5v-983q0 -55 -32 -73.5t-75 7.5l-765 508q-29 20 -29 49zM1137 614q0 29 28 50l738 507q47 27 76.5 8.5t29.5 -73.5v-983q0 -55 -29.5 -73.5t-76.5 7.5l-738 508q-28 20 -28 49z" />
<glyph unicode="&#xaa;" d="M239 479q28 115 71.5 211t95 183.5t92.5 141.5t69 83q41 42 112 42q78 0 191 -51q217 -97 443 -323q225 -225 323 -444q52 -117 53 -196q0 -69 -40 -110q-29 -29 -83.5 -69.5t-141.5 -91t-184 -94.5t-212 -71.5t-223.5 -27.5t-220 43t-200.5 132t-132 200 q-42 108 -42 214q0 109 29 228zM665.5 966.5q-8.5 -8.5 -8.5 -28.5q0 -25 13 -69q23 -79 100.5 -206.5t194 -244.5t244.5 -196t207 -101q41 -12 66 -12q22 0 31 10q9 9 9 30q0 25 -12 67q-22 79 -100.5 207t-195 244.5t-244.5 194.5t-207 101q-43 12 -69 12 q-20 0 -28.5 -8.5zM1114 1240q-5 17 -5 33q0 24 11 46l111 197q23 37 62 47q13 3 27 3q26 0 50 -14q37 -18 50 -60q5 -16 5 -31q0 -25 -14 -48l-111 -196q-33 -53 -90 -54q-27 0 -49 17q-35 18 -47 60zM1425 1028q0 43 31 70l197 196q31 31 71.5 31t71.5 -30.5t31 -72.5 t-31 -71l-192 -197q-29 -29 -74 -28.5t-74 28.5q-31 31 -31 74zM1671 737q10 41 47 62l201 110q23 13 47 13q15 0 30 -4q40 -12 62 -50q11 -23 12 -47q0 -15 -5 -29q-11 -40 -48 -63l-196 -111q-25 -12 -49 -12q-63 0 -91 53q-14 25 -13 51q0 13 3 27z" />
<glyph unicode="&#xad;" d="M207 614q0 127 90 217.5t217 90.5q106 0 184 -66l537 324q-4 16 -4 49q0 127 90 217t217 90t217 -90t90 -216t-90 -217t-217 -91q-98 0 -188 61l-537 -319q8 -33 8 -49.5t-8 -49.5l537 -323q86 66 188 65q127 0 217 -90t90 -216t-90 -217t-217 -91t-217 90t-90 217 q0 33 4 49l-537 320q-82 -61 -184 -62q-127 0 -217 90t-90 217z" />
<glyph unicode="&#xb2;" d="M207 922q0 213 150.5 362.5t362.5 149.5t361.5 -149.5t149.5 -362.5q0 -137 -52.5 -303t-128 -305.5t-150.5 -260.5t-128 -188l-53 -70q-20 27 -55 73t-123 182t-156 266t-123 299.5t-55 306.5zM440 913q0 -115 81 -194.5t198 -79.5q115 0 194.5 81t79.5 193 q0 117 -79.5 198t-194.5 81q-117 0 -198 -81t-81 -198z" />
<glyph unicode="&#xb3;" d="M207 -82v1126q0 43 29.5 73t72.5 30h590q-150 -115 -225 -205h-262v-922h1331v111l205 172v-385q0 -41 -31 -71.5t-72 -30.5h-1536q-43 0 -72.5 29.5t-29.5 72.5zM748 274q0 10 1 29t9 75t21.5 110.5t42 128t68.5 137t104.5 128t143.5 109.5t191.5 74t245.5 29v319 l680 -512l-680 -532v364q-176 0 -286.5 -16.5t-207 -69.5t-169 -138t-164.5 -235z" />
<glyph unicode="&#xb9;" d="M207 -135v1200q0 37 33 57l479 303q35 20 69 0l443 -278l446 278q35 20 70 0l479 -303q29 -20 29 -57v-1200q0 -41 -33 -62q-16 -8 -32.5 -8t-32.5 8l-447 279l-442 -279q-35 -20 -70 0l-442 279l-447 -279q-33 -18 -65 0q-37 23 -37 62zM342 -12l344 217v1036l-344 -217 v-1036zM821 205l344 -217v1036l-344 217v-1036zM1300 -12l345 217v1036l-345 -217v-1036zM1780 205l344 -217v1036l-344 217v-1036z" />
<glyph unicode="&#xba;" d="M219 -152l909 1602q25 37 66 37q43 0 61 -37l910 -1602q9 -15 9 -32.5t-9 -36.5q-18 -33 -62 -33h-1822q-41 0 -62 33q-9 19 -9 36.5t9 32.5zM1067 -49h250v205h-250v-205zM1067 311h250v615h-250v-615z" />
<glyph unicode="&#xc0;" d="M541 2704.5q0 191.5 74.5 365.5t200.5 300t301 200.5t366.5 74.5t366 -74.5t300.5 -200.5t200.5 -300t74.5 -365.5t-74.5 -366.5t-200.5 -301t-300.5 -201t-366 -75t-366.5 75t-301 201t-200.5 301t-74.5 366.5zM746 2704.5q0 -199.5 98 -369.5t268 -269.5t371 -99.5 t370 99.5t268 269.5t99 368.5t-99 368.5t-268 269.5t-370 99.5t-371 -99.5t-268 -268.5t-98 -368.5zM1065 2728l418 389l414 -389h-230v-418h-368v418h-234zM220 -42q-10 33 -10 59q0 37 21 57l836 835q-4 35 -4 69q0 65 13 127q19 95 52 128l275 274q27 27 78 28h5 q49 0 107 -18q61 -19 132 -65.5t133 -108.5q63 -61 108 -132.5t67 -134.5q21 -60 20 -108q0 -54 -28 -79l-278 -279q-33 -33 -127 -53q-59 -13 -121 -13q-37 0 -76 5l-835 -836q-21 -21 -57 -21q-25 0 -58 11q-78 27 -151 100q-76 74 -102 155zM922 585q-2 -11 -2 -21 q0 -34 21 -55t55 -21q10 0 21 1q48 8 91 48q41 41 48 89q1 9 1 17q0 36 -24 57q-21 22 -55 23q-10 0 -20 -2q-48 -8 -88 -48t-48 -88zM1476.5 1433.5q-3.5 -3.5 -3.5 -13.5q0 -14 7 -43q11 -48 51 -124.5t101 -138.5q59 -59 136 -98t126 -50q28 -7 44 -7q11 0 14 4q3 2 3 10 q0 13 -8 43q-13 47 -54.5 122.5t-100.5 135.5q-61 59 -137 100t-123 54q-29 8 -44 9q-8 0 -11.5 -3.5z" />
<glyph unicode="&#xc2;" d="M580 1862q0 41 31 71l1601 1602q31 31 72 31t71.5 -31t30.5 -73t-30 -71l-1602 -1601q-29 -29 -70 -29q-45 0 -73 29q-31 31 -31 72zM769 2533.5q1 106.5 34 215t74 201.5t91 175t89 134.5t66 78.5q72 66 217 24t323 -171l-106 -107q-78 53 -155 88t-117 40t-60 -5 q-8 -18 -4 -59t39 -118t88 -159l-553 -553q-27 109 -26 215.5zM1119 1950l569 569q55 -41 111.5 -73.5t100.5 -52t83 -31t59.5 -10.5t30.5 7q8 10 9 30.5t-11 59.5t-30.5 83t-52.5 100.5t-75 111.5l103 103q154 -188 208 -352t-16 -238q-31 -29 -87 -70t-143 -94t-191.5 -95 t-215 -72t-230.5 -24.5t-222 48.5zM220 -42q-10 33 -10 59q0 37 21 57l836 835q-4 35 -4 69q0 65 13 127q19 95 52 128l275 274q27 27 78 28h5q49 0 107 -18q61 -19 132 -65.5t133 -108.5q63 -61 108 -132.5t67 -134.5q21 -60 20 -108q0 -54 -28 -79l-278 -279 q-33 -33 -127 -53q-59 -13 -121 -13q-37 0 -76 5l-835 -836q-21 -21 -57 -21q-25 0 -58 11q-78 27 -151 100q-76 74 -102 155zM922 585q-2 -11 -2 -21q0 -34 21 -55t55 -21q10 0 21 1q48 8 91 48q41 41 48 89q1 9 1 17q0 36 -24 57q-21 22 -55 23q-10 0 -20 -2 q-48 -8 -88 -48t-48 -88zM1476.5 1433.5q-3.5 -3.5 -3.5 -13.5q0 -14 7 -43q11 -48 51 -124.5t101 -138.5q59 -59 136 -98t126 -50q28 -7 44 -7q11 0 14 4q3 2 3 10q0 13 -8 43q-13 47 -54.5 122.5t-100.5 135.5q-61 59 -137 100t-123 54q-29 8 -44 9q-8 0 -11.5 -3.5z" />
<glyph unicode="&#xc3;" d="M735 2437l778 676v-393h717v-565h-717v-393zM220 -42q-10 33 -10 59q0 37 21 57l836 835q-4 35 -4 69q0 65 13 127q19 95 52 128l275 274q27 27 78 28h5q49 0 107 -18q61 -19 132 -65.5t133 -108.5q63 -61 108 -132.5t67 -134.5q21 -60 20 -108q0 -54 -28 -79l-278 -279 q-33 -33 -127 -53q-59 -13 -121 -13q-37 0 -76 5l-835 -836q-21 -21 -57 -21q-25 0 -58 11q-78 27 -151 100q-76 74 -102 155zM922 585q-2 -11 -2 -21q0 -34 21 -55t55 -21q10 0 21 1q48 8 91 48q41 41 48 89q1 9 1 17q0 36 -24 57q-21 22 -55 23q-10 0 -20 -2 q-48 -8 -88 -48t-48 -88zM1476.5 1433.5q-3.5 -3.5 -3.5 -13.5q0 -14 7 -43q11 -48 51 -124.5t101 -138.5q59 -59 136 -98t126 -50q28 -7 44 -7q11 0 14 4q3 2 3 10q0 13 -8 43q-13 47 -54.5 122.5t-100.5 135.5q-61 59 -137 100t-123 54q-29 8 -44 9q-8 0 -11.5 -3.5z" />
<glyph unicode="&#xc8;" d="M404 2704.5q0 191.5 74.5 365.5t200.5 300t301 200.5t366.5 74.5t366 -74.5t300.5 -200.5t200.5 -300t74.5 -365.5t-74.5 -366.5t-200.5 -301t-300.5 -201t-366 -75t-366.5 75t-301 201t-200.5 301t-74.5 366.5zM609 2704.5q0 -199.5 98 -369.5t268 -269.5t371 -99.5 t370 99.5t268 269.5t99 368.5t-99 368.5t-268 269.5t-370 99.5t-371 -99.5t-268 -268.5t-98 -368.5zM928 2728l418 389l414 -389h-230v-418h-368v418h-234zM207 295q0 195 109.5 352.5t283.5 224.5q25 287 239 485.5t507 198.5q203 0 373.5 -100t271 -272t100.5 -373 q0 -291 -198.5 -504t-485.5 -237q-68 -176 -226.5 -287t-355.5 -111q-254 0 -436 182.5t-182 440.5zM207 1327q0 86 62.5 149.5t150.5 63.5q86 0 147.5 -63.5t61.5 -149.5q0 -88 -61.5 -150.5t-147.5 -62.5q-88 0 -150.5 62.5t-62.5 150.5zM301 1327q0 -49 35 -84t84 -35 q47 0 81 35t34 84t-34 82t-81 33q-49 0 -84 -33t-35 -82zM412 295q0 -170 121.5 -292t291.5 -122q115 0 210 55.5t151 149.5q-213 47 -367.5 200.5t-202.5 364.5q-94 -55 -149 -149t-55 -207zM834 709q31 -154 143.5 -264.5t265.5 -141.5q-2 166 -122.5 285t-286.5 121z M834 913q252 0 432 -179t182 -431q180 35 299 178.5t119 329.5q0 215 -152.5 367.5t-367.5 152.5q-188 0 -331.5 -119t-180.5 -299z" />
<glyph unicode="&#xca;" d="M442 1862q0 41 31 71l1601 1602q31 31 72 31t71.5 -31t30.5 -73t-30 -71l-1602 -1601q-29 -29 -70 -29q-45 0 -73 29q-31 31 -31 72zM631 2533.5q1 106.5 34 215t74 201.5t91 175t89 134.5t66 78.5q72 66 217 24t323 -171l-106 -107q-78 53 -155 88t-117 40t-60 -5 q-8 -18 -4 -59t39 -118t88 -159l-553 -553q-27 109 -26 215.5zM981 1950l569 569q55 -41 111.5 -73.5t100.5 -52t83 -31t59.5 -10.5t30.5 7q8 10 9 30.5t-11 59.5t-30.5 83t-52.5 100.5t-75 111.5l103 103q154 -188 208 -352t-16 -238q-31 -29 -87 -70t-143 -94t-191.5 -95 t-215 -72t-230.5 -24.5t-222 48.5zM207 295q0 195 109.5 352.5t283.5 224.5q25 287 239 485.5t507 198.5q203 0 373.5 -100t271 -272t100.5 -373q0 -291 -198.5 -504t-485.5 -237q-68 -176 -226.5 -287t-355.5 -111q-254 0 -436 182.5t-182 440.5zM207 1327q0 86 62.5 149.5 t150.5 63.5q86 0 147.5 -63.5t61.5 -149.5q0 -88 -61.5 -150.5t-147.5 -62.5q-88 0 -150.5 62.5t-62.5 150.5zM301 1327q0 -49 35 -84t84 -35q47 0 81 35t34 84t-34 82t-81 33q-49 0 -84 -33t-35 -82zM412 295q0 -170 121.5 -292t291.5 -122q115 0 210 55.5t151 149.5 q-213 47 -367.5 200.5t-202.5 364.5q-94 -55 -149 -149t-55 -207zM834 709q31 -154 143.5 -264.5t265.5 -141.5q-2 166 -122.5 285t-286.5 121zM834 913q252 0 432 -179t182 -431q180 35 299 178.5t119 329.5q0 215 -152.5 367.5t-367.5 152.5q-188 0 -331.5 -119 t-180.5 -299z" />
<glyph unicode="&#xcc;" d="M-35 2704.5q0 191.5 74.5 365.5t200.5 300t301 200.5t366.5 74.5t366 -74.5t300.5 -200.5t200.5 -300t74.5 -365.5t-74.5 -366.5t-200.5 -301t-300.5 -201t-366 -75t-366.5 75t-301 201t-200.5 301t-74.5 366.5zM170 2704.5q0 -199.5 98 -369.5t268 -269.5t371 -99.5 t370 99.5t268 269.5t99 368.5t-99 368.5t-268 269.5t-370 99.5t-371 -99.5t-268 -268.5t-98 -368.5zM489 2728l418 389l414 -389h-230v-418h-368v418h-234zM223 -180q-13 37 -12 75q0 79 54 160q81 121 237 178q92 33 175 33q78 0 148 -28v1339h164q0 -53 35 -113.5t84 -115 t106.5 -116t101.5 -128t68 -139.5q15 -44 15 -95q0 -34 -6 -70q-16 -91 -80 -190q-24 -40 -40 -40q-7 0 -11 8q-8 10 -2 32q12 33 14 88v15q0 49 -11 108q-13 68 -43 129.5t-89.5 108.5t-141.5 59v-1093q4 -100 -77 -195.5t-214 -144.5q-91 -34 -176 -34q-60 0 -116 16 q-140 40 -183 153z" />
<glyph unicode="&#xce;" d="M4 1862q0 41 31 71l1601 1602q31 31 72 31t71.5 -31t30.5 -73t-30 -71l-1602 -1601q-29 -29 -70 -29q-45 0 -73 29q-31 31 -31 72zM193 2533.5q1 106.5 34 215t74 201.5t91 175t89 134.5t66 78.5q72 66 217 24t323 -171l-106 -107q-78 53 -155 88t-117 40t-60 -5 q-8 -18 -4 -59t39 -118t88 -159l-553 -553q-27 109 -26 215.5zM543 1950l569 569q55 -41 111.5 -73.5t100.5 -52t83 -31t59.5 -10.5t30.5 7q8 10 9 30.5t-11 59.5t-30.5 83t-52.5 100.5t-75 111.5l103 103q154 -188 208 -352t-16 -238q-31 -29 -87 -70t-143 -94t-191.5 -95 t-215 -72t-230.5 -24.5t-222 48.5zM223 -180q-13 37 -12 75q0 79 54 160q81 121 237 178q92 33 175 33q78 0 148 -28v1339h164q0 -53 35 -113.5t84 -115t106.5 -116t101.5 -128t68 -139.5q15 -44 15 -95q0 -34 -6 -70q-16 -91 -80 -190q-24 -40 -40 -40q-7 0 -11 8 q-8 10 -2 32q12 33 14 88v15q0 49 -11 108q-13 68 -43 129.5t-89.5 108.5t-141.5 59v-1093q4 -100 -77 -195.5t-214 -144.5q-91 -34 -176 -34q-60 0 -116 16q-140 40 -183 153z" />
<glyph unicode="&#xd1;" d="M1342 2437l778 676v-393h717v-565h-717v-393zM211 327q8 42 41 66l954 676q49 33 111 33l323 4q61 -8 95 -53l57 -82q39 29 74 61.5t71.5 75.5t62 93t42.5 106q14 47 14 99q0 10 -1 20q-3 65 -25 130q-8 25 2 46.5t34 30.5q12 4 23 5q12 0 25 -6q23 -10 30 -35 q32 -81 33 -161q0 -11 -1 -23q-5 -92 -28.5 -168t-71.5 -148.5t-100.5 -127t-113.5 -101.5l36 -53q22 -30 22 -69q0 -20 -5 -41l-103 -320q-23 -59 -69 -94l-955 -676q-36 -27 -66 -27q-34 0 -60 35l-435 627q-18 26 -18 56q0 11 2 21zM1447 803q-3 -16 -3 -31q0 -50 29 -92 q41 -55 107 -68q16 -3 31 -3q49 0 91 30q39 27 55 72q12 33 12 66q0 13 -2 26q-8 -6 -18 -12.5t-22.5 -13.5t-20.5 -11t-29 -4q-39 0 -53 33q-10 25 -2 49t31 37q6 0 49 24q-41 31 -93 33h-7q-48 0 -89 -29q-55 -38 -66 -106z" />
<glyph unicode="&#xd2;" d="M-80 2704.5q0 191.5 74.5 365.5t200.5 300t301 200.5t366.5 74.5t366 -74.5t300.5 -200.5t200.5 -300t74.5 -365.5t-74.5 -366.5t-200.5 -301t-300.5 -201t-366 -75t-366.5 75t-301 201t-200.5 301t-74.5 366.5zM125 2704.5q0 -199.5 98 -369.5t268 -269.5t371 -99.5 t370 99.5t268 269.5t99 368.5t-99 368.5t-268 269.5t-370 99.5t-371 -99.5t-268 -268.5t-98 -368.5zM444 2728l418 389l414 -389h-230v-418h-368v418h-234zM207 573v283q0 18 11 29.5t30 11.5h61q16 0 28.5 -11.5t12.5 -29.5v-283q0 -45 14.5 -91t50.5 -97t91 -90 t148.5 -64.5t207.5 -25.5q115 0 207 25.5t147.5 65.5t92.5 90t51 97t14 90v283q0 18 11.5 29.5t29.5 11.5h62q16 0 28.5 -11.5t12.5 -29.5v-283q0 -88 -33 -171t-98.5 -154.5t-174 -119.5t-247.5 -62v-271h266q16 0 28.5 -11t12.5 -30v-123q0 -14 -12.5 -27.5t-28.5 -13.5 h-737q-16 0 -28.5 12.5t-12.5 28.5v123q0 18 11 29.5t30 11.5h266v271q-139 14 -248 62t-173.5 119.5t-98 154.5t-33.5 171zM555 573v324h614v-324q0 -61 -72.5 -112t-234.5 -51t-234.5 51t-72.5 112zM555 1040v435q0 61 72.5 112t234.5 51t234.5 -51t72.5 -112v-435h-614z " />
<glyph unicode="&#xd4;" d="M-41 1862q0 41 31 71l1601 1602q31 31 72 31t71.5 -31t30.5 -73t-30 -71l-1602 -1601q-29 -29 -70 -29q-45 0 -73 29q-31 31 -31 72zM148 2533.5q1 106.5 34 215t74 201.5t91 175t89 134.5t66 78.5q72 66 217 24t323 -171l-106 -107q-78 53 -155 88t-117 40t-60 -5 q-8 -18 -4 -59t39 -118t88 -159l-553 -553q-27 109 -26 215.5zM498 1950l569 569q55 -41 111.5 -73.5t100.5 -52t83 -31t59.5 -10.5t30.5 7q8 10 9 30.5t-11 59.5t-30.5 83t-52.5 100.5t-75 111.5l103 103q154 -188 208 -352t-16 -238q-31 -29 -87 -70t-143 -94t-191.5 -95 t-215 -72t-230.5 -24.5t-222 48.5zM207 573v283q0 18 11 29.5t30 11.5h61q16 0 28.5 -11.5t12.5 -29.5v-283q0 -45 14.5 -91t50.5 -97t91 -90t148.5 -64.5t207.5 -25.5q115 0 207 25.5t147.5 65.5t92.5 90t51 97t14 90v283q0 18 11.5 29.5t29.5 11.5h62q16 0 28.5 -11.5 t12.5 -29.5v-283q0 -88 -33 -171t-98.5 -154.5t-174 -119.5t-247.5 -62v-271h266q16 0 28.5 -11t12.5 -30v-123q0 -14 -12.5 -27.5t-28.5 -13.5h-737q-16 0 -28.5 12.5t-12.5 28.5v123q0 18 11 29.5t30 11.5h266v271q-139 14 -248 62t-173.5 119.5t-98 154.5t-33.5 171z M555 573v324h614v-324q0 -61 -72.5 -112t-234.5 -51t-234.5 51t-72.5 112zM555 1040v435q0 61 72.5 112t234.5 51t234.5 -51t72.5 -112v-435h-614z" />
<glyph unicode="&#xd5;" d="M115 2437l778 676v-393h717v-565h-717v-393zM207 573v283q0 18 11 29.5t30 11.5h61q16 0 28.5 -11.5t12.5 -29.5v-283q0 -45 14.5 -91t50.5 -97t91 -90t148.5 -64.5t207.5 -25.5q115 0 207 25.5t147.5 65.5t92.5 90t51 97t14 90v283q0 18 11.5 29.5t29.5 11.5h62 q16 0 28.5 -11.5t12.5 -29.5v-283q0 -88 -33 -171t-98.5 -154.5t-174 -119.5t-247.5 -62v-271h266q16 0 28.5 -11t12.5 -30v-123q0 -14 -12.5 -27.5t-28.5 -13.5h-737q-16 0 -28.5 12.5t-12.5 28.5v123q0 18 11 29.5t30 11.5h266v271q-139 14 -248 62t-173.5 119.5 t-98 154.5t-33.5 171zM555 573v324h614v-324q0 -61 -72.5 -112t-234.5 -51t-234.5 51t-72.5 112zM555 1040v435q0 61 72.5 112t234.5 51t234.5 -51t72.5 -112v-435h-614z" />
<glyph unicode="&#xd9;" d="M-18 2704.5q0 191.5 74.5 365.5t200.5 300t301 200.5t366.5 74.5t366 -74.5t300.5 -200.5t200.5 -300t74.5 -365.5t-74.5 -366.5t-200.5 -301t-300.5 -201t-366 -75t-366.5 75t-301 201t-200.5 301t-74.5 366.5zM187 2704.5q0 -199.5 98 -369.5t268 -269.5t371 -99.5 t370 99.5t268 269.5t99 368.5t-99 368.5t-268 269.5t-370 99.5t-371 -99.5t-268 -268.5t-98 -368.5zM506 2728l418 389l414 -389h-230v-418h-368v418h-234zM207 -53v798q0 45 30.5 84t71.5 39h205v144q0 227 103.5 349t306.5 122q201 0 305 -122t104 -349v-144h185 q41 0 81.5 -40t40.5 -83v-798q0 -39 -28.5 -79t-69.5 -52l-123 -41q-106 -33 -200 -33h-594q-94 0 -201 33l-123 41q-39 12 -66.5 51t-27.5 80zM719 868h409v185q0 111 -54 168t-149.5 57t-150.5 -57.5t-55 -167.5v-185z" />
<glyph unicode="&#xdb;" d="M21 1862q0 41 31 71l1601 1602q31 31 72 31t71.5 -31t30.5 -73t-30 -71l-1602 -1601q-29 -29 -70 -29q-45 0 -73 29q-31 31 -31 72zM210 2533.5q1 106.5 34 215t74 201.5t91 175t89 134.5t66 78.5q72 66 217 24t323 -171l-106 -107q-78 53 -155 88t-117 40t-60 -5 q-8 -18 -4 -59t39 -118t88 -159l-553 -553q-27 109 -26 215.5zM560 1950l569 569q55 -41 111.5 -73.5t100.5 -52t83 -31t59.5 -10.5t30.5 7q8 10 9 30.5t-11 59.5t-30.5 83t-52.5 100.5t-75 111.5l103 103q154 -188 208 -352t-16 -238q-31 -29 -87 -70t-143 -94t-191.5 -95 t-215 -72t-230.5 -24.5t-222 48.5zM207 -53v798q0 45 30.5 84t71.5 39h205v144q0 227 103.5 349t306.5 122q201 0 305 -122t104 -349v-144h185q41 0 81.5 -40t40.5 -83v-798q0 -39 -28.5 -79t-69.5 -52l-123 -41q-106 -33 -200 -33h-594q-94 0 -201 33l-123 41 q-39 12 -66.5 51t-27.5 80zM719 868h409v185q0 111 -54 168t-149.5 57t-150.5 -57.5t-55 -167.5v-185z" />
<glyph unicode="&#xe0;" d="M377 2632.5q0 191.5 74.5 365.5t200.5 300t301 200.5t366.5 74.5t366 -74.5t300.5 -200.5t200.5 -300t74.5 -365.5t-74.5 -366.5t-200.5 -301t-300.5 -201t-366 -75t-366.5 75t-301 201t-200.5 301t-74.5 366.5zM582 2632.5q0 -199.5 98 -369.5t268 -269.5t371 -99.5 t370 99.5t268 269.5t99 368.5t-99 368.5t-268 269.5t-370 99.5t-371 -99.5t-268 -268.5t-98 -368.5zM901 2656l418 389l414 -389h-230v-418h-368v418h-234zM239 479q28 115 71.5 211t95 183.5t92.5 141.5t69 83q41 42 112 42q78 0 191 -51q217 -97 443 -323 q225 -225 323 -444q52 -117 53 -196q0 -69 -40 -110q-29 -29 -83.5 -69.5t-141.5 -91t-184 -94.5t-212 -71.5t-223.5 -27.5t-220 43t-200.5 132t-132 200q-42 108 -42 214q0 109 29 228zM665.5 966.5q-8.5 -8.5 -8.5 -28.5q0 -25 13 -69q23 -79 100.5 -206.5t194 -244.5 t244.5 -196t207 -101q41 -12 66 -12q22 0 31 10q9 9 9 30q0 25 -12 67q-22 79 -100.5 207t-195 244.5t-244.5 194.5t-207 101q-43 12 -69 12q-20 0 -28.5 -8.5zM1114 1240q-5 17 -5 33q0 24 11 46l111 197q23 37 62 47q13 3 27 3q26 0 50 -14q37 -18 50 -60q5 -16 5 -31 q0 -25 -14 -48l-111 -196q-33 -53 -90 -54q-27 0 -49 17q-35 18 -47 60zM1425 1028q0 43 31 70l197 196q31 31 71.5 31t71.5 -30.5t31 -72.5t-31 -71l-192 -197q-29 -29 -74 -28.5t-74 28.5q-31 31 -31 74zM1671 737q10 41 47 62l201 110q23 13 47 13q15 0 30 -4 q40 -12 62 -50q11 -23 12 -47q0 -15 -5 -29q-11 -40 -48 -63l-196 -111q-25 -12 -49 -12q-63 0 -91 53q-14 25 -13 51q0 13 3 27z" />
<glyph unicode="&#xe2;" d="M416 1790q0 41 31 71l1601 1602q31 31 72 31t71.5 -31t30.5 -73t-30 -71l-1602 -1601q-29 -29 -70 -29q-45 0 -73 29q-31 31 -31 72zM605 2461.5q1 106.5 34 215t74 201.5t91 175t89 134.5t66 78.5q72 66 217 24t323 -171l-106 -107q-78 53 -155 88t-117 40t-60 -5 q-8 -18 -4 -59t39 -118t88 -159l-553 -553q-27 109 -26 215.5zM955 1878l569 569q55 -41 111.5 -73.5t100.5 -52t83 -31t59.5 -10.5t30.5 7q8 10 9 30.5t-11 59.5t-30.5 83t-52.5 100.5t-75 111.5l103 103q154 -188 208 -352t-16 -238q-31 -29 -87 -70t-143 -94t-191.5 -95 t-215 -72t-230.5 -24.5t-222 48.5zM239 479q28 115 71.5 211t95 183.5t92.5 141.5t69 83q41 42 112 42q78 0 191 -51q217 -97 443 -323q225 -225 323 -444q52 -117 53 -196q0 -69 -40 -110q-29 -29 -83.5 -69.5t-141.5 -91t-184 -94.5t-212 -71.5t-223.5 -27.5t-220 43 t-200.5 132t-132 200q-42 108 -42 214q0 109 29 228zM665.5 966.5q-8.5 -8.5 -8.5 -28.5q0 -25 13 -69q23 -79 100.5 -206.5t194 -244.5t244.5 -196t207 -101q41 -12 66 -12q22 0 31 10q9 9 9 30q0 25 -12 67q-22 79 -100.5 207t-195 244.5t-244.5 194.5t-207 101 q-43 12 -69 12q-20 0 -28.5 -8.5zM1114 1240q-5 17 -5 33q0 24 11 46l111 197q23 37 62 47q13 3 27 3q26 0 50 -14q37 -18 50 -60q5 -16 5 -31q0 -25 -14 -48l-111 -196q-33 -53 -90 -54q-27 0 -49 17q-35 18 -47 60zM1425 1028q0 43 31 70l197 196q31 31 71.5 31 t71.5 -30.5t31 -72.5t-31 -71l-192 -197q-29 -29 -74 -28.5t-74 28.5q-31 31 -31 74zM1671 737q10 41 47 62l201 110q23 13 47 13q15 0 30 -4q40 -12 62 -50q11 -23 12 -47q0 -15 -5 -29q-11 -40 -48 -63l-196 -111q-25 -12 -49 -12q-63 0 -91 53q-14 25 -13 51q0 13 3 27z " />
<glyph unicode="&#xe3;" d="M572 2365l778 676v-393h717v-565h-717v-393zM239 479q28 115 71.5 211t95 183.5t92.5 141.5t69 83q41 42 112 42q78 0 191 -51q217 -97 443 -323q225 -225 323 -444q52 -117 53 -196q0 -69 -40 -110q-29 -29 -83.5 -69.5t-141.5 -91t-184 -94.5t-212 -71.5t-223.5 -27.5 t-220 43t-200.5 132t-132 200q-42 108 -42 214q0 109 29 228zM665.5 966.5q-8.5 -8.5 -8.5 -28.5q0 -25 13 -69q23 -79 100.5 -206.5t194 -244.5t244.5 -196t207 -101q41 -12 66 -12q22 0 31 10q9 9 9 30q0 25 -12 67q-22 79 -100.5 207t-195 244.5t-244.5 194.5t-207 101 q-43 12 -69 12q-20 0 -28.5 -8.5zM1114 1240q-5 17 -5 33q0 24 11 46l111 197q23 37 62 47q13 3 27 3q26 0 50 -14q37 -18 50 -60q5 -16 5 -31q0 -25 -14 -48l-111 -196q-33 -53 -90 -54q-27 0 -49 17q-35 18 -47 60zM1425 1028q0 43 31 70l197 196q31 31 71.5 31 t71.5 -30.5t31 -72.5t-31 -71l-192 -197q-29 -29 -74 -28.5t-74 28.5q-31 31 -31 74zM1671 737q10 41 47 62l201 110q23 13 47 13q15 0 30 -4q40 -12 62 -50q11 -23 12 -47q0 -15 -5 -29q-11 -40 -48 -63l-196 -111q-25 -12 -49 -12q-63 0 -91 53q-14 25 -13 51q0 13 3 27z " />
<glyph unicode="&#xe8;" d="M350 2552.5q0 191.5 74.5 365.5t200.5 300t301 200.5t366.5 74.5t366 -74.5t300.5 -200.5t200.5 -300t74.5 -365.5t-74.5 -366.5t-200.5 -301t-300.5 -201t-366 -75t-366.5 75t-301 201t-200.5 301t-74.5 366.5zM555 2552.5q0 -199.5 98 -369.5t268 -269.5t371 -99.5 t370 99.5t268 269.5t99 368.5t-99 368.5t-268 269.5t-370 99.5t-371 -99.5t-268 -268.5t-98 -368.5zM874 2576l418 389l414 -389h-230v-418h-368v418h-234zM207 635h250q6 223 118.5 411.5t303 298t413.5 109.5q227 0 421 -112.5t306.5 -306t112.5 -421t-112.5 -421 t-306 -306t-421.5 -112.5q-287 0 -516 176l144 155q168 -123 372 -122q260 0 443.5 184t183.5 446.5t-183.5 446.5t-443.5 184q-254 0 -435 -177t-191 -433h290l-376 -418z" />
<glyph unicode="&#xea;" d="M389 1710q0 41 31 71l1601 1602q31 31 72 31t71.5 -31t30.5 -73t-30 -71l-1602 -1601q-29 -29 -70 -29q-45 0 -73 29q-31 31 -31 72zM578 2381.5q1 106.5 34 215t74 201.5t91 175t89 134.5t66 78.5q72 66 217 24t323 -171l-106 -107q-78 53 -155 88t-117 40t-60 -5 q-8 -18 -4 -59t39 -118t88 -159l-553 -553q-27 109 -26 215.5zM928 1798l569 569q55 -41 111.5 -73.5t100.5 -52t83 -31t59.5 -10.5t30.5 7q8 10 9 30.5t-11 59.5t-30.5 83t-52.5 100.5t-75 111.5l103 103q154 -188 208 -352t-16 -238q-31 -29 -87 -70t-143 -94t-191.5 -95 t-215 -72t-230.5 -24.5t-222 48.5zM207 635h250q6 223 118.5 411.5t303 298t413.5 109.5q227 0 421 -112.5t306.5 -306t112.5 -421t-112.5 -421t-306 -306t-421.5 -112.5q-287 0 -516 176l144 155q168 -123 372 -122q260 0 443.5 184t183.5 446.5t-183.5 446.5t-443.5 184 q-254 0 -435 -177t-191 -433h290l-376 -418z" />
<glyph unicode="&#xec;" d="M207 2622.5q0 191.5 74.5 365.5t200.5 300t301 200.5t366.5 74.5t366 -74.5t300.5 -200.5t200.5 -300t74.5 -365.5t-74.5 -366.5t-200.5 -301t-300.5 -201t-366 -75t-366.5 75t-301 201t-200.5 301t-74.5 366.5zM412 2622.5q0 -199.5 98 -369.5t268 -269.5t371 -99.5 t370 99.5t268 269.5t99 368.5t-99 368.5t-268 269.5t-370 99.5t-371 -99.5t-268 -268.5t-98 -368.5zM731 2646l418 389l414 -389h-230v-418h-368v418h-234zM207 615.5q0 191.5 74.5 365.5t200.5 300t301 200.5t366.5 74.5t366 -74.5t300.5 -200.5t200.5 -300t74.5 -365.5 t-74.5 -366.5t-200.5 -301t-300.5 -201t-366 -75t-366.5 75t-301 201t-200.5 301t-74.5 366.5zM412 614q0 -199 99 -368.5t269 -269t370 -99.5t369 99.5t268 269.5t99 368q0 201 -99 371t-268 268.5t-369 98.5t-370 -98.5t-269 -268.5t-99 -371zM735 590h230v422h368v-422 h230l-414 -389z" />
<glyph unicode="&#xee;" d="M246 1780q0 41 31 71l1601 1602q31 31 72 31t71.5 -31t30.5 -73t-30 -71l-1602 -1601q-29 -29 -70 -29q-45 0 -73 29q-31 31 -31 72zM435 2451.5q1 106.5 34 215t74 201.5t91 175t89 134.5t66 78.5q72 66 217 24t323 -171l-106 -107q-78 53 -155 88t-117 40t-60 -5 q-8 -18 -4 -59t39 -118t88 -159l-553 -553q-27 109 -26 215.5zM785 1868l569 569q55 -41 111.5 -73.5t100.5 -52t83 -31t59.5 -10.5t30.5 7q8 10 9 30.5t-11 59.5t-30.5 83t-52.5 100.5t-75 111.5l103 103q154 -188 208 -352t-16 -238q-31 -29 -87 -70t-143 -94t-191.5 -95 t-215 -72t-230.5 -24.5t-222 48.5zM207 615.5q0 191.5 74.5 365.5t200.5 300t301 200.5t366.5 74.5t366 -74.5t300.5 -200.5t200.5 -300t74.5 -365.5t-74.5 -366.5t-200.5 -301t-300.5 -201t-366 -75t-366.5 75t-301 201t-200.5 301t-74.5 366.5zM412 614q0 -199 99 -368.5 t269 -269t370 -99.5t369 99.5t268 269.5t99 368q0 201 -99 371t-268 268.5t-369 98.5t-370 -98.5t-269 -268.5t-99 -371zM735 590h230v422h368v-422h230l-414 -389z" />
<glyph unicode="&#xf1;" d="M422 2285l778 676v-393h717v-565h-717v-393zM207 614.5q0 227.5 111.5 421t304 306t419.5 112.5q223 0 414 -109.5t303.5 -298t118.5 -411.5h254l-377 -418l-377 418h291q-8 256 -190.5 433t-436.5 177q-260 0 -443 -184t-183 -446.5t183 -446.5t443 -184q205 0 373 122 l144 -155q-227 -176 -517 -176q-227 0 -419.5 112.5t-304 306t-111.5 421z" />
<glyph unicode="&#xf2;" d="M252 2552.5q0 191.5 74.5 365.5t200.5 300t301 200.5t366.5 74.5t366 -74.5t300.5 -200.5t200.5 -300t74.5 -365.5t-74.5 -366.5t-200.5 -301t-300.5 -201t-366 -75t-366.5 75t-301 201t-200.5 301t-74.5 366.5zM457 2552.5q0 -199.5 98 -369.5t268 -269.5t371 -99.5 t370 99.5t268 269.5t99 368.5t-99 368.5t-268 269.5t-370 99.5t-371 -99.5t-268 -268.5t-98 -368.5zM776 2576l418 389l414 -389h-230v-418h-368v418h-234zM219 -152l909 1602q25 37 66 37q43 0 61 -37l910 -1602q9 -15 9 -32.5t-9 -36.5q-18 -33 -62 -33h-1822 q-41 0 -62 33q-9 19 -9 36.5t9 32.5zM1067 -49h250v205h-250v-205zM1067 311h250v615h-250v-615z" />
<glyph unicode="&#xf4;" d="M291 1710q0 41 31 71l1601 1602q31 31 72 31t71.5 -31t30.5 -73t-30 -71l-1602 -1601q-29 -29 -70 -29q-45 0 -73 29q-31 31 -31 72zM480 2381.5q1 106.5 34 215t74 201.5t91 175t89 134.5t66 78.5q72 66 217 24t323 -171l-106 -107q-78 53 -155 88t-117 40t-60 -5 q-8 -18 -4 -59t39 -118t88 -159l-553 -553q-27 109 -26 215.5zM830 1798l569 569q55 -41 111.5 -73.5t100.5 -52t83 -31t59.5 -10.5t30.5 7q8 10 9 30.5t-11 59.5t-30.5 83t-52.5 100.5t-75 111.5l103 103q154 -188 208 -352t-16 -238q-31 -29 -87 -70t-143 -94t-191.5 -95 t-215 -72t-230.5 -24.5t-222 48.5zM219 -152l909 1602q25 37 66 37q43 0 61 -37l910 -1602q9 -15 9 -32.5t-9 -36.5q-18 -33 -62 -33h-1822q-41 0 -62 33q-9 19 -9 36.5t9 32.5zM1067 -49h250v205h-250v-205zM1067 311h250v615h-250v-615z" />
<glyph unicode="&#xf5;" d="M447 2285l778 676v-393h717v-565h-717v-393zM219 -152l909 1602q25 37 66 37q43 0 61 -37l910 -1602q9 -15 9 -32.5t-9 -36.5q-18 -33 -62 -33h-1822q-41 0 -62 33q-9 19 -9 36.5t9 32.5zM1067 -49h250v205h-250v-205zM1067 311h250v615h-250v-615z" />
<glyph unicode="&#xf9;" d="M338 2552.5q0 191.5 74.5 365.5t200.5 300t301 200.5t366.5 74.5t366 -74.5t300.5 -200.5t200.5 -300t74.5 -365.5t-74.5 -366.5t-200.5 -301t-300.5 -201t-366 -75t-366.5 75t-301 201t-200.5 301t-74.5 366.5zM543 2552.5q0 -199.5 98 -369.5t268 -269.5t371 -99.5 t370 99.5t268 269.5t99 368.5t-99 368.5t-268 269.5t-370 99.5t-371 -99.5t-268 -268.5t-98 -368.5zM862 2576l418 389l414 -389h-230v-418h-368v418h-234zM207 160v909q0 51 30 69q11 7 23 6q21 0 45 -18l746 -467q25 -20 24 -45q0 -12 -6 -23t-12 -16l-6 -6l-746 -467 q-24 -16 -44 -16q-13 0 -24 6q-30 17 -30 68zM1128 139v951q0 119 152 118q156 0 156 -118v-951q0 -119 -156 -119q-152 0 -152 119z" />
<glyph unicode="&#xfb;" d="M377 1710q0 41 31 71l1601 1602q31 31 72 31t71.5 -31t30.5 -73t-30 -71l-1602 -1601q-29 -29 -70 -29q-45 0 -73 29q-31 31 -31 72zM566 2381.5q1 106.5 34 215t74 201.5t91 175t89 134.5t66 78.5q72 66 217 24t323 -171l-106 -107q-78 53 -155 88t-117 40t-60 -5 q-8 -18 -4 -59t39 -118t88 -159l-553 -553q-27 109 -26 215.5zM916 1798l569 569q55 -41 111.5 -73.5t100.5 -52t83 -31t59.5 -10.5t30.5 7q8 10 9 30.5t-11 59.5t-30.5 83t-52.5 100.5t-75 111.5l103 103q154 -188 208 -352t-16 -238q-31 -29 -87 -70t-143 -94t-191.5 -95 t-215 -72t-230.5 -24.5t-222 48.5zM207 160v909q0 51 30 69q11 7 23 6q21 0 45 -18l746 -467q25 -20 24 -45q0 -12 -6 -23t-12 -16l-6 -6l-746 -467q-24 -16 -44 -16q-13 0 -24 6q-30 17 -30 68zM1128 139v951q0 119 152 118q156 0 156 -118v-951q0 -119 -156 -119 q-152 0 -152 119z" />
<glyph unicode="&#x152;" horiz-adv-x="2048" d="M1231 295q0 195 109.5 352.5t283.5 224.5q25 287 239 485.5t507 198.5q203 0 373.5 -100t271 -272t100.5 -373q0 -291 -198.5 -504t-485.5 -237q-68 -176 -226.5 -287t-355.5 -111q-254 0 -436 182.5t-182 440.5zM1231 1327q0 86 62.5 149.5t150.5 63.5q86 0 147.5 -63.5 t61.5 -149.5q0 -88 -61.5 -150.5t-147.5 -62.5q-88 0 -150.5 62.5t-62.5 150.5zM1325 1327q0 -49 35 -84t84 -35q47 0 81 35t34 84t-34 82t-81 33q-49 0 -84 -33t-35 -82zM1436 295q0 -170 121.5 -292t291.5 -122q115 0 210 55.5t151 149.5q-213 47 -367.5 200.5 t-202.5 364.5q-94 -55 -149 -149t-55 -207zM1858 709q31 -154 143.5 -264.5t265.5 -141.5q-2 166 -122.5 285t-286.5 121zM1858 913q252 0 432 -179t182 -431q180 35 299 178.5t119 329.5q0 215 -152.5 367.5t-367.5 152.5q-188 0 -331.5 -119t-180.5 -299zM207 573v283 q0 18 11 29.5t30 11.5h61q16 0 28.5 -11.5t12.5 -29.5v-283q0 -45 14.5 -91t50.5 -97t91 -90t148.5 -64.5t207.5 -25.5q115 0 207 25.5t147.5 65.5t92.5 90t51 97t14 90v283q0 18 11.5 29.5t29.5 11.5h62q16 0 28.5 -11.5t12.5 -29.5v-283q0 -88 -33 -171t-98.5 -154.5 t-174 -119.5t-247.5 -62v-271h266q16 0 28.5 -11t12.5 -30v-123q0 -14 -12.5 -27.5t-28.5 -13.5h-737q-16 0 -28.5 12.5t-12.5 28.5v123q0 18 11 29.5t30 11.5h266v271q-139 14 -248 62t-173.5 119.5t-98 154.5t-33.5 171zM555 573v324h614v-324q0 -61 -72.5 -112 t-234.5 -51t-234.5 51t-72.5 112zM555 1040v435q0 61 72.5 112t234.5 51t234.5 -51t72.5 -112v-435h-614z" />
<glyph unicode="&#x153;" horiz-adv-x="2048" d="M1231 635h250q6 223 118.5 411.5t303 298t413.5 109.5q227 0 421 -112.5t306.5 -306t112.5 -421t-112.5 -421t-306 -306t-421.5 -112.5q-287 0 -516 176l144 155q168 -123 372 -122q260 0 443.5 184t183.5 446.5t-183.5 446.5t-443.5 184q-254 0 -435 -177t-191 -433h290 l-376 -418zM219 -152l909 1602q25 37 66 37q43 0 61 -37l910 -1602q9 -15 9 -32.5t-9 -36.5q-18 -33 -62 -33h-1822q-41 0 -62 33q-9 19 -9 36.5t9 32.5zM1067 -49h250v205h-250v-205zM1067 311h250v615h-250v-615z" />
<glyph unicode="&#x2c6;" d="M209 -186q0 41 31 71l1601 1602q31 31 72 31t71.5 -31t30.5 -73t-30 -71l-1602 -1601q-29 -29 -70 -29q-45 0 -73 29q-31 31 -31 72zM398 485.5q1 106.5 34 215t74 201.5t91 175t89 134.5t66 78.5q72 66 217 24t323 -171l-106 -107q-78 53 -155 88t-117 40t-60 -5 q-8 -18 -4 -59t39 -118t88 -159l-553 -553q-27 109 -26 215.5zM748 -98l569 569q55 -41 111.5 -73.5t100.5 -52t83 -31t59.5 -10.5t30.5 7q8 10 9 30.5t-11 59.5t-30.5 83t-52.5 100.5t-75 111.5l103 103q154 -188 208 -352t-16 -238q-31 -29 -87 -70t-143 -94t-191.5 -95 t-215 -72t-230.5 -24.5t-222 48.5z" />
<glyph unicode="&#x2dc;" d="M-747 798l778 676v-393h717v-565h-717v-393z" />
<glyph unicode="&#x2000;" horiz-adv-x="1822" />
<glyph unicode="&#x2001;" horiz-adv-x="3645" />
<glyph unicode="&#x2002;" horiz-adv-x="1822" />
<glyph unicode="&#x2003;" horiz-adv-x="3645" />
<glyph unicode="&#x2004;" horiz-adv-x="1214" />
<glyph unicode="&#x2005;" horiz-adv-x="911" />
<glyph unicode="&#x2006;" horiz-adv-x="606" />
<glyph unicode="&#x2007;" horiz-adv-x="606" />
<glyph unicode="&#x2008;" horiz-adv-x="454" />
<glyph unicode="&#x2009;" horiz-adv-x="729" />
<glyph unicode="&#x200a;" horiz-adv-x="200" />
<glyph unicode="&#x2010;" d="M207 614q0 127 90 217.5t217 90.5q106 0 184 -66l537 324q-4 16 -4 49q0 127 90 217t217 90t217 -90t90 -216t-90 -217t-217 -91q-98 0 -188 61l-537 -319q8 -33 8 -49.5t-8 -49.5l537 -323q86 66 188 65q127 0 217 -90t90 -216t-90 -217t-217 -91t-217 90t-90 217 q0 33 4 49l-537 320q-82 -61 -184 -62q-127 0 -217 90t-90 217z" />
<glyph unicode="&#x2011;" d="M207 614q0 127 90 217.5t217 90.5q106 0 184 -66l537 324q-4 16 -4 49q0 127 90 217t217 90t217 -90t90 -216t-90 -217t-217 -91q-98 0 -188 61l-537 -319q8 -33 8 -49.5t-8 -49.5l537 -323q86 66 188 65q127 0 217 -90t90 -216t-90 -217t-217 -91t-217 90t-90 217 q0 33 4 49l-537 320q-82 -61 -184 -62q-127 0 -217 90t-90 217z" />
<glyph unicode="&#x2012;" d="M207 614q0 127 90 217.5t217 90.5q106 0 184 -66l537 324q-4 16 -4 49q0 127 90 217t217 90t217 -90t90 -216t-90 -217t-217 -91q-98 0 -188 61l-537 -319q8 -33 8 -49.5t-8 -49.5l537 -323q86 66 188 65q127 0 217 -90t90 -216t-90 -217t-217 -91t-217 90t-90 217 q0 33 4 49l-537 320q-82 -61 -184 -62q-127 0 -217 90t-90 217z" />
<glyph unicode="&#x2013;" d="M207 -307v1843h1638v-1843h-1638z" />
<glyph unicode="&#x2014;" horiz-adv-x="2048" d="M207 -307v1843h2662v-1843h-2662z" />
<glyph unicode="&#x2018;" d="M207 615.5q0 191.5 74.5 365.5t200.5 300t301 200.5t366.5 74.5t366 -74.5t300.5 -200.5t200.5 -300t74.5 -365.5t-74.5 -366.5t-200.5 -301t-300.5 -201t-366 -75t-366.5 75t-301 201t-200.5 301t-74.5 366.5zM412 615.5q0 -199.5 98 -369.5t268 -269.5t371 -99.5 t370 99.5t268 269.5t99 368.5t-99 368.5t-268 269.5t-370 99.5t-371 -99.5t-268 -268.5t-98 -368.5zM731 639l418 389l414 -389h-230v-418h-368v418h-234z" />
<glyph unicode="&#x2019;" d="M227.5 227.5q34.5 141.5 151.5 259.5q74 72 472 470.5t544 541.5q78 78 172 106.5t188 4.5q92 -25 161 -95.5t93.5 -162.5t-3.5 -186.5t-103 -170.5l-971 -970q-88 -88 -180 -95q-98 -12 -164 54q-39 39 -52.5 93t9 121.5t80.5 129.5l684 680q23 23 51.5 22.5t46.5 -22.5 q23 -20 23 -50t-23 -53l-680 -680q-41 -41 -51 -82t10 -57q16 -16 49 -16q41 6 94 53l971 971q102 109 70 221q-12 55 -54 98t-102 57q-115 33 -217 -69l-1016 -1016q-88 -90 -113.5 -192.5t2 -186.5t91.5 -149q63 -63 147 -92t188.5 -2.5t192.5 114.5l1012 1016 q23 23 52.5 22.5t51 -22t21.5 -51t-23 -51.5l-1016 -1016q-168 -168 -376 -168q-205 0 -353 147q-90 92 -127.5 212t-3 261.5z" />
<glyph unicode="&#x201c;" d="M207 -184v1597q0 84 61.5 144.5t143.5 60.5h778q86 0 145.5 -60.5t59.5 -144.5v-1597q0 -86 -59.5 -145.5t-145.5 -59.5h-778q-84 0 -144.5 60.5t-60.5 144.5zM371 0h860v1352h-860v-1352zM657 -205q0 -43 43 -72.5t101 -29.5q61 0 102 29.5t41 72.5t-41 73t-102 30 q-57 0 -100.5 -30t-43.5 -73z" />
<glyph unicode="&#x201d;" d="M207 -184v1597q0 84 61.5 144.5t143.5 60.5h778q86 0 145.5 -60.5t59.5 -144.5v-1597q0 -86 -59.5 -145.5t-145.5 -59.5h-778q-84 0 -144.5 60.5t-60.5 144.5zM371 0h860v1352h-860v-1352zM657 -205q0 -43 43 -72.5t101 -29.5q61 0 102 29.5t41 72.5t-41 73t-102 30 q-57 0 -100.5 -30t-43.5 -73z" />
<glyph unicode="&#x2026;" horiz-adv-x="3072" d="M2255 614.5q0 239.5 117.5 442.5t320.5 320.5t442 117.5q238 0 441 -117.5t321.5 -320.5t118.5 -442.5t-118.5 -442.5t-321.5 -320.5t-441 -117.5q-240 0 -442.5 117.5t-320 320.5t-117.5 442.5zM2419 541q29 -252 209 -433.5t434 -205.5v393h143v-393q254 25 435.5 206 t207.5 433h-397v143h397q-27 256 -208 437.5t-435 205.5v-397h-143v397q-254 -25 -434.5 -206t-208.5 -437h397v-143h-397zM1231 614.5q0 239.5 117.5 442.5t320.5 320.5t442 117.5q238 0 441 -117.5t321.5 -320.5t118.5 -442.5t-118.5 -442.5t-321.5 -320.5t-441 -117.5 q-240 0 -442.5 117.5t-320 320.5t-117.5 442.5zM1395 541q29 -252 209 -433.5t434 -205.5v393h143v-393q254 25 435.5 206t207.5 433h-397v143h397q-27 256 -208 437.5t-435 205.5v-397h-143v397q-254 -25 -434.5 -206t-208.5 -437h397v-143h-397zM207 614.5 q0 239.5 117.5 442.5t320.5 320.5t442 117.5q238 0 441 -117.5t321.5 -320.5t118.5 -442.5t-118.5 -442.5t-321.5 -320.5t-441 -117.5q-240 0 -442.5 117.5t-320 320.5t-117.5 442.5zM371 541q29 -252 209 -433.5t434 -205.5v393h143v-393q254 25 435.5 206t207.5 433h-397 v143h397q-27 256 -208 437.5t-435 205.5v-397h-143v397q-254 -25 -434.5 -206t-208.5 -437h397v-143h-397z" />
<glyph unicode="&#x202f;" horiz-adv-x="729" />
<glyph unicode="&#x2039;" d="M207 377v360q0 45 34.5 84t75.5 39h1782q43 0 79 -40t36 -83v-360q0 -41 -36 -82t-79 -41h-201l91 -512h-1557l90 512h-205q-41 0 -75.5 41t-34.5 82zM297 1022q6 18 20 22q47 20 210 76t200 56h94v307h778v-307h91q37 0 200.5 -55.5t208.5 -76.5q14 -4 20.5 -22 t-4 -34.5t-36.5 -16.5h-1741q-27 0 -37 16.5t-4 34.5zM637 -53h1147l-144 667h-860z" />
<glyph unicode="&#x203a;" d="M207 180q0 156 115 271l307 303q141 141 291.5 160.5t261.5 -91.5q31 -31 30.5 -71.5t-30.5 -71.5q-27 -31 -70 -31t-74 31q-98 98 -266 -70l-307 -303q-53 -53 -53 -127q0 -72 53 -131q55 -51 131 -51t131 51l82 86q31 29 72 28t71 -32q31 -27 31 -70t-31 -73l-82 -82 q-117 -111 -274.5 -111t-273.5 111q-115 114 -115 274zM844 465q0 41 30 72q29 31 71 30.5t73 -30.5q18 -16 32.5 -25.5t45 -16t73.5 16.5t95 74l327 323q53 53 54 127q0 72 -54 131q-35 33 -73.5 49.5t-85 10.5t-82.5 -43l-103 -103q-31 -29 -71.5 -27.5t-71.5 31.5 q-31 29 -31 71t31 73l102 102q111 109 260.5 102.5t268.5 -122.5q111 -111 110 -275q0 -160 -110 -270l-328 -324q-152 -152 -307 -151q-129 0 -226 102q-30 31 -30 72z" />
<glyph unicode="&#x205f;" horiz-adv-x="911" />
<glyph unicode="&#x2122;" horiz-adv-x="2048" d="M1231 0v922q0 84 61.5 144t143.5 60h245q29 0 52.5 16.5t29.5 41.5l66 192q6 25 29.5 41.5t48.5 16.5h696q29 0 52.5 -16.5t29.5 -41.5l65 -192q6 -25 30 -41.5t48 -16.5h246q86 0 145.5 -60t59.5 -144v-922q0 -86 -59.5 -145.5t-145.5 -59.5h-1638q-82 0 -143.5 60.5 t-61.5 144.5zM1743 513q0 -212 150.5 -362.5t362.5 -150.5t361.5 150.5t149.5 362.5t-149.5 361.5t-361.5 149.5t-362.5 -149.5t-150.5 -361.5zM1948 513q0 126 91 216t216 90q129 0 218 -90t89 -217t-89 -217t-218 -90q-125 0 -216 91t-91 217zM2931 848q0 -29 21.5 -49.5 t52 -20.5t50 20.5t19.5 49.5q0 31 -19.5 52.5t-50 21.5t-52 -21.5t-21.5 -52.5zM207 1012q207 207 472 314.5t533.5 107.5t533.5 -107.5t468 -314.5l-143 -144q-233 236 -547 320q-157 42 -314 42l-313 -42q-313 -84 -547 -320zM494 725q197 197 457 265q131 34 261 35 l262 -35q261 -69 453 -265l-143 -147q-156 158 -364 213q-104 28 -208 27.5t-208 -27.5q-209 -55 -367 -213zM780 434q178 182 430 182t430 -182l-143 -143q-117 121 -285 121t-288 -121zM1010 0q0 86 59 145.5t141 59.5q86 0 145.5 -59.5t59.5 -145.5t-59.5 -145.5 t-145.5 -59.5q-82 0 -141 59.5t-59 145.5z" />
<glyph unicode="&#xe000;" horiz-adv-x="1555" d="M0 1555h1555v-1555h-1555v1555z" />
<glyph unicode="&#xfb01;" horiz-adv-x="2048" d="M1231 615.5q0 191.5 74.5 365.5t200.5 300t301 200.5t366.5 74.5t366 -74.5t300.5 -200.5t200.5 -300t74.5 -365.5t-74.5 -366.5t-200.5 -301t-300.5 -201t-366 -75t-366.5 75t-301 201t-200.5 301t-74.5 366.5zM1436 614q0 -199 99 -368.5t269 -269t370 -99.5t369 99.5 t268 269.5t99 368q0 201 -99 371t-268 268.5t-369 98.5t-370 -98.5t-269 -268.5t-99 -371zM1759 590h230v422h368v-422h230l-414 -389zM215 971q-6 15 -6 29q0 16 7 33q13 32 44 40l1393 508q14 5 27 6q17 0 33 -9q30 -15 38 -46l213 -578h-205l-254 308l-442 -308h-365 q-109 0 -185.5 -77.5t-76.5 -188.5v-328zM621 -279v967q0 35 22.5 58.5t54.5 23.5h1479q33 0 55.5 -23.5t22.5 -58.5v-967q0 -33 -22.5 -57t-55.5 -24h-1479q-33 0 -55 24t-22 57zM838 25v-177h1228v328l-147 332l-344 -123l-266 -274l-283 352z" />
<glyph unicode="&#xfb02;" horiz-adv-x="2048" d="M1231 86v1057q0 59 33 79q12 7 26 7q24 0 56 -21l876 -540q33 -25 33 -54q0 -33 -33 -53l-876 -541q-31 -21 -56 -20q-14 0 -26 7q-33 20 -33 79zM215 971q-6 15 -6 29q0 16 7 33q13 32 44 40l1393 508q14 5 27 6q17 0 33 -9q30 -15 38 -46l213 -578h-205l-254 308 l-442 -308h-365q-109 0 -185.5 -77.5t-76.5 -188.5v-328zM621 -279v967q0 35 22.5 58.5t54.5 23.5h1479q33 0 55.5 -23.5t22.5 -58.5v-967q0 -33 -22.5 -57t-55.5 -24h-1479q-33 0 -55 24t-22 57zM838 25v-177h1228v328l-147 332l-344 -123l-266 -274l-283 352z" />
<glyph unicode="&#xfb03;" horiz-adv-x="3072" d="M2255 615.5q0 191.5 74.5 365.5t200.5 300t301 200.5t366.5 74.5t366 -74.5t300.5 -200.5t200.5 -300t74.5 -365.5t-74.5 -366.5t-200.5 -301t-300.5 -201t-366 -75t-366.5 75t-301 201t-200.5 301t-74.5 366.5zM2460 614q0 -199 99 -368.5t269 -269t370 -99.5t369 99.5 t268 269.5t99 368q0 201 -99 371t-268 268.5t-369 98.5t-370 -98.5t-269 -268.5t-99 -371zM2783 590h230v422h368v-422h230l-414 -389zM1239 971q-6 15 -6 29q0 16 7 33q13 32 44 40l1393 508q14 5 27 6q17 0 33 -9q30 -15 38 -46l213 -578h-205l-254 308l-442 -308h-365 q-109 0 -185.5 -77.5t-76.5 -188.5v-328zM1645 -279v967q0 35 22.5 58.5t54.5 23.5h1479q33 0 55.5 -23.5t22.5 -58.5v-967q0 -33 -22.5 -57t-55.5 -24h-1479q-33 0 -55 24t-22 57zM1862 25v-177h1228v328l-147 332l-344 -123l-266 -274l-283 352zM215 971q-6 15 -6 29 q0 16 7 33q13 32 44 40l1393 508q14 5 27 6q17 0 33 -9q30 -15 38 -46l213 -578h-205l-254 308l-442 -308h-365q-109 0 -185.5 -77.5t-76.5 -188.5v-328zM621 -279v967q0 35 22.5 58.5t54.5 23.5h1479q33 0 55.5 -23.5t22.5 -58.5v-967q0 -33 -22.5 -57t-55.5 -24h-1479 q-33 0 -55 24t-22 57zM838 25v-177h1228v328l-147 332l-344 -123l-266 -274l-283 352z" />
<glyph unicode="&#xfb04;" horiz-adv-x="3072" d="M2255 86v1057q0 59 33 79q12 7 26 7q24 0 56 -21l876 -540q33 -25 33 -54q0 -33 -33 -53l-876 -541q-31 -21 -56 -20q-14 0 -26 7q-33 20 -33 79zM1239 971q-6 15 -6 29q0 16 7 33q13 32 44 40l1393 508q14 5 27 6q17 0 33 -9q30 -15 38 -46l213 -578h-205l-254 308 l-442 -308h-365q-109 0 -185.5 -77.5t-76.5 -188.5v-328zM1645 -279v967q0 35 22.5 58.5t54.5 23.5h1479q33 0 55.5 -23.5t22.5 -58.5v-967q0 -33 -22.5 -57t-55.5 -24h-1479q-33 0 -55 24t-22 57zM1862 25v-177h1228v328l-147 332l-344 -123l-266 -274l-283 352zM215 971 q-6 15 -6 29q0 16 7 33q13 32 44 40l1393 508q14 5 27 6q17 0 33 -9q30 -15 38 -46l213 -578h-205l-254 308l-442 -308h-365q-109 0 -185.5 -77.5t-76.5 -188.5v-328zM621 -279v967q0 35 22.5 58.5t54.5 23.5h1479q33 0 55.5 -23.5t22.5 -58.5v-967q0 -33 -22.5 -57 t-55.5 -24h-1479q-33 0 -55 24t-22 57zM838 25v-177h1228v328l-147 332l-344 -123l-266 -274l-283 352z" />
</font>
</defs>
</svg>
